<svg xmlns="http://www.w3.org/2000/svg" id="canvas" viewBox="39.687 73.267 175.259 34.885"><path d="M 50.75,84.52 C 50.53 84.84, 50.33 85.32, 49.91 86.22 C 49.49 87.11, 49.21 87.70, 48.66 89.00 C 48.10 90.30, 47.73 91.22, 47.11 92.73 C 46.49 94.24, 46.16 95.10, 45.56 96.57 C 44.95 98.04, 44.60 98.83, 44.10 100.08 C 43.59 101.34, 43.31 101.95, 43.03 102.83 C 42.75 103.71, 42.67 104.13, 42.69 104.49 C 42.72 104.84, 42.86 104.86, 43.14 104.60 C 43.43 104.33, 43.65 103.99, 44.13 103.18 C 44.60 102.36, 44.89 101.75, 45.52 100.51 C 46.15 99.27, 46.50 98.49, 47.26 96.99 C 48.02 95.50, 48.46 94.62, 49.32 93.04 C 50.19 91.45, 50.64 90.60, 51.57 89.06 C 52.50 87.52, 53.03 86.75, 53.99 85.34 C 54.95 83.93, 55.48 83.22, 56.39 82.02 C 57.31 80.81, 57.78 80.25, 58.57 79.33 C 59.36 78.41, 59.81 78.00, 60.36 77.43 C 60.90 76.86, 61.11 76.62, 61.29 76.49 C 61.48 76.37, 61.43 76.44, 61.28 76.82 C 61.14 77.20, 60.95 77.54, 60.56 78.38 C 60.17 79.22, 59.87 79.84, 59.33 81.03 C 58.78 82.23, 58.43 83.02, 57.84 84.36 C 57.26 85.69, 56.91 86.46, 56.39 87.70 C 55.88 88.94, 55.60 89.56, 55.28 90.55 C 54.95 91.54, 54.81 92.00, 54.77 92.64 C 54.73 93.29, 54.81 93.53, 55.09 93.76 C 55.36 93.99, 55.57 93.99, 56.14 93.79 C 56.70 93.58, 57.09 93.36, 57.91 92.75 C 58.73 92.13, 59.23 91.64, 60.24 90.72 C 61.25 89.79, 61.83 89.17, 62.96 88.11 C 64.08 87.04, 64.72 86.43, 65.85 85.41 C 66.98 84.38, 67.59 83.85, 68.60 83.00 C 69.60 82.15, 70.09 81.75, 70.86 81.15 C 71.63 80.56, 71.98 80.32, 72.45 80.02 C 72.92 79.73, 73.08 79.63, 73.24 79.68 C 73.39 79.72, 73.36 79.81, 73.21 80.23 C 73.05 80.66, 72.89 80.96, 72.48 81.80 C 72.06 82.64, 71.77 83.22, 71.13 84.44 C 70.48 85.66, 70.05 86.43, 69.24 87.89 C 68.43 89.35, 67.91 90.20, 67.09 91.74 C 66.26 93.28, 65.82 94.13, 65.12 95.59 C 64.41 97.04, 64.07 97.77, 63.57 99.00 C 63.07 100.23, 62.84 100.81, 62.62 101.74 C 62.39 102.68, 62.36 103.07, 62.44 103.67 C 62.52 104.27, 62.65 104.49, 63.01 104.73 C 63.38 104.98, 63.66 105.01, 64.26 104.90 C 64.87 104.78, 65.27 104.61, 66.05 104.14 C 66.83 103.68, 67.26 103.31, 68.15 102.59 C 69.04 101.86, 69.56 101.36, 70.51 100.52 C 71.45 99.67, 71.98 99.17, 72.90 98.35 C 73.81 97.53, 74.30 97.09, 75.08 96.40 C 75.87 95.70, 76.29 95.35, 76.81 94.89 C 77.32 94.42, 77.48 94.21, 77.65 94.07 C 77.81 93.92, 77.78 93.94, 77.63 94.17 C 77.48 94.39, 77.26 94.62, 76.89 95.18 C 76.52 95.75, 76.22 96.19, 75.78 96.97 C 75.33 97.76, 75.06 98.28, 74.66 99.10 C 74.26 99.91, 74.05 100.36, 73.79 101.06 C 73.52 101.76, 73.40 102.09, 73.33 102.60 C 73.26 103.10, 73.26 103.32, 73.42 103.60 C 73.59 103.89, 73.75 104.00, 74.14 104.02 C 74.53 104.04, 74.80 103.96, 75.38 103.69 C 75.95 103.42, 76.29 103.16, 77.01 102.66 C 77.73 102.15, 78.15 101.82, 78.99 101.17 C 79.83 100.52, 80.32 100.11, 81.22 99.40 C 82.13 98.69, 82.63 98.28, 83.52 97.61 C 84.41 96.94, 84.87 96.61, 85.66 96.07 C 86.46 95.52, 86.85 95.28, 87.50 94.89 C 88.14 94.49, 88.43 94.35, 88.86 94.10 C 89.30 93.85, 89.47 93.78, 89.69 93.65 C 89.91 93.51, 89.97 93.46, 89.97 93.41 C 89.98 93.36, 89.90 93.34, 89.71 93.41 C 89.52 93.47, 89.37 93.51, 89.02 93.75 C 88.67 93.99, 88.44 94.17, 87.95 94.63 C 87.46 95.08, 87.15 95.40, 86.55 96.02 C 85.95 96.65, 85.57 97.00, 84.94 97.75 C 84.31 98.51, 83.93 98.98, 83.40 99.78 C 82.87 100.58, 82.61 101.05, 82.30 101.77 C 81.99 102.50, 81.89 102.84, 81.86 103.40 C 81.83 103.96, 81.89 104.23, 82.15 104.57 C 82.41 104.92, 82.65 105.06, 83.15 105.13 C 83.66 105.19, 83.99 105.13, 84.69 104.89 C 85.38 104.65, 85.79 104.45, 86.64 103.92 C 87.50 103.39, 87.98 103.03, 88.97 102.24 C 89.95 101.44, 90.50 100.94, 91.57 99.95 C 92.64 98.96, 93.24 98.38, 94.31 97.27 C 95.38 96.16, 95.94 95.54, 96.95 94.40 C 97.95 93.26, 98.48 92.66, 99.35 91.58 C 100.23 90.50, 100.64 89.92, 101.31 88.99 C 101.98 88.05, 102.27 87.59, 102.69 86.88 C 103.10 86.18, 103.25 85.89, 103.38 85.47 C 103.50 85.05, 103.46 84.89, 103.31 84.77 C 103.16 84.65, 102.99 84.65, 102.63 84.87 C 102.27 85.09, 102.00 85.29, 101.51 85.87 C 101.03 86.45, 100.76 86.88, 100.20 87.76 C 99.64 88.64, 99.33 89.20, 98.72 90.27 C 98.10 91.34, 97.73 91.98, 97.12 93.12 C 96.51 94.26, 96.18 94.91, 95.67 95.98 C 95.16 97.04, 94.90 97.60, 94.56 98.46 C 94.22 99.32, 94.07 99.70, 93.96 100.28 C 93.85 100.86, 93.86 101.08, 94.01 101.37 C 94.16 101.67, 94.32 101.75, 94.69 101.75 C 95.07 101.75, 95.35 101.65, 95.89 101.38 C 96.44 101.11, 96.76 100.86, 97.41 100.41 C 98.05 99.96, 98.43 99.64, 99.12 99.14 C 99.82 98.64, 100.25 98.32, 100.86 97.91 C 101.48 97.50, 101.80 97.30, 102.20 97.10 C 102.60 96.90, 102.73 96.84, 102.87 96.89 C 103.01 96.94, 102.95 97.07, 102.88 97.35 C 102.81 97.64, 102.67 97.88, 102.53 98.31 C 102.40 98.74, 102.26 99.04, 102.22 99.51 C 102.17 99.98, 102.18 100.27, 102.31 100.66 C 102.45 101.04, 102.55 101.21, 102.90 101.43 C 103.25 101.65, 103.47 101.74, 104.05 101.74 C 104.64 101.74, 105.04 101.68, 105.82 101.43 C 106.61 101.17, 107.07 100.92, 107.98 100.48 C 108.89 100.03, 109.40 99.74, 110.37 99.19 C 111.33 98.65, 111.88 98.31, 112.80 97.74 C 113.73 97.17, 114.22 96.83, 114.99 96.34 C 115.76 95.85, 116.16 95.64, 116.67 95.30 C 117.18 94.95, 117.39 94.82, 117.53 94.62 C 117.68 94.42, 117.60 94.31, 117.39 94.29 C 117.18 94.27, 116.96 94.33, 116.50 94.53 C 116.04 94.74, 115.72 94.91, 115.09 95.32 C 114.45 95.73, 114.03 96.03, 113.33 96.57 C 112.63 97.11, 112.25 97.46, 111.60 98.02 C 110.95 98.58, 110.59 98.87, 110.07 99.38 C 109.56 99.89, 109.28 100.15, 109.02 100.57 C 108.75 100.98, 108.72 101.19, 108.73 101.46 C 108.74 101.73, 108.81 101.84, 109.08 101.93 C 109.35 102.02, 109.59 102.04, 110.08 101.91 C 110.57 101.77, 110.91 101.61, 111.52 101.27 C 112.14 100.93, 112.49 100.68, 113.16 100.21 C 113.84 99.74, 114.24 99.42, 114.89 98.89 C 115.54 98.36, 115.90 98.04, 116.42 97.56 C 116.94 97.08, 117.21 96.80, 117.47 96.48 C 117.74 96.17, 117.78 96.03, 117.75 95.98 C 117.71 95.94, 117.52 96.01, 117.29 96.26 C 117.05 96.50, 116.84 96.76, 116.56 97.22 C 116.28 97.69, 116.09 98.05, 115.90 98.59 C 115.71 99.13, 115.63 99.45, 115.62 99.93 C 115.61 100.41, 115.66 100.66, 115.87 100.99 C 116.07 101.32, 116.23 101.44, 116.63 101.59 C 117.04 101.73, 117.30 101.77, 117.88 101.71 C 118.46 101.65, 118.81 101.55, 119.53 101.28 C 120.26 101.01, 120.68 100.79, 121.49 100.35 C 122.30 99.90, 122.77 99.61, 123.58 99.07 C 124.39 98.52, 124.83 98.19, 125.55 97.63 C 126.27 97.07, 126.63 96.78, 127.16 96.26 C 127.69 95.75, 127.95 95.48, 128.21 95.05 C 128.47 94.61, 128.51 94.37, 128.46 94.08 C 128.41 93.78, 128.28 93.64, 127.94 93.58 C 127.60 93.51, 127.29 93.53, 126.75 93.74 C 126.21 93.94, 125.84 94.16, 125.22 94.61 C 124.61 95.06, 124.25 95.40, 123.68 96.00 C 123.10 96.60, 122.76 96.96, 122.33 97.60 C 121.91 98.24, 121.71 98.62, 121.54 99.21 C 121.38 99.80, 121.37 100.11, 121.51 100.56 C 121.65 101.02, 121.80 101.22, 122.24 101.48 C 122.68 101.73, 123.00 101.84, 123.72 101.84 C 124.44 101.84, 124.89 101.76, 125.84 101.48 C 126.79 101.19, 127.34 100.98, 128.47 100.42 C 129.60 99.86, 130.26 99.49, 131.49 98.68 C 132.72 97.87, 133.36 97.36, 134.60 96.38 C 135.85 95.40, 136.53 94.84, 137.72 93.77 C 138.90 92.71, 139.53 92.14, 140.54 91.07 C 141.56 90.00, 142.04 89.40, 142.80 88.43 C 143.55 87.45, 143.88 86.98, 144.31 86.18 C 144.73 85.37, 144.87 84.98, 144.93 84.41 C 144.99 83.85, 144.91 83.61, 144.60 83.35 C 144.30 83.09, 144.01 83.01, 143.40 83.12 C 142.79 83.22, 142.38 83.36, 141.56 83.86 C 140.73 84.36, 140.23 84.74, 139.28 85.61 C 138.33 86.48, 137.77 87.06, 136.80 88.20 C 135.84 89.35, 135.30 90.06, 134.46 91.35 C 133.62 92.64, 133.19 93.37, 132.60 94.64 C 132.00 95.92, 131.73 96.60, 131.48 97.73 C 131.22 98.86, 131.19 99.40, 131.33 100.28 C 131.46 101.17, 131.65 101.55, 132.14 102.15 C 132.64 102.75, 133.01 102.99, 133.79 103.30 C 134.58 103.61, 135.08 103.68, 136.08 103.70 C 137.09 103.72, 137.79 103.59, 138.83 103.41 C 139.86 103.22, 140.43 103.04, 141.25 102.77 C 142.07 102.50, 142.61 102.24, 142.92 102.04 C 143.24 101.85, 143.21 101.77, 142.85 101.80 C 142.48 101.82, 141.92 102.00, 141.09 102.17 C 140.26 102.34, 139.70 102.48, 138.70 102.64 C 137.70 102.80, 137.02 102.95, 136.08 102.97 C 135.14 102.99, 134.71 102.97, 134.00 102.74 C 133.29 102.51, 132.97 102.32, 132.54 101.82 C 132.11 101.31, 131.95 101.00, 131.86 100.21 C 131.76 99.42, 131.81 98.93, 132.08 97.88 C 132.35 96.82, 132.62 96.16, 133.22 94.94 C 133.82 93.72, 134.24 93.01, 135.08 91.76 C 135.92 90.51, 136.45 89.82, 137.40 88.71 C 138.35 87.60, 138.91 87.05, 139.83 86.21 C 140.74 85.36, 141.23 85.01, 141.97 84.50 C 142.71 83.99, 143.05 83.84, 143.54 83.66 C 144.02 83.48, 144.21 83.47, 144.40 83.60 C 144.60 83.74, 144.62 83.88, 144.50 84.34 C 144.38 84.80, 144.24 85.15, 143.80 85.89 C 143.36 86.63, 143.04 87.09, 142.29 88.03 C 141.54 88.97, 141.06 89.55, 140.05 90.60 C 139.04 91.64, 138.42 92.20, 137.24 93.24 C 136.06 94.28, 135.38 94.84, 134.15 95.80 C 132.92 96.76, 132.28 97.26, 131.08 98.05 C 129.87 98.83, 129.22 99.19, 128.13 99.73 C 127.04 100.27, 126.50 100.46, 125.62 100.75 C 124.73 101.04, 124.32 101.11, 123.69 101.17 C 123.06 101.22, 122.82 101.17, 122.47 101.03 C 122.12 100.88, 122.03 100.77, 121.95 100.44 C 121.88 100.11, 121.92 99.88, 122.11 99.40 C 122.30 98.91, 122.50 98.58, 122.92 98.01 C 123.35 97.45, 123.68 97.11, 124.24 96.56 C 124.80 96.02, 125.17 95.72, 125.73 95.29 C 126.30 94.86, 126.63 94.67, 127.07 94.41 C 127.51 94.15, 127.72 94.05, 127.94 93.99 C 128.16 93.93, 128.19 93.94, 128.15 94.09 C 128.12 94.24, 128.05 94.40, 127.77 94.74 C 127.48 95.08, 127.25 95.32, 126.72 95.79 C 126.19 96.25, 125.83 96.54, 125.12 97.07 C 124.41 97.60, 123.96 97.91, 123.16 98.43 C 122.36 98.95, 121.90 99.23, 121.11 99.66 C 120.33 100.08, 119.92 100.29, 119.25 100.56 C 118.58 100.83, 118.27 100.92, 117.77 101.02 C 117.28 101.12, 117.08 101.13, 116.78 101.07 C 116.48 101.02, 116.38 100.97, 116.28 100.76 C 116.17 100.54, 116.17 100.37, 116.25 100.00 C 116.34 99.63, 116.47 99.38, 116.69 98.91 C 116.92 98.43, 117.14 98.11, 117.35 97.63 C 117.57 97.16, 117.68 96.86, 117.76 96.51 C 117.84 96.17, 117.90 96.00, 117.77 95.92 C 117.65 95.83, 117.51 95.87, 117.14 96.09 C 116.78 96.31, 116.49 96.57, 115.94 97.01 C 115.40 97.45, 115.06 97.79, 114.41 98.30 C 113.76 98.80, 113.37 99.10, 112.71 99.55 C 112.05 100.00, 111.69 100.20, 111.11 100.53 C 110.53 100.87, 110.22 101.02, 109.82 101.23 C 109.42 101.44, 109.26 101.53, 109.11 101.58 C 108.95 101.64, 108.96 101.64, 109.03 101.50 C 109.11 101.37, 109.16 101.24, 109.46 100.91 C 109.76 100.58, 110.01 100.34, 110.54 99.87 C 111.06 99.41, 111.42 99.13, 112.08 98.60 C 112.73 98.07, 113.12 97.73, 113.82 97.23 C 114.52 96.72, 114.97 96.49, 115.58 96.07 C 116.19 95.65, 116.49 95.45, 116.87 95.14 C 117.25 94.83, 117.39 94.67, 117.49 94.52 C 117.59 94.37, 117.60 94.33, 117.37 94.39 C 117.15 94.44, 116.92 94.51, 116.37 94.78 C 115.82 95.06, 115.42 95.29, 114.63 95.76 C 113.84 96.22, 113.35 96.56, 112.42 97.11 C 111.49 97.67, 110.95 98.00, 110.00 98.53 C 109.04 99.06, 108.52 99.34, 107.63 99.77 C 106.75 100.20, 106.29 100.42, 105.57 100.68 C 104.84 100.95, 104.50 101.02, 104.01 101.08 C 103.53 101.15, 103.37 101.12, 103.14 101.00 C 102.91 100.89, 102.88 100.80, 102.85 100.52 C 102.83 100.25, 102.91 100.04, 103.00 99.63 C 103.09 99.23, 103.23 98.95, 103.31 98.50 C 103.39 98.05, 103.46 97.74, 103.40 97.36 C 103.34 96.98, 103.28 96.77, 103.00 96.62 C 102.73 96.46, 102.51 96.45, 102.01 96.59 C 101.50 96.72, 101.15 96.90, 100.48 97.28 C 99.81 97.65, 99.37 97.99, 98.65 98.48 C 97.94 98.97, 97.55 99.27, 96.92 99.72 C 96.29 100.18, 95.98 100.42, 95.52 100.74 C 95.06 101.07, 94.87 101.24, 94.62 101.34 C 94.38 101.45, 94.32 101.46, 94.29 101.27 C 94.25 101.08, 94.28 100.92, 94.45 100.41 C 94.63 99.90, 94.78 99.54, 95.15 98.71 C 95.52 97.89, 95.78 97.34, 96.31 96.29 C 96.84 95.24, 97.17 94.60, 97.78 93.48 C 98.40 92.35, 98.78 91.72, 99.40 90.67 C 100.02 89.61, 100.35 89.07, 100.90 88.21 C 101.45 87.34, 101.74 86.95, 102.15 86.36 C 102.56 85.77, 102.75 85.55, 102.97 85.25 C 103.18 84.95, 103.22 84.86, 103.23 84.87 C 103.24 84.88, 103.20 84.96, 103.00 85.30 C 102.79 85.64, 102.63 85.91, 102.19 86.57 C 101.75 87.23, 101.46 87.69, 100.79 88.61 C 100.11 89.52, 99.70 90.09, 98.83 91.15 C 97.95 92.22, 97.43 92.81, 96.42 93.93 C 95.41 95.06, 94.86 95.67, 93.79 96.76 C 92.72 97.85, 92.12 98.42, 91.06 99.40 C 90.00 100.37, 89.45 100.86, 88.49 101.64 C 87.52 102.41, 87.04 102.75, 86.23 103.27 C 85.42 103.79, 85.04 103.97, 84.43 104.24 C 83.82 104.50, 83.57 104.58, 83.18 104.60 C 82.79 104.62, 82.65 104.56, 82.49 104.33 C 82.32 104.10, 82.29 103.91, 82.37 103.45 C 82.45 103.00, 82.57 102.70, 82.90 102.05 C 83.22 101.40, 83.49 100.95, 84.01 100.20 C 84.54 99.44, 84.91 98.98, 85.54 98.26 C 86.16 97.54, 86.53 97.19, 87.13 96.58 C 87.72 95.98, 88.04 95.69, 88.52 95.24 C 88.99 94.78, 89.20 94.63, 89.50 94.33 C 89.80 94.03, 89.91 93.94, 90.02 93.74 C 90.12 93.53, 90.12 93.40, 90.02 93.31 C 89.93 93.21, 89.82 93.20, 89.54 93.26 C 89.26 93.32, 89.09 93.39, 88.61 93.61 C 88.14 93.83, 87.85 93.98, 87.18 94.36 C 86.52 94.74, 86.11 94.98, 85.29 95.52 C 84.48 96.05, 84.00 96.38, 83.10 97.03 C 82.19 97.69, 81.68 98.10, 80.76 98.80 C 79.84 99.51, 79.35 99.91, 78.51 100.55 C 77.67 101.19, 77.24 101.49, 76.54 101.99 C 75.84 102.50, 75.52 102.74, 75.03 103.05 C 74.54 103.37, 74.36 103.49, 74.10 103.57 C 73.84 103.65, 73.78 103.63, 73.73 103.46 C 73.68 103.29, 73.71 103.14, 73.85 102.71 C 73.99 102.28, 74.11 101.97, 74.41 101.32 C 74.72 100.67, 74.93 100.24, 75.37 99.46 C 75.80 98.68, 76.13 98.21, 76.57 97.43 C 77.01 96.64, 77.30 96.19, 77.58 95.55 C 77.85 94.92, 77.96 94.60, 77.96 94.25 C 77.95 93.90, 77.86 93.79, 77.55 93.82 C 77.25 93.86, 77.02 94.02, 76.44 94.43 C 75.86 94.84, 75.44 95.20, 74.64 95.88 C 73.83 96.55, 73.34 96.99, 72.41 97.80 C 71.48 98.62, 70.95 99.10, 69.99 99.93 C 69.04 100.77, 68.51 101.25, 67.64 101.96 C 66.77 102.68, 66.35 103.02, 65.64 103.50 C 64.94 103.98, 64.60 104.16, 64.11 104.35 C 63.62 104.54, 63.45 104.58, 63.20 104.44 C 62.96 104.29, 62.89 104.15, 62.88 103.64 C 62.88 103.13, 62.91 102.77, 63.17 101.89 C 63.42 101.01, 63.65 100.45, 64.17 99.25 C 64.68 98.05, 65.03 97.33, 65.74 95.90 C 66.46 94.47, 66.91 93.62, 67.75 92.10 C 68.59 90.58, 69.12 89.73, 69.94 88.28 C 70.76 86.83, 71.22 86.07, 71.87 84.83 C 72.52 83.60, 72.82 83.02, 73.18 82.11 C 73.54 81.21, 73.65 80.86, 73.68 80.32 C 73.71 79.79, 73.62 79.60, 73.33 79.46 C 73.04 79.31, 72.80 79.36, 72.23 79.60 C 71.67 79.84, 71.31 80.09, 70.50 80.66 C 69.69 81.24, 69.19 81.64, 68.16 82.48 C 67.13 83.32, 66.51 83.85, 65.36 84.86 C 64.21 85.87, 63.56 86.48, 62.42 87.53 C 61.28 88.58, 60.67 89.18, 59.67 90.10 C 58.67 91.02, 58.17 91.49, 57.41 92.13 C 56.66 92.78, 56.34 93.04, 55.91 93.32 C 55.48 93.61, 55.38 93.69, 55.25 93.57 C 55.12 93.45, 55.12 93.27, 55.25 92.71 C 55.37 92.15, 55.52 91.71, 55.88 90.77 C 56.24 89.82, 56.52 89.21, 57.06 87.99 C 57.60 86.78, 57.97 86.01, 58.58 84.69 C 59.20 83.37, 59.59 82.60, 60.13 81.39 C 60.67 80.19, 60.97 79.57, 61.28 78.67 C 61.58 77.77, 61.68 77.36, 61.67 76.88 C 61.66 76.40, 61.57 76.24, 61.23 76.27 C 60.89 76.30, 60.60 76.50, 59.98 77.03 C 59.35 77.55, 58.92 77.99, 58.09 78.91 C 57.27 79.83, 56.80 80.40, 55.87 81.61 C 54.94 82.82, 54.41 83.54, 53.43 84.96 C 52.45 86.37, 51.92 87.15, 50.97 88.70 C 50.02 90.24, 49.56 91.09, 48.67 92.68 C 47.79 94.26, 47.34 95.14, 46.55 96.63 C 45.77 98.11, 45.36 98.88, 44.74 100.12 C 44.12 101.36, 43.83 101.98, 43.45 102.84 C 43.08 103.70, 42.98 104.09, 42.88 104.43 C 42.78 104.76, 42.81 104.81, 42.95 104.54 C 43.09 104.26, 43.24 103.88, 43.60 103.04 C 43.95 102.21, 44.20 101.58, 44.73 100.34 C 45.25 99.11, 45.61 98.32, 46.24 96.86 C 46.87 95.40, 47.23 94.55, 47.86 93.04 C 48.49 91.53, 48.86 90.62, 49.39 89.30 C 49.91 87.99, 50.15 87.38, 50.48 86.45 C 50.80 85.51, 50.96 85.00, 51.01 84.62 C 51.07 84.23, 50.97 84.20, 50.75 84.52" style="stroke: black; fill: black;"/><path d="M 162.24,85.16 C 162.17 85.24, 162.20 85.27, 162.10 85.57 C 162.00 85.87, 161.95 86.05, 161.75 86.66 C 161.54 87.26, 161.44 87.68, 161.07 88.60 C 160.71 89.52, 160.45 90.14, 159.92 91.27 C 159.40 92.40, 159.06 93.07, 158.47 94.27 C 157.87 95.47, 157.54 96.15, 156.95 97.27 C 156.37 98.40, 156.03 98.97, 155.54 99.89 C 155.05 100.82, 154.81 101.26, 154.50 101.89 C 154.19 102.53, 154.13 102.73, 153.98 103.08 C 153.83 103.43, 153.77 103.51, 153.75 103.64 C 153.72 103.76, 153.76 103.79, 153.87 103.71 C 153.98 103.64, 154.06 103.57, 154.28 103.26 C 154.51 102.95, 154.63 102.77, 155.00 102.16 C 155.36 101.56, 155.60 101.12, 156.12 100.21 C 156.64 99.30, 156.98 98.73, 157.59 97.61 C 158.19 96.49, 158.53 95.81, 159.15 94.61 C 159.77 93.41, 160.12 92.75, 160.66 91.61 C 161.20 90.47, 161.49 89.86, 161.86 88.91 C 162.22 87.96, 162.34 87.52, 162.49 86.87 C 162.64 86.22, 162.62 85.99, 162.62 85.65 C 162.61 85.31, 162.54 85.25, 162.46 85.15 C 162.39 85.06, 162.31 85.08, 162.24 85.16" style="stroke: black; fill: black;"/><path d="M 170.31,85.87 C 170.52 85.83, 170.92 85.64, 171.16 85.39 C 171.39 85.13, 171.50 84.80, 171.46 84.58 C 171.42 84.36, 171.36 84.19, 170.95 84.30 C 170.55 84.40, 170.22 84.62, 169.42 85.11 C 168.62 85.61, 168.06 85.98, 166.97 86.77 C 165.88 87.55, 165.21 88.06, 163.98 89.03 C 162.76 90.01, 162.05 90.62, 160.86 91.66 C 159.67 92.70, 159.05 93.27, 158.05 94.23 C 157.04 95.19, 156.54 95.66, 155.84 96.46 C 155.13 97.27, 154.85 97.63, 154.52 98.27 C 154.19 98.90, 154.13 99.17, 154.20 99.63 C 154.27 100.10, 154.41 100.31, 154.87 100.59 C 155.34 100.87, 155.71 100.96, 156.52 101.03 C 157.32 101.09, 157.86 101.05, 158.90 100.90 C 159.94 100.75, 160.54 100.60, 161.73 100.26 C 162.92 99.91, 163.59 99.66, 164.84 99.17 C 166.09 98.68, 166.76 98.39, 167.98 97.81 C 169.19 97.22, 169.79 96.91, 170.91 96.24 C 172.03 95.57, 172.58 95.21, 173.57 94.46 C 174.56 93.70, 175.03 93.29, 175.86 92.48 C 176.68 91.67, 177.06 91.23, 177.68 90.40 C 178.31 89.58, 178.58 89.13, 178.98 88.35 C 179.39 87.56, 179.54 87.16, 179.71 86.48 C 179.88 85.80, 179.90 85.47, 179.85 84.95 C 179.80 84.43, 179.74 84.19, 179.48 83.87 C 179.22 83.54, 179.01 83.39, 178.56 83.31 C 178.11 83.23, 177.81 83.26, 177.24 83.48 C 176.68 83.70, 176.37 83.90, 175.73 84.42 C 175.08 84.93, 174.73 85.28, 174.03 86.04 C 173.32 86.80, 172.91 87.26, 172.21 88.22 C 171.50 89.18, 171.13 89.77, 170.49 90.86 C 169.85 91.95, 169.51 92.56, 168.99 93.67 C 168.48 94.78, 168.20 95.38, 167.90 96.40 C 167.60 97.42, 167.49 97.93, 167.49 98.77 C 167.50 99.62, 167.59 100.02, 167.92 100.62 C 168.26 101.21, 168.52 101.44, 169.14 101.74 C 169.76 102.04, 170.18 102.11, 171.03 102.10 C 171.87 102.09, 172.39 101.99, 173.37 101.69 C 174.35 101.39, 174.91 101.13, 175.95 100.59 C 176.99 100.06, 177.58 99.69, 178.56 99.01 C 179.55 98.33, 180.07 97.91, 180.85 97.18 C 181.64 96.46, 181.99 96.05, 182.48 95.40 C 182.96 94.75, 183.15 94.42, 183.29 93.93 C 183.43 93.44, 183.41 93.22, 183.20 92.96 C 182.98 92.71, 182.73 92.61, 182.23 92.66 C 181.73 92.70, 181.35 92.84, 180.70 93.20 C 180.05 93.56, 179.63 93.88, 178.96 94.47 C 178.29 95.07, 177.91 95.49, 177.37 96.18 C 176.83 96.88, 176.56 97.29, 176.25 97.96 C 175.94 98.63, 175.82 98.98, 175.83 99.55 C 175.85 100.12, 175.96 100.43, 176.31 100.81 C 176.67 101.19, 176.97 101.34, 177.60 101.47 C 178.23 101.60, 178.63 101.59, 179.48 101.45 C 180.33 101.31, 180.83 101.14, 181.83 100.76 C 182.84 100.38, 183.43 100.10, 184.50 99.57 C 185.57 99.04, 186.19 98.70, 187.20 98.12 C 188.21 97.54, 188.77 97.16, 189.55 96.67 C 190.34 96.18, 190.71 95.93, 191.12 95.67 C 191.53 95.41, 191.59 95.33, 191.60 95.37 C 191.60 95.40, 191.43 95.52, 191.15 95.85 C 190.86 96.17, 190.56 96.47, 190.19 96.99 C 189.83 97.52, 189.57 97.91, 189.32 98.48 C 189.07 99.05, 188.99 99.39, 188.96 99.84 C 188.94 100.29, 188.98 100.49, 189.20 100.74 C 189.43 100.98, 189.61 101.06, 190.09 101.06 C 190.57 101.06, 190.90 100.99, 191.59 100.74 C 192.27 100.49, 192.68 100.25, 193.51 99.81 C 194.33 99.38, 194.82 99.09, 195.72 98.55 C 196.62 98.02, 197.12 97.66, 197.99 97.13 C 198.86 96.61, 199.32 96.34, 200.07 95.94 C 200.82 95.54, 201.24 95.35, 201.76 95.14 C 202.27 94.92, 202.45 94.86, 202.65 94.88 C 202.85 94.89, 202.83 94.97, 202.74 95.21 C 202.64 95.46, 202.49 95.65, 202.18 96.10 C 201.87 96.55, 201.58 96.92, 201.20 97.46 C 200.81 98.01, 200.52 98.36, 200.24 98.85 C 199.95 99.33, 199.81 99.59, 199.77 99.89 C 199.73 100.19, 199.77 100.32, 200.04 100.35 C 200.31 100.38, 200.56 100.30, 201.12 100.05 C 201.67 99.80, 202.04 99.53, 202.80 99.10 C 203.56 98.68, 204.03 98.36, 204.91 97.91 C 205.79 97.46, 206.35 97.21, 207.22 96.87 C 208.09 96.52, 208.58 96.36, 209.27 96.18 C 209.96 96.00, 210.27 95.95, 210.69 95.98 C 211.10 96.01, 211.23 96.08, 211.35 96.33 C 211.48 96.57, 211.43 96.76, 211.32 97.20 C 211.22 97.63, 211.05 97.94, 210.82 98.50 C 210.59 99.06, 210.39 99.40, 210.17 99.98 C 209.96 100.56, 209.85 100.90, 209.74 101.40 C 209.62 101.90, 209.58 102.25, 209.60 102.48 C 209.63 102.71, 209.71 102.73, 209.85 102.55 C 209.99 102.38, 210.10 102.05, 210.31 101.60 C 210.52 101.14, 210.64 100.84, 210.90 100.28 C 211.15 99.71, 211.36 99.38, 211.57 98.78 C 211.77 98.18, 211.91 97.82, 211.94 97.28 C 211.96 96.75, 211.94 96.47, 211.70 96.11 C 211.47 95.76, 211.27 95.62, 210.76 95.51 C 210.24 95.39, 209.90 95.42, 209.14 95.55 C 208.38 95.69, 207.87 95.84, 206.96 96.17 C 206.04 96.49, 205.47 96.74, 204.55 97.17 C 203.63 97.60, 203.12 97.88, 202.36 98.33 C 201.60 98.78, 201.22 99.06, 200.75 99.41 C 200.27 99.76, 200.10 99.95, 199.97 100.07 C 199.84 100.20, 199.91 100.20, 200.09 100.05 C 200.27 99.90, 200.50 99.73, 200.87 99.31 C 201.24 98.90, 201.55 98.56, 201.95 97.99 C 202.35 97.43, 202.62 97.02, 202.85 96.47 C 203.09 95.93, 203.17 95.64, 203.15 95.26 C 203.13 94.88, 203.05 94.71, 202.74 94.58 C 202.43 94.44, 202.18 94.45, 201.58 94.60 C 200.98 94.75, 200.55 94.94, 199.76 95.32 C 198.97 95.70, 198.50 95.99, 197.61 96.50 C 196.73 97.01, 196.22 97.36, 195.32 97.88 C 194.43 98.40, 193.93 98.66, 193.12 99.09 C 192.32 99.52, 191.91 99.74, 191.29 100.02 C 190.67 100.30, 190.39 100.41, 190.03 100.50 C 189.66 100.60, 189.56 100.61, 189.46 100.50 C 189.35 100.39, 189.39 100.27, 189.51 99.94 C 189.63 99.62, 189.78 99.35, 190.07 98.86 C 190.36 98.37, 190.65 98.03, 190.96 97.48 C 191.28 96.94, 191.49 96.57, 191.65 96.13 C 191.80 95.69, 191.86 95.46, 191.72 95.28 C 191.57 95.11, 191.43 95.09, 190.93 95.25 C 190.42 95.40, 190.02 95.62, 189.20 96.07 C 188.38 96.51, 187.84 96.90, 186.83 97.47 C 185.82 98.03, 185.21 98.36, 184.16 98.88 C 183.11 99.39, 182.52 99.66, 181.56 100.03 C 180.59 100.41, 180.12 100.57, 179.34 100.73 C 178.57 100.90, 178.23 100.92, 177.69 100.87 C 177.16 100.81, 176.93 100.74, 176.66 100.47 C 176.39 100.21, 176.32 100.00, 176.35 99.56 C 176.38 99.11, 176.51 98.83, 176.83 98.25 C 177.15 97.67, 177.43 97.29, 177.96 96.66 C 178.50 96.03, 178.88 95.65, 179.51 95.10 C 180.15 94.54, 180.55 94.26, 181.12 93.88 C 181.68 93.50, 181.98 93.34, 182.35 93.19 C 182.72 93.05, 182.88 93.03, 182.98 93.15 C 183.08 93.26, 183.06 93.39, 182.86 93.76 C 182.67 94.13, 182.49 94.43, 181.99 95.01 C 181.50 95.59, 181.16 95.99, 180.39 96.67 C 179.62 97.34, 179.10 97.75, 178.14 98.40 C 177.19 99.05, 176.60 99.41, 175.60 99.92 C 174.60 100.44, 174.07 100.68, 173.15 100.98 C 172.23 101.28, 171.76 101.38, 171.00 101.43 C 170.24 101.48, 169.89 101.45, 169.36 101.24 C 168.84 101.03, 168.63 100.87, 168.37 100.37 C 168.11 99.88, 168.04 99.54, 168.07 98.78 C 168.10 98.03, 168.22 97.55, 168.53 96.59 C 168.84 95.63, 169.11 95.04, 169.63 93.97 C 170.15 92.90, 170.48 92.29, 171.12 91.23 C 171.76 90.17, 172.12 89.61, 172.82 88.67 C 173.51 87.74, 173.91 87.30, 174.59 86.56 C 175.27 85.83, 175.62 85.49, 176.21 85.00 C 176.79 84.50, 177.05 84.32, 177.51 84.09 C 177.97 83.86, 178.18 83.82, 178.50 83.83 C 178.82 83.84, 178.95 83.91, 179.12 84.14 C 179.28 84.37, 179.32 84.54, 179.33 84.97 C 179.33 85.41, 179.32 85.70, 179.14 86.32 C 178.96 86.94, 178.82 87.32, 178.43 88.06 C 178.03 88.79, 177.78 89.22, 177.17 90.01 C 176.56 90.80, 176.20 91.23, 175.40 92.01 C 174.60 92.80, 174.13 93.20, 173.17 93.93 C 172.20 94.66, 171.67 95.02, 170.57 95.66 C 169.47 96.31, 168.87 96.61, 167.68 97.17 C 166.48 97.74, 165.81 98.01, 164.58 98.48 C 163.34 98.95, 162.67 99.19, 161.52 99.52 C 160.36 99.85, 159.77 99.97, 158.78 100.12 C 157.78 100.28, 157.28 100.30, 156.54 100.31 C 155.80 100.31, 155.48 100.30, 155.09 100.16 C 154.69 100.02, 154.59 99.92, 154.56 99.59 C 154.54 99.26, 154.61 99.06, 154.95 98.51 C 155.30 97.97, 155.58 97.63, 156.29 96.88 C 157.00 96.12, 157.50 95.66, 158.51 94.73 C 159.53 93.80, 160.15 93.24, 161.35 92.22 C 162.54 91.21, 163.25 90.61, 164.48 89.67 C 165.71 88.72, 166.40 88.25, 167.48 87.48 C 168.56 86.71, 169.15 86.35, 169.89 85.80 C 170.63 85.25, 170.91 84.99, 171.18 84.73 C 171.45 84.47, 171.36 84.49, 171.24 84.51 C 171.12 84.54, 170.84 84.63, 170.60 84.85 C 170.37 85.06, 170.13 85.40, 170.07 85.60 C 170.01 85.81, 170.09 85.91, 170.31 85.87" style="stroke: black; fill: black;"/></svg>