<svg xmlns="http://www.w3.org/2000/svg" id="canvas" viewBox="39.661 72.693 190.319 36.346"><path d="M 50.81,84.47 C 50.67 84.66, 50.62 84.91, 50.38 85.47 C 50.14 86.04, 49.98 86.39, 49.60 87.30 C 49.22 88.21, 48.99 88.82, 48.48 90.01 C 47.98 91.21, 47.66 91.93, 47.08 93.29 C 46.49 94.65, 46.13 95.42, 45.56 96.81 C 45.00 98.20, 44.72 98.99, 44.26 100.25 C 43.80 101.51, 43.58 102.14, 43.27 103.11 C 42.96 104.08, 42.82 104.53, 42.72 105.11 C 42.62 105.68, 42.65 105.90, 42.79 106.00 C 42.92 106.10, 43.08 106.02, 43.39 105.62 C 43.69 105.21, 43.90 104.85, 44.31 103.98 C 44.72 103.12, 44.93 102.50, 45.45 101.29 C 45.97 100.09, 46.27 99.33, 46.91 97.95 C 47.54 96.56, 47.91 95.79, 48.64 94.36 C 49.37 92.94, 49.78 92.18, 50.55 90.82 C 51.32 89.46, 51.72 88.78, 52.48 87.56 C 53.24 86.35, 53.61 85.78, 54.34 84.76 C 55.07 83.73, 55.45 83.24, 56.13 82.44 C 56.80 81.64, 57.15 81.30, 57.72 80.75 C 58.30 80.21, 58.62 79.98, 59.01 79.71 C 59.40 79.45, 59.55 79.34, 59.68 79.43 C 59.82 79.51, 59.78 79.65, 59.68 80.13 C 59.57 80.60, 59.43 80.98, 59.14 81.80 C 58.86 82.61, 58.62 83.17, 58.24 84.21 C 57.85 85.25, 57.61 85.89, 57.20 86.98 C 56.79 88.06, 56.55 88.65, 56.18 89.65 C 55.81 90.65, 55.61 91.17, 55.37 91.98 C 55.13 92.79, 55.02 93.16, 54.96 93.71 C 54.90 94.27, 54.92 94.50, 55.06 94.77 C 55.20 95.03, 55.33 95.11, 55.67 95.06 C 56.00 95.00, 56.24 94.88, 56.75 94.50 C 57.26 94.13, 57.57 93.83, 58.23 93.17 C 58.89 92.50, 59.28 92.02, 60.07 91.18 C 60.85 90.34, 61.29 89.85, 62.14 88.96 C 62.98 88.06, 63.45 87.54, 64.28 86.71 C 65.11 85.88, 65.54 85.47, 66.29 84.80 C 67.04 84.13, 67.41 83.84, 68.04 83.35 C 68.66 82.87, 68.94 82.67, 69.40 82.37 C 69.86 82.08, 70.04 81.99, 70.32 81.89 C 70.61 81.78, 70.72 81.74, 70.82 81.83 C 70.92 81.93, 70.90 81.99, 70.80 82.36 C 70.71 82.74, 70.61 83.02, 70.34 83.70 C 70.06 84.39, 69.88 84.83, 69.45 85.78 C 69.02 86.72, 68.73 87.29, 68.19 88.42 C 67.65 89.55, 67.34 90.22, 66.75 91.43 C 66.16 92.63, 65.83 93.28, 65.24 94.44 C 64.66 95.61, 64.33 96.19, 63.83 97.27 C 63.32 98.34, 63.09 98.89, 62.72 99.80 C 62.36 100.71, 62.20 101.12, 62.01 101.82 C 61.81 102.51, 61.73 102.81, 61.74 103.26 C 61.74 103.72, 61.82 103.89, 62.03 104.09 C 62.25 104.30, 62.45 104.33, 62.81 104.29 C 63.18 104.24, 63.40 104.15, 63.87 103.87 C 64.34 103.59, 64.60 103.36, 65.17 102.88 C 65.74 102.40, 66.07 102.09, 66.74 101.49 C 67.41 100.89, 67.78 100.52, 68.51 99.86 C 69.23 99.20, 69.64 98.82, 70.37 98.20 C 71.10 97.57, 71.50 97.25, 72.16 96.72 C 72.81 96.20, 73.17 95.93, 73.63 95.58 C 74.09 95.23, 74.27 95.09, 74.47 94.99 C 74.66 94.89, 74.66 94.91, 74.62 95.08 C 74.57 95.25, 74.46 95.41, 74.25 95.83 C 74.04 96.25, 73.84 96.60, 73.56 97.20 C 73.27 97.80, 73.09 98.18, 72.81 98.83 C 72.53 99.48, 72.37 99.84, 72.15 100.44 C 71.93 101.04, 71.80 101.35, 71.71 101.84 C 71.63 102.34, 71.61 102.59, 71.73 102.92 C 71.84 103.25, 71.97 103.38, 72.28 103.50 C 72.58 103.62, 72.78 103.64, 73.25 103.52 C 73.72 103.41, 74.01 103.28, 74.63 102.93 C 75.25 102.58, 75.63 102.30, 76.36 101.77 C 77.09 101.23, 77.51 100.89, 78.29 100.25 C 79.07 99.62, 79.49 99.23, 80.27 98.59 C 81.04 97.96, 81.46 97.63, 82.18 97.07 C 82.91 96.50, 83.29 96.21, 83.90 95.78 C 84.51 95.34, 84.77 95.17, 85.23 94.88 C 85.69 94.60, 85.88 94.53, 86.19 94.37 C 86.51 94.22, 86.66 94.20, 86.81 94.11 C 86.96 94.01, 87.01 93.92, 86.94 93.90 C 86.87 93.88, 86.73 93.85, 86.47 93.99 C 86.20 94.13, 86.00 94.27, 85.60 94.60 C 85.20 94.93, 84.96 95.15, 84.48 95.63 C 84.00 96.11, 83.70 96.41, 83.21 96.99 C 82.72 97.56, 82.43 97.92, 82.03 98.52 C 81.63 99.13, 81.44 99.44, 81.21 100.01 C 80.99 100.58, 80.91 100.87, 80.90 101.36 C 80.89 101.85, 80.92 102.09, 81.15 102.45 C 81.38 102.80, 81.59 102.97, 82.05 103.14 C 82.51 103.31, 82.78 103.34, 83.42 103.28 C 84.07 103.22, 84.46 103.12, 85.29 102.82 C 86.11 102.52, 86.59 102.30, 87.56 101.77 C 88.52 101.25, 89.05 100.92, 90.11 100.20 C 91.16 99.49, 91.73 99.08, 92.82 98.21 C 93.92 97.35, 94.51 96.85, 95.58 95.87 C 96.66 94.90, 97.20 94.36, 98.19 93.33 C 99.18 92.30, 99.68 91.75, 100.52 90.74 C 101.36 89.74, 101.76 89.20, 102.38 88.30 C 103.01 87.40, 103.28 86.97, 103.65 86.25 C 104.02 85.53, 104.15 85.22, 104.24 84.71 C 104.33 84.19, 104.29 83.97, 104.09 83.68 C 103.90 83.39, 103.69 83.27, 103.26 83.27 C 102.82 83.27, 102.52 83.33, 101.91 83.67 C 101.31 84.01, 100.95 84.29, 100.22 84.97 C 99.48 85.66, 99.06 86.13, 98.26 87.09 C 97.46 88.05, 96.99 88.66, 96.22 89.77 C 95.45 90.88, 95.04 91.53, 94.40 92.65 C 93.77 93.77, 93.47 94.37, 93.04 95.38 C 92.61 96.39, 92.43 96.89, 92.24 97.68 C 92.05 98.48, 92.02 98.82, 92.10 99.36 C 92.18 99.90, 92.31 100.11, 92.65 100.36 C 93.00 100.62, 93.27 100.69, 93.85 100.63 C 94.42 100.57, 94.78 100.41, 95.53 100.07 C 96.27 99.73, 96.72 99.43, 97.56 98.94 C 98.41 98.44, 98.91 98.10, 99.76 97.58 C 100.60 97.06, 101.08 96.73, 101.77 96.34 C 102.45 95.94, 102.77 95.76, 103.19 95.59 C 103.60 95.43, 103.72 95.42, 103.85 95.52 C 103.98 95.61, 103.93 95.75, 103.83 96.07 C 103.74 96.40, 103.54 96.66, 103.37 97.15 C 103.19 97.63, 103.05 97.97, 102.97 98.50 C 102.88 99.04, 102.86 99.39, 102.95 99.81 C 103.04 100.22, 103.29 100.44, 103.44 100.57 C 103.58 100.71, 103.64 100.64, 103.66 100.48 C 103.67 100.31, 103.49 100.12, 103.52 99.75 C 103.54 99.39, 103.63 99.14, 103.76 98.67 C 103.89 98.19, 104.02 97.89, 104.15 97.38 C 104.27 96.87, 104.39 96.55, 104.37 96.13 C 104.35 95.71, 104.30 95.48, 104.04 95.28 C 103.78 95.07, 103.58 95.02, 103.06 95.11 C 102.54 95.20, 102.18 95.36, 101.44 95.72 C 100.70 96.08, 100.21 96.41, 99.35 96.91 C 98.49 97.41, 97.98 97.74, 97.14 98.23 C 96.31 98.72, 95.86 99.01, 95.18 99.37 C 94.50 99.74, 94.20 99.93, 93.74 100.06 C 93.28 100.19, 93.11 100.19, 92.87 100.04 C 92.64 99.89, 92.57 99.76, 92.55 99.31 C 92.54 98.87, 92.58 98.57, 92.80 97.83 C 93.02 97.10, 93.20 96.61, 93.64 95.65 C 94.09 94.68, 94.38 94.10, 95.02 93.01 C 95.66 91.92, 96.08 91.29, 96.85 90.21 C 97.62 89.13, 98.09 88.54, 98.87 87.61 C 99.66 86.68, 100.09 86.22, 100.77 85.55 C 101.45 84.89, 101.79 84.63, 102.29 84.27 C 102.80 83.91, 103.00 83.83, 103.31 83.75 C 103.61 83.66, 103.72 83.69, 103.81 83.86 C 103.91 84.03, 103.92 84.18, 103.78 84.60 C 103.65 85.02, 103.53 85.31, 103.14 85.97 C 102.76 86.64, 102.49 87.06, 101.86 87.93 C 101.23 88.79, 100.84 89.33, 100.01 90.31 C 99.17 91.29, 98.67 91.84, 97.69 92.85 C 96.71 93.85, 96.17 94.39, 95.11 95.35 C 94.04 96.31, 93.46 96.79, 92.37 97.64 C 91.29 98.49, 90.73 98.90, 89.69 99.59 C 88.65 100.28, 88.13 100.60, 87.19 101.10 C 86.26 101.61, 85.79 101.81, 85.02 102.11 C 84.25 102.41, 83.89 102.50, 83.33 102.60 C 82.77 102.70, 82.57 102.68, 82.22 102.60 C 81.86 102.51, 81.71 102.42, 81.56 102.18 C 81.40 101.94, 81.39 101.78, 81.44 101.40 C 81.49 101.01, 81.56 100.76, 81.80 100.26 C 82.04 99.77, 82.23 99.49, 82.63 98.93 C 83.03 98.38, 83.32 98.05, 83.81 97.50 C 84.29 96.96, 84.59 96.67, 85.06 96.22 C 85.53 95.77, 85.80 95.58, 86.16 95.23 C 86.53 94.88, 86.70 94.72, 86.89 94.46 C 87.07 94.21, 87.11 94.09, 87.08 93.94 C 87.05 93.80, 86.94 93.75, 86.73 93.74 C 86.51 93.73, 86.34 93.76, 85.99 93.89 C 85.63 94.02, 85.44 94.12, 84.95 94.39 C 84.46 94.67, 84.17 94.83, 83.54 95.25 C 82.90 95.68, 82.51 95.96, 81.77 96.52 C 81.02 97.07, 80.60 97.40, 79.81 98.03 C 79.02 98.66, 78.60 99.03, 77.81 99.65 C 77.03 100.27, 76.60 100.60, 75.88 101.12 C 75.17 101.64, 74.79 101.89, 74.22 102.25 C 73.66 102.61, 73.41 102.75, 73.05 102.92 C 72.68 103.09, 72.57 103.13, 72.39 103.11 C 72.21 103.09, 72.17 103.04, 72.15 102.82 C 72.13 102.59, 72.18 102.40, 72.31 101.98 C 72.44 101.56, 72.56 101.27, 72.80 100.70 C 73.05 100.14, 73.22 99.79, 73.53 99.16 C 73.84 98.54, 74.08 98.19, 74.35 97.57 C 74.63 96.95, 74.81 96.57, 74.92 96.07 C 75.04 95.56, 75.04 95.32, 74.94 95.03 C 74.83 94.75, 74.73 94.65, 74.40 94.66 C 74.07 94.67, 73.83 94.77, 73.30 95.07 C 72.77 95.38, 72.41 95.66, 71.73 96.18 C 71.05 96.69, 70.65 97.02, 69.90 97.65 C 69.16 98.27, 68.74 98.64, 68.01 99.30 C 67.27 99.95, 66.89 100.31, 66.22 100.91 C 65.55 101.50, 65.21 101.80, 64.66 102.27 C 64.10 102.74, 63.85 102.97, 63.46 103.27 C 63.07 103.58, 62.93 103.69, 62.69 103.81 C 62.45 103.93, 62.35 103.97, 62.25 103.87 C 62.15 103.76, 62.13 103.67, 62.20 103.29 C 62.26 102.92, 62.34 102.64, 62.56 101.99 C 62.78 101.34, 62.94 100.92, 63.31 100.04 C 63.68 99.15, 63.92 98.61, 64.43 97.55 C 64.94 96.50, 65.27 95.92, 65.87 94.76 C 66.47 93.60, 66.81 92.96, 67.41 91.76 C 68.02 90.56, 68.34 89.89, 68.89 88.76 C 69.45 87.63, 69.76 87.07, 70.19 86.11 C 70.63 85.16, 70.84 84.70, 71.07 83.97 C 71.31 83.23, 71.38 82.90, 71.37 82.42 C 71.37 81.95, 71.27 81.79, 71.03 81.59 C 70.80 81.40, 70.59 81.39, 70.21 81.45 C 69.83 81.52, 69.63 81.62, 69.12 81.90 C 68.61 82.18, 68.32 82.39, 67.67 82.87 C 67.02 83.35, 66.63 83.64, 65.86 84.31 C 65.08 84.98, 64.64 85.38, 63.78 86.20 C 62.93 87.03, 62.45 87.55, 61.59 88.43 C 60.73 89.32, 60.27 89.80, 59.48 90.63 C 58.69 91.46, 58.27 91.91, 57.63 92.58 C 56.99 93.24, 56.70 93.53, 56.28 93.96 C 55.86 94.38, 55.72 94.56, 55.54 94.70 C 55.35 94.84, 55.35 94.85, 55.34 94.67 C 55.33 94.49, 55.36 94.31, 55.49 93.81 C 55.61 93.31, 55.71 92.96, 55.98 92.18 C 56.25 91.39, 56.45 90.88, 56.84 89.90 C 57.23 88.91, 57.48 88.33, 57.92 87.26 C 58.35 86.18, 58.62 85.55, 59.02 84.51 C 59.42 83.46, 59.68 82.91, 59.92 82.04 C 60.16 81.17, 60.25 80.74, 60.23 80.17 C 60.21 79.60, 60.12 79.37, 59.83 79.19 C 59.54 79.02, 59.28 79.06, 58.78 79.28 C 58.27 79.51, 57.94 79.76, 57.32 80.31 C 56.69 80.86, 56.35 81.22, 55.65 82.04 C 54.95 82.85, 54.57 83.35, 53.82 84.38 C 53.07 85.42, 52.70 85.99, 51.92 87.21 C 51.15 88.43, 50.73 89.11, 49.94 90.47 C 49.16 91.84, 48.74 92.60, 47.99 94.03 C 47.24 95.46, 46.87 96.23, 46.20 97.62 C 45.54 99.00, 45.20 99.75, 44.67 100.96 C 44.14 102.16, 43.91 102.77, 43.56 103.66 C 43.22 104.55, 43.09 104.93, 42.95 105.39 C 42.81 105.85, 42.81 105.99, 42.86 105.96 C 42.90 105.92, 42.97 105.76, 43.18 105.23 C 43.38 104.70, 43.52 104.26, 43.87 103.31 C 44.22 102.37, 44.44 101.74, 44.91 100.49 C 45.39 99.25, 45.67 98.47, 46.25 97.09 C 46.82 95.71, 47.19 94.95, 47.78 93.59 C 48.38 92.24, 48.72 91.53, 49.23 90.33 C 49.74 89.13, 49.98 88.52, 50.33 87.58 C 50.67 86.64, 50.79 86.26, 50.94 85.65 C 51.08 85.05, 51.09 84.77, 51.06 84.54 C 51.03 84.30, 50.94 84.29, 50.81 84.47" style="stroke: black; fill: black;"/><path d="M 115.71,95.77 C 115.85 95.67, 116.01 95.47, 116.13 95.16 C 116.24 94.85, 116.31 94.59, 116.27 94.22 C 116.22 93.85, 116.16 93.59, 115.91 93.32 C 115.66 93.05, 115.49 92.95, 115.03 92.87 C 114.57 92.80, 114.25 92.78, 113.61 92.95 C 112.97 93.11, 112.57 93.28, 111.83 93.69 C 111.10 94.11, 110.66 94.42, 109.93 95.01 C 109.20 95.60, 108.79 95.98, 108.19 96.65 C 107.59 97.31, 107.30 97.73, 106.92 98.33 C 106.54 98.94, 106.39 99.22, 106.31 99.67 C 106.22 100.11, 106.26 100.31, 106.49 100.55 C 106.72 100.79, 106.96 100.89, 107.45 100.87 C 107.94 100.85, 108.29 100.72, 108.94 100.44 C 109.59 100.17, 109.97 99.95, 110.71 99.50 C 111.45 99.05, 111.90 98.72, 112.66 98.18 C 113.42 97.64, 113.89 97.27, 114.50 96.80 C 115.11 96.32, 115.39 96.06, 115.69 95.80 C 116.00 95.55, 116.04 95.46, 116.02 95.53 C 116.00 95.59, 115.84 95.75, 115.60 96.14 C 115.37 96.52, 115.07 96.87, 114.84 97.45 C 114.61 98.03, 114.48 98.45, 114.44 99.03 C 114.39 99.61, 114.40 99.94, 114.61 100.35 C 114.81 100.76, 114.99 100.92, 115.46 101.10 C 115.93 101.27, 116.28 101.31, 116.96 101.23 C 117.65 101.15, 118.07 101.03, 118.89 100.70 C 119.70 100.38, 120.20 100.13, 121.05 99.61 C 121.91 99.09, 122.38 98.73, 123.15 98.10 C 123.93 97.47, 124.33 97.08, 124.93 96.45 C 125.54 95.81, 125.85 95.47, 126.19 94.92 C 126.52 94.37, 126.62 94.05, 126.60 93.69 C 126.58 93.33, 126.43 93.18, 126.08 93.11 C 125.73 93.03, 125.41 93.07, 124.86 93.30 C 124.30 93.54, 123.89 93.76, 123.28 94.26 C 122.67 94.76, 122.30 95.14, 121.80 95.78 C 121.29 96.43, 121.04 96.85, 120.77 97.50 C 120.49 98.16, 120.38 98.51, 120.41 99.06 C 120.45 99.61, 120.56 99.90, 120.93 100.24 C 121.31 100.58, 121.60 100.70, 122.28 100.76 C 122.97 100.83, 123.39 100.80, 124.35 100.56 C 125.31 100.32, 125.90 100.10, 127.09 99.55 C 128.28 98.99, 128.99 98.62, 130.31 97.78 C 131.64 96.95, 132.36 96.41, 133.72 95.39 C 135.07 94.36, 135.79 93.78, 137.10 92.68 C 138.40 91.58, 139.09 90.96, 140.24 89.89 C 141.38 88.81, 141.95 88.24, 142.83 87.30 C 143.71 86.35, 144.11 85.90, 144.64 85.15 C 145.17 84.41, 145.36 84.06, 145.49 83.56 C 145.62 83.06, 145.55 82.84, 145.27 82.64 C 144.99 82.44, 144.71 82.38, 144.07 82.57 C 143.44 82.76, 142.97 82.98, 142.09 83.58 C 141.21 84.19, 140.67 84.65, 139.67 85.58 C 138.67 86.51, 138.10 87.11, 137.11 88.25 C 136.12 89.40, 135.55 90.09, 134.73 91.31 C 133.90 92.54, 133.51 93.22, 133.00 94.38 C 132.49 95.55, 132.32 96.14, 132.19 97.14 C 132.05 98.14, 132.07 98.60, 132.33 99.38 C 132.58 100.15, 132.82 100.51, 133.47 101.02 C 134.13 101.53, 134.62 101.73, 135.62 101.94 C 136.63 102.14, 137.25 102.12, 138.50 102.03 C 139.75 101.94, 140.61 101.76, 141.86 101.49 C 143.11 101.22, 143.81 100.99, 144.76 100.68 C 145.71 100.37, 146.26 100.14, 146.62 99.95 C 146.98 99.76, 146.96 99.69, 146.55 99.72 C 146.15 99.75, 145.58 99.91, 144.61 100.10 C 143.64 100.30, 142.93 100.48, 141.70 100.71 C 140.47 100.94, 139.63 101.14, 138.44 101.26 C 137.24 101.37, 136.66 101.41, 135.74 101.28 C 134.81 101.14, 134.39 100.99, 133.80 100.58 C 133.22 100.17, 133.02 99.89, 132.81 99.22 C 132.60 98.55, 132.60 98.14, 132.76 97.22 C 132.91 96.31, 133.08 95.75, 133.60 94.65 C 134.11 93.55, 134.50 92.90, 135.32 91.72 C 136.14 90.54, 136.71 89.87, 137.69 88.76 C 138.67 87.65, 139.25 87.08, 140.23 86.18 C 141.21 85.28, 141.76 84.86, 142.57 84.25 C 143.38 83.64, 143.78 83.40, 144.29 83.12 C 144.81 82.84, 144.98 82.80, 145.14 82.86 C 145.31 82.92, 145.31 83.04, 145.11 83.43 C 144.92 83.82, 144.73 84.12, 144.18 84.81 C 143.63 85.49, 143.24 85.94, 142.36 86.85 C 141.48 87.77, 140.91 88.33, 139.77 89.38 C 138.62 90.44, 137.94 91.05, 136.64 92.13 C 135.34 93.21, 134.62 93.79, 133.27 94.79 C 131.93 95.79, 131.21 96.32, 129.91 97.13 C 128.60 97.94, 127.91 98.30, 126.76 98.84 C 125.61 99.38, 125.04 99.58, 124.15 99.84 C 123.26 100.10, 122.89 100.14, 122.31 100.15 C 121.73 100.16, 121.51 100.11, 121.24 99.89 C 120.96 99.67, 120.90 99.48, 120.93 99.06 C 120.96 98.64, 121.08 98.35, 121.38 97.79 C 121.68 97.24, 121.92 96.86, 122.41 96.29 C 122.90 95.71, 123.28 95.39, 123.83 94.93 C 124.39 94.46, 124.74 94.23, 125.19 93.94 C 125.63 93.65, 125.85 93.52, 126.06 93.47 C 126.28 93.41, 126.33 93.43, 126.25 93.66 C 126.18 93.88, 126.05 94.12, 125.69 94.58 C 125.33 95.04, 125.04 95.37, 124.44 95.96 C 123.84 96.55, 123.45 96.92, 122.69 97.52 C 121.93 98.12, 121.47 98.46, 120.65 98.95 C 119.83 99.44, 119.35 99.66, 118.59 99.98 C 117.83 100.29, 117.45 100.41, 116.85 100.53 C 116.26 100.65, 115.97 100.67, 115.61 100.60 C 115.25 100.52, 115.15 100.45, 115.06 100.16 C 114.98 99.88, 115.06 99.63, 115.18 99.15 C 115.31 98.68, 115.50 98.33, 115.70 97.78 C 115.90 97.22, 116.10 96.84, 116.20 96.37 C 116.30 95.91, 116.33 95.64, 116.18 95.45 C 116.04 95.25, 115.89 95.25, 115.47 95.40 C 115.05 95.55, 114.72 95.76, 114.06 96.19 C 113.41 96.61, 112.95 97.00, 112.19 97.52 C 111.44 98.05, 111.00 98.37, 110.29 98.81 C 109.57 99.25, 109.20 99.43, 108.61 99.73 C 108.03 100.03, 107.74 100.17, 107.36 100.29 C 106.98 100.41, 106.84 100.42, 106.71 100.32 C 106.59 100.22, 106.59 100.13, 106.74 99.80 C 106.90 99.48, 107.07 99.23, 107.47 98.70 C 107.86 98.17, 108.15 97.77, 108.74 97.15 C 109.33 96.54, 109.72 96.17, 110.42 95.62 C 111.12 95.07, 111.55 94.78, 112.23 94.39 C 112.91 94.00, 113.28 93.85, 113.82 93.67 C 114.37 93.48, 114.64 93.47, 114.97 93.47 C 115.31 93.47, 115.38 93.51, 115.50 93.67 C 115.62 93.82, 115.57 93.99, 115.56 94.26 C 115.55 94.53, 115.49 94.72, 115.46 95.00 C 115.43 95.28, 115.37 95.51, 115.42 95.67 C 115.47 95.82, 115.57 95.87, 115.71 95.77" style="stroke: black; fill: black;"/><path d="M 173.73,82.01 C 173.63 82.07, 173.62 82.09, 173.43 82.37 C 173.23 82.65, 173.13 82.79, 172.75 83.40 C 172.38 84.00, 172.13 84.47, 171.54 85.40 C 170.94 86.34, 170.58 86.93, 169.78 88.08 C 168.98 89.23, 168.47 89.91, 167.53 91.16 C 166.60 92.40, 166.04 93.09, 165.09 94.32 C 164.14 95.55, 163.63 96.19, 162.79 97.31 C 161.95 98.42, 161.53 99.00, 160.89 99.91 C 160.25 100.82, 159.94 101.22, 159.58 101.85 C 159.22 102.48, 159.12 102.76, 159.10 103.04 C 159.08 103.33, 159.17 103.41, 159.49 103.29 C 159.81 103.17, 160.06 103.00, 160.71 102.44 C 161.36 101.87, 161.77 101.43, 162.73 100.48 C 163.69 99.54, 164.26 98.91, 165.51 97.71 C 166.77 96.52, 167.49 95.84, 169.01 94.51 C 170.53 93.18, 171.40 92.45, 173.10 91.05 C 174.80 89.66, 175.76 88.90, 177.52 87.52 C 179.28 86.15, 180.23 85.45, 181.91 84.19 C 183.60 82.92, 184.47 82.29, 185.95 81.19 C 187.44 80.10, 188.16 79.55, 189.34 78.71 C 190.51 77.87, 191.07 77.55, 191.83 77.00 C 192.59 76.46, 192.89 76.25, 193.14 75.99 C 193.39 75.73, 193.38 75.65, 193.08 75.72 C 192.79 75.80, 192.48 75.91, 191.68 76.38 C 190.88 76.85, 190.33 77.21, 189.10 78.07 C 187.87 78.93, 187.11 79.50, 185.53 80.67 C 183.94 81.85, 182.98 82.56, 181.19 83.92 C 179.39 85.28, 178.35 86.08, 176.54 87.48 C 174.74 88.87, 173.79 89.61, 172.15 90.89 C 170.51 92.17, 169.71 92.80, 168.33 93.89 C 166.95 94.97, 166.29 95.46, 165.25 96.30 C 164.21 97.15, 163.77 97.49, 163.13 98.10 C 162.48 98.70, 162.26 98.91, 162.03 99.31 C 161.79 99.71, 161.80 99.85, 161.96 100.10 C 162.13 100.36, 162.36 100.46, 162.86 100.59 C 163.35 100.72, 163.72 100.73, 164.45 100.74 C 165.19 100.76, 165.62 100.72, 166.53 100.68 C 167.44 100.65, 167.96 100.63, 168.98 100.57 C 170.01 100.50, 170.59 100.46, 171.66 100.36 C 172.72 100.26, 173.28 100.21, 174.32 100.05 C 175.37 99.89, 175.89 99.83, 176.88 99.57 C 177.87 99.32, 178.37 99.16, 179.28 98.78 C 180.19 98.40, 180.58 98.18, 181.44 97.66 C 182.29 97.14, 182.73 96.85, 183.55 96.17 C 184.38 95.50, 184.79 95.10, 185.56 94.29 C 186.32 93.47, 186.70 92.98, 187.40 92.08 C 188.10 91.18, 188.45 90.70, 189.07 89.79 C 189.69 88.88, 190.00 88.39, 190.49 87.53 C 190.99 86.67, 191.19 86.25, 191.55 85.49 C 191.91 84.73, 192.07 84.36, 192.27 83.74 C 192.47 83.12, 192.57 82.81, 192.55 82.37 C 192.53 81.94, 192.44 81.72, 192.19 81.57 C 191.94 81.42, 191.74 81.42, 191.30 81.62 C 190.86 81.82, 190.59 82.01, 189.98 82.57 C 189.37 83.13, 189.00 83.53, 188.25 84.42 C 187.50 85.32, 187.06 85.90, 186.23 87.04 C 185.41 88.19, 184.94 88.87, 184.13 90.14 C 183.32 91.41, 182.87 92.12, 182.18 93.39 C 181.50 94.67, 181.16 95.33, 180.70 96.50 C 180.24 97.67, 180.06 98.27, 179.89 99.25 C 179.73 100.23, 179.72 100.69, 179.90 101.39 C 180.08 102.08, 180.29 102.36, 180.79 102.75 C 181.30 103.13, 181.64 103.25, 182.42 103.30 C 183.19 103.36, 183.68 103.29, 184.65 103.02 C 185.62 102.76, 186.22 102.50, 187.27 101.98 C 188.32 101.47, 188.89 101.10, 189.90 100.43 C 190.90 99.76, 191.44 99.35, 192.30 98.63 C 193.16 97.92, 193.59 97.52, 194.18 96.86 C 194.78 96.20, 195.01 95.86, 195.26 95.33 C 195.52 94.80, 195.54 94.55, 195.46 94.19 C 195.37 93.84, 195.21 93.69, 194.86 93.56 C 194.50 93.44, 194.22 93.43, 193.68 93.57 C 193.14 93.72, 192.78 93.88, 192.15 94.29 C 191.52 94.70, 191.13 95.02, 190.54 95.62 C 189.96 96.23, 189.66 96.62, 189.22 97.30 C 188.79 97.97, 188.58 98.36, 188.37 99.02 C 188.17 99.68, 188.11 100.05, 188.20 100.60 C 188.29 101.15, 188.43 101.41, 188.83 101.75 C 189.23 102.10, 189.54 102.24, 190.18 102.34 C 190.83 102.44, 191.25 102.42, 192.07 102.27 C 192.89 102.12, 193.36 101.96, 194.29 101.59 C 195.23 101.22, 195.75 100.94, 196.73 100.43 C 197.71 99.93, 198.26 99.60, 199.20 99.05 C 200.15 98.50, 200.66 98.18, 201.46 97.68 C 202.26 97.18, 202.68 96.90, 203.20 96.55 C 203.72 96.20, 203.90 96.04, 204.06 95.95 C 204.21 95.86, 204.14 95.88, 203.96 96.09 C 203.79 96.29, 203.52 96.51, 203.16 96.98 C 202.80 97.45, 202.52 97.83, 202.17 98.43 C 201.83 99.03, 201.63 99.41, 201.44 99.97 C 201.25 100.53, 201.17 100.81, 201.22 101.23 C 201.27 101.64, 201.36 101.84, 201.68 102.04 C 202.00 102.24, 202.24 102.28, 202.82 102.23 C 203.39 102.18, 203.79 102.08, 204.56 101.80 C 205.32 101.52, 205.77 101.28, 206.65 100.83 C 207.52 100.38, 208.02 100.07, 208.93 99.55 C 209.84 99.03, 210.36 98.72, 211.21 98.24 C 212.05 97.75, 212.48 97.49, 213.17 97.13 C 213.87 96.78, 214.20 96.62, 214.67 96.46 C 215.14 96.30, 215.30 96.29, 215.51 96.34 C 215.73 96.38, 215.74 96.46, 215.76 96.68 C 215.79 96.91, 215.72 97.10, 215.64 97.47 C 215.55 97.83, 215.46 98.09, 215.36 98.53 C 215.26 98.97, 215.17 99.23, 215.14 99.65 C 215.10 100.07, 215.08 100.32, 215.19 100.63 C 215.30 100.94, 215.39 101.09, 215.69 101.22 C 215.99 101.34, 216.17 101.35, 216.70 101.26 C 217.22 101.18, 217.58 101.04, 218.33 100.78 C 219.07 100.52, 219.55 100.29, 220.43 99.95 C 221.32 99.61, 221.88 99.37, 222.73 99.08 C 223.58 98.79, 224.05 98.65, 224.70 98.52 C 225.35 98.39, 225.62 98.36, 225.98 98.42 C 226.34 98.47, 226.44 98.55, 226.50 98.78 C 226.57 99.00, 226.42 99.16, 226.32 99.54 C 226.21 99.91, 226.08 100.18, 225.96 100.64 C 225.85 101.10, 225.76 101.36, 225.72 101.84 C 225.69 102.31, 225.66 102.64, 225.79 103.00 C 225.92 103.36, 226.21 103.53, 226.37 103.63 C 226.52 103.72, 226.58 103.64, 226.57 103.49 C 226.57 103.34, 226.35 103.19, 226.33 102.88 C 226.30 102.57, 226.38 102.34, 226.46 101.93 C 226.54 101.52, 226.62 101.27, 226.71 100.81 C 226.81 100.35, 226.91 100.08, 226.94 99.64 C 226.97 99.20, 227.04 98.96, 226.87 98.62 C 226.70 98.29, 226.55 98.12, 226.09 97.97 C 225.64 97.83, 225.32 97.81, 224.60 97.89 C 223.89 97.96, 223.39 98.09, 222.50 98.34 C 221.61 98.60, 221.03 98.83, 220.14 99.16 C 219.24 99.49, 218.75 99.70, 218.03 99.99 C 217.31 100.28, 216.97 100.44, 216.53 100.61 C 216.08 100.77, 215.98 100.84, 215.81 100.83 C 215.64 100.81, 215.67 100.75, 215.68 100.54 C 215.69 100.33, 215.76 100.13, 215.86 99.77 C 215.95 99.40, 216.05 99.15, 216.15 98.71 C 216.25 98.26, 216.34 97.97, 216.34 97.54 C 216.35 97.11, 216.33 96.86, 216.19 96.55 C 216.04 96.24, 215.95 96.10, 215.62 95.98 C 215.29 95.86, 215.08 95.83, 214.53 95.94 C 213.98 96.05, 213.62 96.21, 212.89 96.54 C 212.15 96.88, 211.72 97.14, 210.86 97.61 C 209.99 98.08, 209.47 98.38, 208.56 98.88 C 207.64 99.39, 207.14 99.69, 206.28 100.12 C 205.42 100.56, 204.98 100.76, 204.27 101.05 C 203.56 101.35, 203.19 101.46, 202.71 101.58 C 202.23 101.71, 202.07 101.76, 201.87 101.69 C 201.66 101.61, 201.64 101.51, 201.69 101.23 C 201.73 100.94, 201.84 100.72, 202.10 100.25 C 202.36 99.79, 202.62 99.47, 202.97 98.91 C 203.32 98.34, 203.59 97.95, 203.86 97.42 C 204.13 96.88, 204.29 96.57, 204.32 96.22 C 204.35 95.88, 204.31 95.74, 204.03 95.70 C 203.74 95.66, 203.50 95.76, 202.91 96.03 C 202.32 96.31, 201.91 96.60, 201.09 97.08 C 200.28 97.56, 199.78 97.88, 198.84 98.41 C 197.90 98.95, 197.35 99.27, 196.38 99.76 C 195.42 100.26, 194.91 100.53, 194.01 100.89 C 193.12 101.24, 192.68 101.38, 191.93 101.55 C 191.17 101.71, 190.81 101.74, 190.26 101.70 C 189.70 101.67, 189.46 101.60, 189.16 101.36 C 188.85 101.13, 188.76 100.96, 188.72 100.53 C 188.68 100.10, 188.76 99.79, 188.98 99.23 C 189.20 98.66, 189.40 98.31, 189.82 97.70 C 190.25 97.09, 190.55 96.73, 191.11 96.19 C 191.66 95.64, 192.05 95.36, 192.61 94.97 C 193.17 94.57, 193.48 94.42, 193.91 94.22 C 194.34 94.02, 194.53 93.97, 194.77 93.97 C 195.01 93.98, 195.10 94.02, 195.11 94.25 C 195.12 94.47, 195.09 94.65, 194.81 95.08 C 194.53 95.52, 194.31 95.82, 193.72 96.42 C 193.13 97.02, 192.70 97.41, 191.85 98.08 C 191.01 98.76, 190.47 99.17, 189.49 99.81 C 188.50 100.45, 187.93 100.79, 186.92 101.29 C 185.92 101.79, 185.34 102.03, 184.44 102.31 C 183.55 102.59, 183.11 102.68, 182.43 102.69 C 181.76 102.71, 181.48 102.65, 181.07 102.36 C 180.66 102.08, 180.50 101.88, 180.38 101.27 C 180.26 100.67, 180.29 100.26, 180.48 99.36 C 180.67 98.45, 180.85 97.87, 181.31 96.75 C 181.78 95.62, 182.11 94.97, 182.80 93.73 C 183.49 92.49, 183.95 91.80, 184.76 90.55 C 185.58 89.31, 186.05 88.63, 186.87 87.51 C 187.70 86.39, 188.15 85.83, 188.88 84.95 C 189.61 84.07, 189.98 83.70, 190.52 83.12 C 191.06 82.55, 191.28 82.34, 191.59 82.08 C 191.89 81.81, 191.95 81.75, 192.05 81.80 C 192.14 81.86, 192.14 81.99, 192.07 82.34 C 192.00 82.69, 191.92 82.97, 191.70 83.54 C 191.49 84.12, 191.34 84.48, 190.98 85.21 C 190.62 85.94, 190.42 86.36, 189.92 87.19 C 189.43 88.03, 189.12 88.51, 188.50 89.40 C 187.89 90.29, 187.54 90.77, 186.85 91.65 C 186.16 92.53, 185.79 93.01, 185.05 93.81 C 184.30 94.61, 183.91 94.99, 183.12 95.65 C 182.33 96.31, 181.91 96.60, 181.10 97.11 C 180.28 97.62, 179.91 97.82, 179.04 98.19 C 178.16 98.55, 177.68 98.69, 176.72 98.93 C 175.76 99.17, 175.25 99.23, 174.22 99.37 C 173.20 99.52, 172.65 99.55, 171.59 99.64 C 170.53 99.73, 169.96 99.77, 168.94 99.82 C 167.92 99.87, 167.40 99.87, 166.50 99.90 C 165.61 99.92, 165.17 99.92, 164.45 99.94 C 163.74 99.96, 163.40 99.99, 162.94 99.99 C 162.48 99.99, 162.28 100.03, 162.16 99.94 C 162.04 99.84, 162.06 99.81, 162.32 99.52 C 162.59 99.23, 162.82 99.04, 163.48 98.49 C 164.14 97.94, 164.57 97.59, 165.62 96.77 C 166.67 95.95, 167.33 95.46, 168.72 94.39 C 170.11 93.32, 170.91 92.70, 172.57 91.43 C 174.22 90.17, 175.17 89.43, 176.99 88.06 C 178.81 86.68, 179.85 85.89, 181.65 84.54 C 183.46 83.20, 184.42 82.48, 186.01 81.33 C 187.59 80.18, 188.38 79.65, 189.60 78.77 C 190.81 77.90, 191.36 77.54, 192.08 76.97 C 192.81 76.40, 193.04 76.18, 193.23 75.93 C 193.41 75.69, 193.33 75.63, 192.99 75.76 C 192.65 75.88, 192.33 76.05, 191.52 76.54 C 190.72 77.02, 190.17 77.37, 188.98 78.20 C 187.79 79.02, 187.06 79.57, 185.56 80.66 C 184.07 81.75, 183.20 82.38, 181.50 83.64 C 179.81 84.90, 178.86 85.59, 177.09 86.96 C 175.31 88.33, 174.35 89.09, 172.64 90.49 C 170.92 91.88, 170.05 92.61, 168.52 93.94 C 166.98 95.27, 166.24 95.95, 164.97 97.13 C 163.69 98.32, 163.08 98.92, 162.13 99.87 C 161.17 100.83, 160.76 101.28, 160.19 101.91 C 159.62 102.54, 159.47 102.79, 159.30 103.03 C 159.13 103.27, 159.18 103.30, 159.33 103.13 C 159.48 102.95, 159.63 102.72, 160.05 102.15 C 160.46 101.58, 160.75 101.17, 161.41 100.28 C 162.07 99.40, 162.48 98.82, 163.34 97.72 C 164.19 96.62, 164.70 95.99, 165.66 94.77 C 166.62 93.55, 167.19 92.86, 168.14 91.62 C 169.10 90.37, 169.62 89.70, 170.44 88.55 C 171.26 87.39, 171.65 86.81, 172.25 85.85 C 172.85 84.90, 173.11 84.43, 173.44 83.78 C 173.76 83.12, 173.78 82.92, 173.88 82.58 C 173.98 82.25, 173.96 82.21, 173.93 82.09 C 173.90 81.98, 173.83 81.96, 173.73 82.01" style="stroke: black; fill: black;"/></svg>