<svg xmlns="http://www.w3.org/2000/svg" id="canvas" viewBox="40.594 71.619 187.583 37.725"><path d="M 51.35,82.15 C 51.10 82.45, 50.84 82.87, 50.36 83.76 C 49.88 84.66, 49.55 85.30, 48.96 86.62 C 48.37 87.94, 48.00 88.82, 47.41 90.36 C 46.81 91.90, 46.52 92.79, 45.98 94.32 C 45.43 95.85, 45.11 96.65, 44.69 98.02 C 44.26 99.38, 44.06 100.09, 43.84 101.13 C 43.62 102.17, 43.56 102.64, 43.61 103.22 C 43.67 103.80, 43.79 104.00, 44.12 104.03 C 44.44 104.06, 44.71 103.92, 45.24 103.36 C 45.76 102.81, 46.08 102.33, 46.76 101.26 C 47.45 100.19, 47.84 99.44, 48.67 98.00 C 49.49 96.56, 49.94 95.69, 50.89 94.07 C 51.83 92.44, 52.36 91.54, 53.39 89.87 C 54.41 88.20, 54.99 87.31, 56.01 85.71 C 57.03 84.11, 57.56 83.28, 58.48 81.89 C 59.41 80.49, 59.85 79.82, 60.63 78.73 C 61.40 77.65, 61.78 77.19, 62.35 76.46 C 62.92 75.72, 63.20 75.38, 63.48 75.07 C 63.75 74.75, 63.78 74.67, 63.71 74.88 C 63.64 75.09, 63.46 75.37, 63.12 76.12 C 62.78 76.87, 62.50 77.47, 62.00 78.65 C 61.50 79.82, 61.17 80.66, 60.62 82.01 C 60.07 83.36, 59.71 84.16, 59.23 85.41 C 58.75 86.66, 58.49 87.29, 58.23 88.24 C 57.96 89.19, 57.85 89.62, 57.90 90.16 C 57.95 90.70, 58.09 90.86, 58.47 90.93 C 58.86 90.99, 59.15 90.88, 59.82 90.48 C 60.49 90.07, 60.93 89.71, 61.81 88.90 C 62.69 88.09, 63.22 87.50, 64.24 86.44 C 65.26 85.38, 65.84 84.71, 66.90 83.60 C 67.97 82.50, 68.57 81.89, 69.57 80.89 C 70.57 79.90, 71.11 79.40, 71.90 78.65 C 72.69 77.91, 73.06 77.54, 73.53 77.17 C 73.99 76.80, 74.13 76.70, 74.22 76.78 C 74.32 76.87, 74.24 77.02, 74.00 77.59 C 73.75 78.17, 73.52 78.62, 72.99 79.68 C 72.46 80.73, 72.09 81.44, 71.35 82.87 C 70.62 84.30, 70.15 85.20, 69.31 86.84 C 68.48 88.49, 67.98 89.43, 67.18 91.10 C 66.37 92.77, 65.93 93.66, 65.28 95.18 C 64.63 96.69, 64.34 97.45, 63.93 98.67 C 63.52 99.89, 63.37 100.43, 63.24 101.27 C 63.11 102.11, 63.11 102.43, 63.29 102.87 C 63.46 103.31, 63.66 103.41, 64.12 103.46 C 64.58 103.51, 64.91 103.48, 65.60 103.14 C 66.29 102.79, 66.71 102.46, 67.56 101.75 C 68.42 101.03, 68.90 100.51, 69.86 99.56 C 70.82 98.60, 71.38 98.00, 72.36 96.97 C 73.33 95.94, 73.87 95.33, 74.73 94.40 C 75.60 93.47, 76.06 92.98, 76.67 92.34 C 77.28 91.69, 77.52 91.44, 77.79 91.18 C 78.05 90.91, 78.03 90.88, 77.98 91.02 C 77.92 91.16, 77.76 91.35, 77.53 91.87 C 77.29 92.38, 77.11 92.82, 76.80 93.59 C 76.50 94.35, 76.32 94.86, 76.01 95.70 C 75.69 96.55, 75.48 97.04, 75.21 97.81 C 74.94 98.59, 74.78 98.99, 74.65 99.59 C 74.52 100.19, 74.51 100.47, 74.56 100.83 C 74.62 101.18, 74.76 101.22, 74.93 101.35 C 75.11 101.48, 75.26 101.50, 75.44 101.47 C 75.62 101.44, 75.78 101.30, 75.82 101.19 C 75.86 101.08, 75.74 100.94, 75.64 100.92 C 75.55 100.90, 75.45 101.04, 75.34 101.08 C 75.24 101.12, 75.19 101.17, 75.12 101.11 C 75.05 101.06, 74.97 101.08, 74.99 100.81 C 75.02 100.53, 75.07 100.30, 75.25 99.75 C 75.43 99.20, 75.59 98.82, 75.89 98.07 C 76.20 97.32, 76.42 96.84, 76.77 96.01 C 77.12 95.17, 77.36 94.69, 77.64 93.90 C 77.92 93.11, 78.06 92.65, 78.17 92.07 C 78.27 91.48, 78.29 91.22, 78.18 90.99 C 78.06 90.75, 77.98 90.70, 77.59 90.88 C 77.20 91.06, 76.91 91.28, 76.23 91.89 C 75.56 92.49, 75.10 92.99, 74.21 93.90 C 73.33 94.81, 72.79 95.42, 71.80 96.44 C 70.82 97.45, 70.24 98.04, 69.29 98.98 C 68.34 99.92, 67.84 100.42, 67.03 101.13 C 66.23 101.84, 65.85 102.17, 65.26 102.56 C 64.68 102.95, 64.46 103.03, 64.13 103.08 C 63.80 103.12, 63.68 103.11, 63.61 102.77 C 63.54 102.42, 63.57 102.15, 63.75 101.37 C 63.93 100.59, 64.09 100.06, 64.52 98.87 C 64.95 97.69, 65.24 96.94, 65.91 95.45 C 66.57 93.96, 67.02 93.08, 67.84 91.43 C 68.66 89.78, 69.16 88.84, 70.01 87.20 C 70.86 85.57, 71.35 84.69, 72.09 83.25 C 72.84 81.82, 73.24 81.12, 73.72 80.02 C 74.21 78.92, 74.39 78.43, 74.52 77.75 C 74.64 77.07, 74.59 76.83, 74.34 76.63 C 74.10 76.44, 73.85 76.47, 73.27 76.78 C 72.70 77.09, 72.31 77.45, 71.47 78.17 C 70.63 78.89, 70.10 79.40, 69.07 80.39 C 68.05 81.37, 67.44 81.97, 66.35 83.07 C 65.27 84.17, 64.67 84.82, 63.65 85.87 C 62.62 86.91, 62.08 87.47, 61.24 88.29 C 60.40 89.11, 60.00 89.48, 59.45 89.96 C 58.90 90.43, 58.71 90.61, 58.48 90.65 C 58.25 90.69, 58.22 90.61, 58.29 90.17 C 58.36 89.72, 58.50 89.32, 58.83 88.43 C 59.15 87.53, 59.41 86.91, 59.92 85.69 C 60.44 84.47, 60.82 83.68, 61.40 82.34 C 61.98 81.00, 62.36 80.18, 62.83 78.99 C 63.30 77.79, 63.55 77.18, 63.77 76.35 C 63.99 75.53, 64.05 75.18, 63.95 74.87 C 63.84 74.55, 63.66 74.55, 63.25 74.79 C 62.84 75.04, 62.53 75.37, 61.90 76.09 C 61.28 76.80, 60.92 77.28, 60.12 78.37 C 59.33 79.46, 58.87 80.13, 57.93 81.52 C 56.99 82.91, 56.46 83.74, 55.43 85.33 C 54.39 86.93, 53.81 87.82, 52.77 89.49 C 51.73 91.16, 51.19 92.06, 50.23 93.68 C 49.27 95.30, 48.79 96.16, 47.96 97.59 C 47.12 99.02, 46.70 99.75, 46.06 100.83 C 45.42 101.91, 45.16 102.39, 44.77 102.99 C 44.38 103.59, 44.26 103.78, 44.11 103.83 C 43.96 103.88, 43.96 103.73, 44.02 103.22 C 44.09 102.71, 44.18 102.27, 44.45 101.28 C 44.71 100.28, 44.89 99.57, 45.34 98.23 C 45.78 96.88, 46.10 96.08, 46.67 94.57 C 47.23 93.05, 47.55 92.18, 48.16 90.66 C 48.76 89.13, 49.14 88.26, 49.69 86.93 C 50.24 85.61, 50.54 84.96, 50.92 84.03 C 51.30 83.10, 51.51 82.65, 51.60 82.28 C 51.68 81.90, 51.60 81.86, 51.35 82.15" style="stroke: black; fill: black;"/><path d="M 81.67,84.63 C 81.77 84.64, 81.83 84.59, 81.79 84.58 C 81.75 84.56, 81.55 84.57, 81.48 84.58 C 81.41 84.59, 81.38 84.66, 81.43 84.63 C 81.49 84.59, 81.73 84.47, 81.76 84.40 C 81.79 84.33, 81.70 84.28, 81.59 84.28 C 81.49 84.27, 81.29 84.34, 81.24 84.39 C 81.18 84.44, 81.21 84.48, 81.30 84.53 C 81.38 84.57, 81.57 84.62, 81.67 84.63" style="stroke: black; fill: black;"/><path d="M 89.84,92.47 C 89.75 92.37, 89.62 92.30, 89.32 92.25 C 89.01 92.20, 88.80 92.14, 88.33 92.22 C 87.87 92.30, 87.56 92.36, 87.00 92.63 C 86.43 92.90, 86.13 93.10, 85.50 93.57 C 84.88 94.04, 84.51 94.34, 83.86 94.98 C 83.21 95.63, 82.84 96.04, 82.25 96.79 C 81.67 97.54, 81.36 97.98, 80.95 98.74 C 80.54 99.49, 80.35 99.91, 80.21 100.56 C 80.06 101.20, 80.07 101.51, 80.24 101.95 C 80.42 102.40, 80.59 102.62, 81.07 102.79 C 81.55 102.95, 81.89 102.97, 82.64 102.78 C 83.39 102.59, 83.84 102.40, 84.81 101.84 C 85.77 101.28, 86.31 100.88, 87.45 100.00 C 88.59 99.11, 89.23 98.55, 90.50 97.40 C 91.77 96.24, 92.48 95.55, 93.79 94.22 C 95.11 92.89, 95.82 92.13, 97.08 90.73 C 98.33 89.33, 98.99 88.56, 100.07 87.20 C 101.16 85.85, 101.69 85.13, 102.50 83.95 C 103.32 82.77, 103.67 82.21, 104.13 81.29 C 104.59 80.37, 104.72 79.94, 104.79 79.35 C 104.86 78.76, 104.78 78.53, 104.50 78.34 C 104.21 78.14, 103.94 78.14, 103.39 78.38 C 102.83 78.62, 102.45 78.86, 101.73 79.53 C 101.01 80.19, 100.60 80.67, 99.78 81.69 C 98.97 82.72, 98.48 83.39, 97.65 84.63 C 96.82 85.87, 96.36 86.59, 95.62 87.89 C 94.87 89.19, 94.50 89.90, 93.93 91.13 C 93.36 92.35, 93.10 92.98, 92.76 94.00 C 92.41 95.03, 92.27 95.49, 92.20 96.25 C 92.13 97.00, 92.16 97.33, 92.40 97.78 C 92.63 98.23, 92.86 98.37, 93.37 98.49 C 93.87 98.61, 94.20 98.56, 94.92 98.37 C 95.64 98.17, 96.10 97.94, 96.96 97.51 C 97.81 97.08, 98.33 96.74, 99.20 96.21 C 100.07 95.68, 100.56 95.33, 101.32 94.85 C 102.08 94.38, 102.51 94.12, 103.01 93.83 C 103.51 93.54, 103.65 93.42, 103.81 93.40 C 103.96 93.37, 103.89 93.45, 103.77 93.72 C 103.65 93.98, 103.44 94.23, 103.20 94.73 C 102.97 95.22, 102.76 95.58, 102.60 96.18 C 102.44 96.77, 102.37 97.14, 102.39 97.70 C 102.42 98.25, 102.44 98.56, 102.70 98.95 C 102.97 99.34, 103.20 99.50, 103.72 99.64 C 104.25 99.78, 104.62 99.77, 105.33 99.67 C 106.05 99.56, 106.47 99.43, 107.30 99.10 C 108.14 98.78, 108.62 98.51, 109.51 98.04 C 110.40 97.57, 110.88 97.27, 111.75 96.74 C 112.62 96.22, 113.07 95.92, 113.85 95.42 C 114.62 94.92, 115.02 94.68, 115.63 94.25 C 116.24 93.82, 116.56 93.60, 116.89 93.28 C 117.21 92.95, 117.30 92.76, 117.24 92.62 C 117.18 92.47, 117.01 92.42, 116.59 92.55 C 116.18 92.67, 115.83 92.82, 115.18 93.23 C 114.53 93.63, 114.08 93.96, 113.33 94.56 C 112.58 95.15, 112.11 95.55, 111.44 96.20 C 110.77 96.85, 110.43 97.23, 109.97 97.81 C 109.52 98.39, 109.34 98.67, 109.15 99.11 C 108.96 99.54, 108.93 99.72, 109.02 100.00 C 109.11 100.27, 109.26 100.40, 109.61 100.48 C 109.95 100.57, 110.22 100.57, 110.76 100.44 C 111.29 100.30, 111.60 100.15, 112.26 99.80 C 112.92 99.46, 113.32 99.20, 114.04 98.71 C 114.76 98.21, 115.17 97.90, 115.86 97.32 C 116.56 96.74, 116.94 96.38, 117.52 95.80 C 118.10 95.23, 118.41 94.88, 118.75 94.45 C 119.09 94.01, 119.18 93.79, 119.22 93.63 C 119.25 93.47, 119.15 93.46, 118.92 93.65 C 118.70 93.84, 118.43 94.08, 118.10 94.57 C 117.77 95.06, 117.52 95.46, 117.26 96.10 C 116.99 96.75, 116.88 97.16, 116.77 97.77 C 116.66 98.38, 116.59 98.68, 116.72 99.14 C 116.85 99.61, 116.99 99.84, 117.40 100.12 C 117.81 100.40, 118.12 100.52, 118.78 100.54 C 119.44 100.57, 119.85 100.49, 120.68 100.26 C 121.52 100.03, 122.03 99.82, 122.95 99.40 C 123.87 98.98, 124.39 98.70, 125.28 98.16 C 126.17 97.61, 126.66 97.27, 127.40 96.68 C 128.13 96.10, 128.50 95.77, 128.98 95.24 C 129.45 94.71, 129.62 94.44, 129.75 94.02 C 129.88 93.61, 129.84 93.40, 129.62 93.17 C 129.41 92.94, 129.15 92.85, 128.66 92.89 C 128.18 92.92, 127.81 93.03, 127.20 93.34 C 126.60 93.64, 126.22 93.89, 125.63 94.41 C 125.05 94.92, 124.73 95.27, 124.29 95.90 C 123.85 96.52, 123.64 96.91, 123.44 97.54 C 123.23 98.17, 123.18 98.51, 123.27 99.04 C 123.36 99.58, 123.49 99.84, 123.89 100.20 C 124.29 100.56, 124.58 100.72, 125.29 100.83 C 125.99 100.94, 126.44 100.94, 127.41 100.75 C 128.38 100.55, 128.98 100.36, 130.15 99.85 C 131.31 99.34, 131.96 99.00, 133.25 98.19 C 134.55 97.39, 135.26 96.87, 136.62 95.83 C 137.98 94.79, 138.72 94.17, 140.04 92.98 C 141.37 91.80, 142.03 91.14, 143.24 89.89 C 144.44 88.64, 145.05 87.95, 146.06 86.75 C 147.06 85.55, 147.55 84.93, 148.26 83.90 C 148.97 82.87, 149.24 82.41, 149.60 81.62 C 149.97 80.83, 150.06 80.49, 150.07 79.97 C 150.07 79.44, 149.98 79.24, 149.64 79.01 C 149.29 78.78, 148.98 78.70, 148.34 78.79 C 147.71 78.89, 147.30 79.03, 146.46 79.50 C 145.61 79.98, 145.11 80.34, 144.12 81.18 C 143.13 82.02, 142.53 82.55, 141.50 83.69 C 140.47 84.83, 139.90 85.54, 138.97 86.86 C 138.05 88.18, 137.58 88.94, 136.89 90.29 C 136.21 91.64, 135.92 92.36, 135.56 93.62 C 135.20 94.87, 135.10 95.52, 135.09 96.59 C 135.08 97.66, 135.16 98.15, 135.51 98.97 C 135.86 99.78, 136.15 100.13, 136.83 100.68 C 137.51 101.23, 137.96 101.46, 138.91 101.71 C 139.85 101.97, 140.53 101.96, 141.54 101.96 C 142.56 101.96, 143.16 101.85, 143.98 101.70 C 144.80 101.55, 145.33 101.36, 145.65 101.21 C 145.98 101.06, 145.96 100.98, 145.61 100.96 C 145.26 100.93, 144.72 101.04, 143.91 101.08 C 143.09 101.13, 142.51 101.21, 141.54 101.20 C 140.58 101.19, 139.94 101.25, 139.07 101.05 C 138.20 100.86, 137.80 100.69, 137.19 100.23 C 136.57 99.77, 136.31 99.48, 136.01 98.75 C 135.71 98.03, 135.64 97.59, 135.67 96.60 C 135.71 95.61, 135.81 95.00, 136.17 93.80 C 136.54 92.60, 136.83 91.91, 137.51 90.61 C 138.19 89.31, 138.67 88.57, 139.58 87.29 C 140.50 86.02, 141.07 85.32, 142.08 84.21 C 143.09 83.11, 143.68 82.59, 144.63 81.78 C 145.58 80.97, 146.08 80.64, 146.85 80.16 C 147.62 79.68, 147.96 79.55, 148.48 79.38 C 149.00 79.21, 149.22 79.20, 149.46 79.31 C 149.70 79.42, 149.74 79.52, 149.67 79.93 C 149.60 80.35, 149.50 80.65, 149.11 81.38 C 148.73 82.10, 148.46 82.55, 147.75 83.54 C 147.04 84.53, 146.54 85.14, 145.54 86.31 C 144.54 87.48, 143.93 88.18, 142.74 89.40 C 141.54 90.63, 140.88 91.28, 139.56 92.45 C 138.25 93.62, 137.51 94.22, 136.17 95.24 C 134.83 96.26, 134.12 96.77, 132.86 97.55 C 131.59 98.34, 130.96 98.66, 129.84 99.15 C 128.72 99.65, 128.15 99.82, 127.25 100.02 C 126.36 100.23, 125.97 100.24, 125.36 100.19 C 124.75 100.15, 124.53 100.05, 124.22 99.81 C 123.90 99.56, 123.83 99.38, 123.79 98.97 C 123.76 98.57, 123.83 98.29, 124.04 97.76 C 124.26 97.23, 124.46 96.88, 124.88 96.33 C 125.30 95.78, 125.62 95.47, 126.16 95.02 C 126.70 94.56, 127.07 94.36, 127.59 94.05 C 128.11 93.74, 128.41 93.61, 128.78 93.48 C 129.14 93.34, 129.31 93.31, 129.42 93.39 C 129.54 93.46, 129.54 93.56, 129.36 93.85 C 129.18 94.13, 129.01 94.35, 128.53 94.81 C 128.05 95.26, 127.69 95.58, 126.97 96.12 C 126.24 96.66, 125.76 97.00, 124.90 97.51 C 124.03 98.02, 123.51 98.28, 122.63 98.69 C 121.74 99.09, 121.24 99.28, 120.47 99.52 C 119.70 99.76, 119.34 99.85, 118.78 99.88 C 118.22 99.92, 117.98 99.85, 117.67 99.69 C 117.36 99.52, 117.26 99.39, 117.22 99.04 C 117.18 98.69, 117.28 98.46, 117.46 97.95 C 117.64 97.44, 117.84 97.08, 118.11 96.48 C 118.39 95.89, 118.62 95.51, 118.85 94.98 C 119.08 94.45, 119.22 94.14, 119.27 93.84 C 119.32 93.54, 119.28 93.44, 119.09 93.48 C 118.90 93.51, 118.71 93.66, 118.30 94.02 C 117.88 94.38, 117.60 94.73, 117.02 95.28 C 116.43 95.82, 116.07 96.18, 115.38 96.74 C 114.70 97.29, 114.29 97.58, 113.59 98.05 C 112.89 98.52, 112.49 98.75, 111.87 99.09 C 111.26 99.43, 110.97 99.56, 110.53 99.75 C 110.08 99.94, 109.89 99.99, 109.65 100.02 C 109.41 100.06, 109.32 100.06, 109.31 99.92 C 109.30 99.79, 109.35 99.68, 109.59 99.35 C 109.82 99.01, 110.00 98.76, 110.48 98.24 C 110.96 97.73, 111.29 97.37, 111.97 96.77 C 112.65 96.18, 113.14 95.83, 113.88 95.26 C 114.61 94.69, 115.07 94.38, 115.66 93.93 C 116.26 93.48, 116.54 93.27, 116.84 93.00 C 117.14 92.74, 117.21 92.65, 117.16 92.62 C 117.11 92.60, 116.96 92.66, 116.58 92.88 C 116.20 93.09, 115.89 93.31, 115.27 93.70 C 114.65 94.09, 114.26 94.35, 113.48 94.84 C 112.70 95.32, 112.24 95.61, 111.38 96.12 C 110.51 96.62, 110.02 96.91, 109.15 97.37 C 108.28 97.82, 107.81 98.07, 107.02 98.39 C 106.23 98.70, 105.84 98.82, 105.20 98.96 C 104.57 99.10, 104.26 99.14, 103.84 99.08 C 103.43 99.03, 103.28 98.96, 103.12 98.69 C 102.97 98.41, 103.00 98.17, 103.06 97.72 C 103.12 97.27, 103.24 96.96, 103.42 96.42 C 103.60 95.88, 103.80 95.54, 103.96 95.02 C 104.12 94.49, 104.23 94.16, 104.21 93.78 C 104.18 93.41, 104.14 93.23, 103.85 93.14 C 103.56 93.04, 103.34 93.09, 102.76 93.31 C 102.18 93.52, 101.74 93.77, 100.95 94.22 C 100.15 94.66, 99.66 95.01, 98.79 95.52 C 97.92 96.04, 97.40 96.35, 96.58 96.78 C 95.76 97.22, 95.33 97.46, 94.70 97.71 C 94.07 97.96, 93.83 98.06, 93.44 98.04 C 93.05 98.02, 92.90 97.95, 92.76 97.61 C 92.62 97.26, 92.61 97.00, 92.73 96.32 C 92.85 95.64, 92.99 95.19, 93.35 94.21 C 93.71 93.23, 93.96 92.61, 94.54 91.42 C 95.12 90.23, 95.50 89.52, 96.25 88.26 C 97.00 86.99, 97.46 86.28, 98.30 85.07 C 99.13 83.86, 99.63 83.21, 100.43 82.21 C 101.22 81.21, 101.63 80.76, 102.28 80.09 C 102.92 79.42, 103.24 79.17, 103.65 78.86 C 104.07 78.55, 104.22 78.46, 104.36 78.54 C 104.51 78.62, 104.52 78.77, 104.37 79.27 C 104.23 79.76, 104.10 80.16, 103.62 81.02 C 103.14 81.88, 102.79 82.43, 101.98 83.58 C 101.16 84.73, 100.63 85.44, 99.54 86.77 C 98.45 88.10, 97.80 88.87, 96.54 90.25 C 95.29 91.64, 94.58 92.38, 93.27 93.70 C 91.96 95.02, 91.25 95.69, 89.99 96.83 C 88.73 97.97, 88.09 98.51, 86.97 99.38 C 85.86 100.25, 85.32 100.63, 84.41 101.18 C 83.51 101.73, 83.09 101.91, 82.44 102.14 C 81.80 102.37, 81.55 102.40, 81.19 102.34 C 80.83 102.27, 80.74 102.14, 80.66 101.82 C 80.58 101.49, 80.59 101.26, 80.77 100.71 C 80.95 100.16, 81.14 99.77, 81.56 99.08 C 81.97 98.39, 82.28 97.97, 82.85 97.26 C 83.41 96.55, 83.78 96.15, 84.40 95.53 C 85.02 94.91, 85.38 94.62, 85.96 94.18 C 86.55 93.74, 86.82 93.56, 87.33 93.32 C 87.83 93.07, 88.08 93.05, 88.48 92.95 C 88.88 92.85, 89.04 92.88, 89.31 92.83 C 89.58 92.79, 89.71 92.81, 89.81 92.73 C 89.92 92.66, 89.94 92.56, 89.84 92.47" style="stroke: black; fill: black;"/><path d="M 167.48,81.87 C 167.38 81.97, 167.38 82.05, 167.24 82.39 C 167.09 82.73, 167.03 82.94, 166.76 83.58 C 166.49 84.21, 166.33 84.65, 165.90 85.59 C 165.46 86.52, 165.19 87.11, 164.59 88.27 C 163.99 89.43, 163.61 90.12, 162.90 91.40 C 162.19 92.68, 161.77 93.38, 161.04 94.66 C 160.31 95.94, 159.91 96.63, 159.26 97.80 C 158.61 98.98, 158.28 99.59, 157.79 100.53 C 157.30 101.48, 157.04 101.92, 156.80 102.54 C 156.56 103.17, 156.52 103.42, 156.59 103.67 C 156.66 103.92, 156.79 103.98, 157.17 103.79 C 157.55 103.61, 157.80 103.38, 158.47 102.75 C 159.14 102.12, 159.56 101.63, 160.51 100.65 C 161.45 99.66, 162.02 99.01, 163.18 97.82 C 164.35 96.63, 165.03 95.94, 166.33 94.69 C 167.64 93.44, 168.36 92.79, 169.69 91.59 C 171.03 90.38, 171.72 89.77, 173.00 88.66 C 174.28 87.55, 174.95 86.99, 176.09 86.04 C 177.23 85.09, 177.77 84.66, 178.71 83.89 C 179.65 83.11, 180.08 82.75, 180.78 82.18 C 181.49 81.62, 181.80 81.43, 182.24 81.05 C 182.69 80.68, 182.87 80.55, 183.01 80.32 C 183.15 80.09, 183.14 79.94, 182.95 79.89 C 182.76 79.83, 182.59 79.83, 182.07 80.05 C 181.55 80.26, 181.21 80.44, 180.34 80.95 C 179.47 81.47, 178.91 81.82, 177.72 82.61 C 176.53 83.41, 175.80 83.91, 174.39 84.91 C 172.99 85.91, 172.13 86.50, 170.67 87.61 C 169.22 88.72, 168.44 89.33, 167.14 90.44 C 165.84 91.56, 165.19 92.15, 164.18 93.18 C 163.16 94.21, 162.72 94.71, 162.07 95.59 C 161.42 96.48, 161.19 96.87, 160.92 97.61 C 160.65 98.35, 160.61 98.70, 160.72 99.29 C 160.82 99.87, 161.00 100.14, 161.45 100.56 C 161.91 100.98, 162.24 101.14, 162.98 101.40 C 163.71 101.66, 164.17 101.75, 165.12 101.86 C 166.06 101.97, 166.60 101.98, 167.70 101.94 C 168.80 101.89, 169.42 101.83, 170.61 101.63 C 171.80 101.43, 172.45 101.29, 173.64 100.94 C 174.83 100.58, 175.41 100.36, 176.55 99.87 C 177.70 99.37, 178.26 99.09, 179.35 98.45 C 180.45 97.82, 181.02 97.46, 182.04 96.68 C 183.06 95.90, 183.55 95.45, 184.46 94.54 C 185.37 93.64, 185.79 93.13, 186.60 92.15 C 187.40 91.18, 187.80 90.66, 188.48 89.68 C 189.16 88.69, 189.47 88.18, 190.00 87.25 C 190.53 86.32, 190.75 85.86, 191.11 85.03 C 191.47 84.19, 191.62 83.78, 191.80 83.07 C 191.99 82.36, 192.06 82.02, 192.03 81.48 C 191.99 80.94, 191.90 80.69, 191.65 80.37 C 191.39 80.04, 191.21 79.90, 190.76 79.85 C 190.31 79.79, 190.04 79.82, 189.40 80.10 C 188.76 80.37, 188.37 80.62, 187.57 81.23 C 186.76 81.84, 186.28 82.24, 185.36 83.14 C 184.43 84.04, 183.92 84.61, 182.93 85.74 C 181.95 86.88, 181.37 87.55, 180.43 88.82 C 179.50 90.09, 179.02 90.80, 178.24 92.09 C 177.45 93.38, 177.08 94.06, 176.52 95.28 C 175.97 96.50, 175.73 97.12, 175.47 98.19 C 175.20 99.27, 175.16 99.80, 175.19 100.65 C 175.22 101.51, 175.29 101.87, 175.61 102.47 C 175.93 103.07, 176.18 103.33, 176.78 103.66 C 177.38 103.99, 177.78 104.08, 178.61 104.12 C 179.44 104.15, 179.94 104.08, 180.92 103.83 C 181.89 103.58, 182.45 103.37, 183.49 102.89 C 184.53 102.41, 185.10 102.08, 186.12 101.43 C 187.13 100.78, 187.66 100.38, 188.56 99.64 C 189.45 98.90, 189.90 98.47, 190.59 97.72 C 191.28 96.98, 191.62 96.57, 192.00 95.91 C 192.38 95.24, 192.49 94.89, 192.51 94.39 C 192.52 93.89, 192.38 93.65, 192.06 93.39 C 191.73 93.13, 191.43 93.05, 190.86 93.09 C 190.29 93.13, 189.89 93.25, 189.22 93.60 C 188.55 93.95, 188.14 94.26, 187.49 94.85 C 186.85 95.44, 186.50 95.84, 186.02 96.55 C 185.53 97.26, 185.30 97.68, 185.07 98.39 C 184.84 99.09, 184.79 99.47, 184.85 100.08 C 184.91 100.69, 185.01 100.98, 185.37 101.42 C 185.72 101.86, 186.00 102.08, 186.62 102.29 C 187.25 102.50, 187.67 102.53, 188.49 102.48 C 189.31 102.43, 189.77 102.32, 190.72 102.05 C 191.68 101.78, 192.26 101.56, 193.27 101.12 C 194.28 100.68, 194.85 100.37, 195.80 99.86 C 196.75 99.34, 197.23 99.04, 198.02 98.55 C 198.81 98.06, 199.25 97.77, 199.77 97.41 C 200.28 97.06, 200.46 96.88, 200.60 96.78 C 200.74 96.67, 200.64 96.69, 200.46 96.89 C 200.29 97.08, 200.05 97.30, 199.72 97.75 C 199.39 98.19, 199.11 98.54, 198.82 99.11 C 198.53 99.67, 198.36 100.05, 198.25 100.58 C 198.14 101.11, 198.15 101.37, 198.29 101.75 C 198.43 102.13, 198.53 102.30, 198.94 102.47 C 199.35 102.64, 199.67 102.69, 200.34 102.61 C 201.01 102.54, 201.44 102.40, 202.30 102.10 C 203.15 101.79, 203.65 101.53, 204.61 101.08 C 205.58 100.64, 206.14 100.34, 207.13 99.87 C 208.12 99.41, 208.66 99.15, 209.57 98.75 C 210.47 98.35, 210.94 98.15, 211.67 97.88 C 212.40 97.61, 212.77 97.49, 213.22 97.40 C 213.67 97.31, 213.81 97.33, 213.93 97.44 C 214.04 97.56, 213.97 97.65, 213.80 97.97 C 213.64 98.30, 213.44 98.54, 213.10 99.04 C 212.76 99.55, 212.48 99.90, 212.11 100.49 C 211.75 101.07, 211.50 101.44, 211.27 101.97 C 211.04 102.50, 210.94 102.78, 210.96 103.12 C 210.99 103.47, 211.06 103.61, 211.39 103.68 C 211.73 103.75, 212.00 103.70, 212.64 103.48 C 213.28 103.27, 213.70 103.04, 214.58 102.62 C 215.46 102.21, 216.03 101.88, 217.04 101.40 C 218.05 100.93, 218.65 100.65, 219.63 100.26 C 220.62 99.87, 221.15 99.67, 221.95 99.45 C 222.76 99.22, 223.13 99.16, 223.65 99.14 C 224.16 99.12, 224.31 99.16, 224.51 99.34 C 224.70 99.52, 224.67 99.68, 224.63 100.04 C 224.59 100.39, 224.48 100.63, 224.31 101.11 C 224.15 101.58, 223.99 101.87, 223.80 102.42 C 223.62 102.97, 223.47 103.33, 223.40 103.84 C 223.33 104.36, 223.37 104.59, 223.45 104.99 C 223.54 105.40, 223.64 105.60, 223.82 105.85 C 223.99 106.11, 224.14 106.17, 224.33 106.27 C 224.51 106.36, 224.63 106.35, 224.73 106.33 C 224.83 106.31, 224.85 106.23, 224.82 106.14 C 224.79 106.06, 224.69 106.03, 224.58 105.91 C 224.47 105.80, 224.38 105.77, 224.27 105.57 C 224.16 105.37, 224.06 105.22, 224.03 104.90 C 223.99 104.58, 223.97 104.41, 224.08 103.97 C 224.19 103.52, 224.37 103.21, 224.56 102.68 C 224.75 102.15, 224.90 101.84, 225.02 101.31 C 225.14 100.78, 225.21 100.48, 225.16 100.03 C 225.11 99.58, 225.07 99.34, 224.77 99.06 C 224.47 98.78, 224.25 98.68, 223.66 98.63 C 223.06 98.58, 222.65 98.63, 221.80 98.81 C 220.94 99.00, 220.39 99.20, 219.37 99.56 C 218.35 99.93, 217.73 100.20, 216.70 100.65 C 215.66 101.11, 215.07 101.40, 214.20 101.84 C 213.33 102.27, 212.92 102.52, 212.36 102.82 C 211.79 103.12, 211.60 103.26, 211.39 103.33 C 211.19 103.40, 211.23 103.38, 211.34 103.18 C 211.44 102.98, 211.61 102.77, 211.92 102.32 C 212.22 101.88, 212.47 101.53, 212.85 100.96 C 213.22 100.39, 213.51 100.03, 213.80 99.46 C 214.10 98.89, 214.24 98.57, 214.31 98.13 C 214.38 97.68, 214.37 97.48, 214.15 97.23 C 213.92 96.99, 213.71 96.89, 213.17 96.90 C 212.64 96.91, 212.24 97.03, 211.46 97.27 C 210.69 97.51, 210.22 97.72, 209.29 98.10 C 208.36 98.49, 207.82 98.74, 206.82 99.19 C 205.82 99.64, 205.25 99.93, 204.29 100.36 C 203.33 100.79, 202.83 101.03, 202.02 101.34 C 201.21 101.65, 200.81 101.78, 200.22 101.91 C 199.64 102.04, 199.39 102.07, 199.09 102.01 C 198.79 101.96, 198.75 101.88, 198.71 101.63 C 198.68 101.39, 198.72 101.20, 198.91 100.78 C 199.09 100.37, 199.34 100.08, 199.64 99.55 C 199.94 99.03, 200.19 98.67, 200.42 98.16 C 200.66 97.66, 200.78 97.35, 200.81 97.02 C 200.84 96.70, 200.83 96.56, 200.56 96.54 C 200.29 96.51, 200.04 96.61, 199.46 96.89 C 198.89 97.17, 198.47 97.49, 197.66 97.95 C 196.86 98.42, 196.39 98.72, 195.45 99.21 C 194.51 99.71, 193.96 100.00, 192.97 100.42 C 191.98 100.84, 191.42 101.05, 190.51 101.32 C 189.60 101.59, 189.17 101.70, 188.43 101.78 C 187.69 101.85, 187.33 101.83, 186.80 101.70 C 186.27 101.56, 186.06 101.42, 185.78 101.09 C 185.50 100.76, 185.42 100.54, 185.40 100.04 C 185.38 99.54, 185.44 99.22, 185.68 98.61 C 185.92 97.99, 186.15 97.61, 186.62 96.98 C 187.09 96.34, 187.43 95.97, 188.03 95.43 C 188.63 94.90, 189.01 94.63, 189.60 94.28 C 190.18 93.93, 190.51 93.81, 190.95 93.69 C 191.40 93.58, 191.61 93.58, 191.83 93.71 C 192.05 93.84, 192.13 93.98, 192.07 94.35 C 192.00 94.73, 191.89 95.01, 191.49 95.59 C 191.10 96.18, 190.78 96.56, 190.10 97.26 C 189.42 97.96, 188.99 98.38, 188.11 99.09 C 187.24 99.80, 186.71 100.19, 185.73 100.81 C 184.74 101.44, 184.18 101.75, 183.18 102.21 C 182.18 102.67, 181.64 102.87, 180.73 103.12 C 179.82 103.37, 179.36 103.44, 178.62 103.46 C 177.88 103.47, 177.54 103.42, 177.03 103.17 C 176.51 102.93, 176.31 102.75, 176.05 102.24 C 175.80 101.74, 175.74 101.42, 175.74 100.64 C 175.75 99.87, 175.79 99.37, 176.06 98.35 C 176.34 97.33, 176.57 96.73, 177.12 95.55 C 177.67 94.38, 178.05 93.71, 178.83 92.45 C 179.61 91.19, 180.09 90.50, 181.02 89.26 C 181.96 88.01, 182.53 87.36, 183.51 86.24 C 184.49 85.13, 185.00 84.58, 185.90 83.70 C 186.81 82.82, 187.29 82.45, 188.04 81.85 C 188.80 81.25, 189.16 81.01, 189.70 80.71 C 190.24 80.40, 190.41 80.34, 190.73 80.33 C 191.05 80.31, 191.14 80.39, 191.30 80.62 C 191.45 80.85, 191.51 81.03, 191.49 81.49 C 191.48 81.95, 191.42 82.26, 191.22 82.91 C 191.03 83.57, 190.90 83.97, 190.54 84.77 C 190.18 85.57, 189.96 86.02, 189.43 86.92 C 188.91 87.83, 188.60 88.33, 187.93 89.29 C 187.26 90.25, 186.87 90.77, 186.08 91.72 C 185.29 92.67, 184.87 93.18, 183.98 94.06 C 183.09 94.94, 182.62 95.38, 181.62 96.14 C 180.63 96.90, 180.08 97.25, 179.02 97.87 C 177.95 98.49, 177.40 98.77, 176.29 99.25 C 175.17 99.73, 174.60 99.93, 173.44 100.26 C 172.28 100.60, 171.64 100.73, 170.49 100.91 C 169.34 101.10, 168.73 101.16, 167.67 101.20 C 166.61 101.24, 166.09 101.21, 165.20 101.12 C 164.30 101.03, 163.86 100.94, 163.18 100.75 C 162.51 100.56, 162.20 100.46, 161.80 100.15 C 161.40 99.85, 161.25 99.68, 161.17 99.21 C 161.09 98.73, 161.13 98.45, 161.40 97.80 C 161.67 97.14, 161.88 96.77, 162.53 95.94 C 163.18 95.11, 163.62 94.64, 164.64 93.64 C 165.65 92.65, 166.30 92.07, 167.60 90.98 C 168.89 89.89, 169.68 89.29, 171.13 88.21 C 172.58 87.13, 173.44 86.54, 174.85 85.56 C 176.26 84.58, 176.99 84.08, 178.18 83.30 C 179.36 82.52, 179.93 82.20, 180.78 81.66 C 181.62 81.12, 181.94 80.93, 182.38 80.62 C 182.82 80.30, 182.90 80.18, 182.98 80.08 C 183.07 79.98, 183.00 79.99, 182.79 80.10 C 182.58 80.21, 182.40 80.31, 181.92 80.64 C 181.45 80.96, 181.15 81.17, 180.42 81.72 C 179.70 82.28, 179.27 82.64, 178.32 83.40 C 177.37 84.17, 176.83 84.59, 175.68 85.54 C 174.52 86.49, 173.84 87.04, 172.55 88.14 C 171.26 89.25, 170.57 89.86, 169.22 91.06 C 167.88 92.26, 167.14 92.91, 165.82 94.15 C 164.50 95.39, 163.80 96.07, 162.61 97.25 C 161.43 98.44, 160.82 99.06, 159.88 100.05 C 158.94 101.05, 158.50 101.53, 157.91 102.21 C 157.32 102.90, 157.15 103.20, 156.93 103.49 C 156.70 103.78, 156.71 103.81, 156.79 103.67 C 156.86 103.53, 156.97 103.33, 157.28 102.77 C 157.60 102.20, 157.84 101.77, 158.36 100.84 C 158.87 99.91, 159.20 99.30, 159.87 98.14 C 160.53 96.97, 160.93 96.29, 161.67 95.02 C 162.41 93.74, 162.83 93.05, 163.56 91.77 C 164.28 90.50, 164.68 89.81, 165.30 88.64 C 165.91 87.47, 166.21 86.89, 166.64 85.93 C 167.08 84.97, 167.26 84.52, 167.48 83.84 C 167.70 83.16, 167.71 82.91, 167.76 82.52 C 167.80 82.14, 167.76 82.04, 167.71 81.91 C 167.65 81.78, 167.57 81.78, 167.48 81.87" style="stroke: black; fill: black;"/></svg>