<svg xmlns="http://www.w3.org/2000/svg" id="canvas" viewBox="38.999 74.297 190.511 36.633"><path d="M 50.65,81.39 C 50.43 81.63, 50.21 81.98, 49.81 82.74 C 49.40 83.49, 49.16 83.99, 48.64 85.16 C 48.12 86.34, 47.80 87.13, 47.22 88.61 C 46.64 90.09, 46.31 90.96, 45.74 92.57 C 45.16 94.18, 44.84 95.07, 44.32 96.66 C 43.81 98.26, 43.54 99.15, 43.14 100.55 C 42.73 101.96, 42.52 102.65, 42.30 103.70 C 42.07 104.74, 42.02 105.34, 42.00 105.76 C 41.99 106.18, 42.06 106.19, 42.22 105.81 C 42.38 105.42, 42.48 104.84, 42.80 103.83 C 43.11 102.82, 43.35 102.14, 43.79 100.75 C 44.23 99.36, 44.48 98.47, 45.01 96.89 C 45.54 95.30, 45.85 94.42, 46.44 92.83 C 47.04 91.23, 47.38 90.38, 47.97 88.90 C 48.55 87.43, 48.88 86.65, 49.36 85.46 C 49.83 84.28, 50.04 83.78, 50.35 82.99 C 50.66 82.20, 50.83 81.83, 50.89 81.50 C 50.95 81.18, 50.87 81.14, 50.65 81.39" style="stroke: black; fill: black;"/><path d="M 51.84,83.13 C 52.00 83.01, 52.11 82.70, 52.37 82.40 C 52.63 82.10, 52.79 81.90, 53.14 81.64 C 53.50 81.38, 53.72 81.21, 54.16 81.10 C 54.59 81.00, 54.83 81.02, 55.31 81.11 C 55.80 81.19, 56.05 81.33, 56.58 81.53 C 57.11 81.74, 57.36 81.91, 57.96 82.13 C 58.56 82.35, 58.89 82.49, 59.57 82.65 C 60.26 82.80, 60.61 82.89, 61.38 82.91 C 62.14 82.94, 62.56 82.91, 63.41 82.78 C 64.26 82.64, 64.73 82.54, 65.62 82.24 C 66.50 81.94, 66.96 81.71, 67.83 81.27 C 68.71 80.83, 69.16 80.53, 69.97 80.05 C 70.77 79.57, 71.22 79.31, 71.86 78.87 C 72.49 78.43, 72.83 78.13, 73.15 77.84 C 73.48 77.55, 73.56 77.38, 73.48 77.44 C 73.41 77.50, 73.23 77.62, 72.78 78.13 C 72.33 78.63, 71.99 79.01, 71.24 79.97 C 70.48 80.93, 69.98 81.61, 69.02 82.93 C 68.07 84.25, 67.46 85.09, 66.47 86.58 C 65.48 88.07, 64.96 88.90, 64.07 90.40 C 63.19 91.89, 62.74 92.69, 62.04 94.06 C 61.34 95.43, 61.02 96.10, 60.56 97.24 C 60.11 98.39, 59.94 98.92, 59.77 99.80 C 59.60 100.67, 59.60 101.04, 59.71 101.60 C 59.83 102.17, 59.98 102.36, 60.36 102.60 C 60.73 102.84, 61.00 102.89, 61.60 102.82 C 62.20 102.75, 62.59 102.62, 63.35 102.24 C 64.11 101.85, 64.54 101.53, 65.40 100.91 C 66.26 100.28, 66.74 99.86, 67.67 99.11 C 68.59 98.37, 69.14 97.92, 70.03 97.17 C 70.92 96.42, 71.40 95.97, 72.12 95.37 C 72.83 94.76, 73.19 94.48, 73.60 94.15 C 74.01 93.83, 74.13 93.73, 74.17 93.74 C 74.22 93.76, 74.07 93.87, 73.84 94.23 C 73.60 94.59, 73.33 94.92, 72.97 95.54 C 72.62 96.15, 72.37 96.58, 72.04 97.29 C 71.72 98.00, 71.54 98.44, 71.34 99.10 C 71.14 99.75, 71.05 100.06, 71.03 100.55 C 71.02 101.04, 71.04 101.28, 71.26 101.56 C 71.48 101.84, 71.70 101.93, 72.14 101.95 C 72.58 101.98, 72.86 101.91, 73.46 101.70 C 74.06 101.49, 74.42 101.30, 75.14 100.90 C 75.86 100.50, 76.28 100.20, 77.07 99.68 C 77.86 99.16, 78.29 98.83, 79.10 98.31 C 79.90 97.78, 80.35 97.51, 81.11 97.04 C 81.87 96.58, 82.26 96.35, 82.92 95.99 C 83.57 95.62, 83.87 95.46, 84.38 95.21 C 84.88 94.97, 85.09 94.89, 85.45 94.76 C 85.80 94.63, 85.94 94.63, 86.15 94.57 C 86.37 94.52, 86.45 94.52, 86.53 94.47 C 86.61 94.42, 86.64 94.34, 86.53 94.34 C 86.43 94.34, 86.32 94.31, 86.01 94.46 C 85.70 94.61, 85.47 94.74, 84.99 95.09 C 84.50 95.44, 84.18 95.67, 83.60 96.20 C 83.01 96.72, 82.65 97.08, 82.08 97.72 C 81.51 98.35, 81.20 98.72, 80.75 99.37 C 80.29 100.01, 80.05 100.36, 79.81 100.94 C 79.56 101.53, 79.49 101.83, 79.53 102.29 C 79.56 102.74, 79.66 102.95, 80.00 103.21 C 80.34 103.47, 80.60 103.58, 81.23 103.59 C 81.85 103.59, 82.27 103.53, 83.14 103.23 C 84.01 102.93, 84.54 102.69, 85.59 102.09 C 86.64 101.50, 87.23 101.10, 88.41 100.26 C 89.58 99.42, 90.22 98.91, 91.46 97.88 C 92.71 96.86, 93.38 96.29, 94.63 95.13 C 95.87 93.96, 96.54 93.29, 97.70 92.05 C 98.86 90.80, 99.45 90.11, 100.41 88.90 C 101.37 87.69, 101.82 87.07, 102.52 85.98 C 103.21 84.88, 103.50 84.31, 103.90 83.41 C 104.29 82.50, 104.41 82.10, 104.49 81.46 C 104.56 80.81, 104.51 80.55, 104.29 80.19 C 104.07 79.83, 103.86 79.69, 103.38 79.64 C 102.89 79.59, 102.56 79.65, 101.88 79.96 C 101.21 80.27, 100.81 80.52, 100.00 81.21 C 99.19 81.90, 98.71 82.37, 97.83 83.40 C 96.94 84.42, 96.44 85.08, 95.57 86.33 C 94.69 87.58, 94.23 88.33, 93.46 89.66 C 92.68 90.99, 92.30 91.72, 91.69 92.98 C 91.09 94.24, 90.83 94.88, 90.44 95.95 C 90.05 97.02, 89.89 97.53, 89.75 98.33 C 89.62 99.14, 89.61 99.48, 89.77 99.97 C 89.92 100.47, 90.11 100.63, 90.54 100.81 C 90.97 100.99, 91.28 100.98, 91.92 100.86 C 92.56 100.73, 92.97 100.54, 93.74 100.18 C 94.51 99.82, 94.95 99.52, 95.76 99.07 C 96.56 98.62, 97.02 98.34, 97.75 97.93 C 98.48 97.52, 98.86 97.29, 99.40 97.03 C 99.94 96.77, 100.17 96.67, 100.46 96.61 C 100.75 96.55, 100.81 96.57, 100.84 96.71 C 100.87 96.85, 100.74 96.99, 100.61 97.32 C 100.47 97.65, 100.32 97.91, 100.15 98.37 C 99.98 98.82, 99.87 99.11, 99.77 99.59 C 99.68 100.07, 99.62 100.36, 99.68 100.77 C 99.75 101.18, 99.83 101.40, 100.10 101.66 C 100.38 101.92, 100.59 102.03, 101.06 102.09 C 101.54 102.15, 101.85 102.11, 102.49 101.95 C 103.12 101.79, 103.48 101.63, 104.24 101.30 C 104.99 100.96, 105.44 100.73, 106.26 100.28 C 107.08 99.82, 107.52 99.52, 108.36 99.01 C 109.19 98.50, 109.64 98.21, 110.43 97.72 C 111.23 97.24, 111.67 96.98, 112.33 96.58 C 113.00 96.17, 113.33 95.98, 113.78 95.70 C 114.23 95.42, 114.40 95.35, 114.59 95.16 C 114.78 94.98, 114.82 94.88, 114.71 94.79 C 114.60 94.70, 114.43 94.64, 114.03 94.73 C 113.64 94.83, 113.31 94.95, 112.72 95.25 C 112.13 95.55, 111.76 95.77, 111.09 96.24 C 110.41 96.70, 110.01 97.02, 109.34 97.58 C 108.68 98.15, 108.30 98.49, 107.78 99.05 C 107.25 99.62, 107.02 99.93, 106.71 100.41 C 106.41 100.89, 106.31 101.11, 106.26 101.46 C 106.22 101.81, 106.29 101.98, 106.51 102.18 C 106.72 102.37, 106.93 102.43, 107.34 102.42 C 107.76 102.40, 108.02 102.33, 108.58 102.11 C 109.13 101.88, 109.47 101.70, 110.10 101.29 C 110.74 100.88, 111.10 100.60, 111.75 100.08 C 112.39 99.55, 112.78 99.19, 113.31 98.66 C 113.85 98.13, 114.12 97.81, 114.42 97.42 C 114.71 97.04, 114.78 96.84, 114.79 96.73 C 114.80 96.61, 114.67 96.63, 114.46 96.85 C 114.26 97.07, 114.01 97.36, 113.75 97.83 C 113.50 98.31, 113.33 98.68, 113.18 99.24 C 113.03 99.79, 112.98 100.12, 113.01 100.59 C 113.04 101.07, 113.09 101.31, 113.34 101.62 C 113.60 101.92, 113.79 102.03, 114.27 102.13 C 114.75 102.23, 115.07 102.23, 115.74 102.11 C 116.42 101.99, 116.86 101.86, 117.66 101.55 C 118.46 101.23, 118.91 100.98, 119.74 100.53 C 120.57 100.08, 121.04 99.79, 121.81 99.28 C 122.58 98.77, 122.99 98.47, 123.59 97.97 C 124.20 97.47, 124.48 97.22, 124.83 96.79 C 125.18 96.36, 125.33 96.12, 125.36 95.83 C 125.38 95.55, 125.28 95.39, 124.97 95.35 C 124.65 95.31, 124.32 95.37, 123.80 95.62 C 123.28 95.87, 122.92 96.11, 122.36 96.59 C 121.80 97.07, 121.47 97.44, 121.01 98.02 C 120.54 98.61, 120.27 98.96, 120.03 99.52 C 119.79 100.08, 119.73 100.38, 119.81 100.81 C 119.89 101.25, 120.05 101.46, 120.44 101.70 C 120.84 101.94, 121.11 102.01, 121.78 102.00 C 122.45 101.99, 122.89 101.92, 123.78 101.64 C 124.67 101.37, 125.18 101.15, 126.22 100.62 C 127.27 100.08, 127.85 99.73, 129.00 98.98 C 130.15 98.24, 130.78 97.80, 131.97 96.88 C 133.16 95.96, 133.81 95.43, 134.94 94.39 C 136.08 93.36, 136.65 92.77, 137.63 91.71 C 138.62 90.64, 139.10 90.06, 139.87 89.07 C 140.63 88.07, 140.98 87.56, 141.46 86.72 C 141.94 85.87, 142.10 85.49, 142.27 84.82 C 142.45 84.16, 142.45 83.87, 142.32 83.41 C 142.20 82.95, 142.06 82.76, 141.66 82.53 C 141.27 82.31, 140.97 82.23, 140.36 82.28 C 139.75 82.33, 139.38 82.41, 138.61 82.77 C 137.84 83.13, 137.40 83.40, 136.52 84.09 C 135.64 84.78, 135.11 85.25, 134.19 86.22 C 133.26 87.20, 132.75 87.80, 131.90 88.96 C 131.06 90.12, 130.61 90.80, 129.95 92.04 C 129.30 93.28, 129.00 93.96, 128.63 95.16 C 128.25 96.36, 128.13 96.97, 128.08 98.04 C 128.03 99.10, 128.10 99.62, 128.38 100.49 C 128.65 101.35, 128.90 101.73, 129.45 102.35 C 130.01 102.97, 130.39 103.21, 131.17 103.58 C 131.95 103.95, 132.43 104.06, 133.35 104.19 C 134.26 104.32, 134.77 104.29, 135.74 104.23 C 136.71 104.17, 137.24 104.09, 138.19 103.89 C 139.14 103.69, 139.68 103.49, 140.49 103.22 C 141.29 102.94, 141.67 102.77, 142.21 102.52 C 142.75 102.28, 143.01 102.14, 143.20 102.00 C 143.38 101.85, 143.36 101.79, 143.12 101.80 C 142.89 101.81, 142.61 101.89, 142.04 102.04 C 141.47 102.19, 141.08 102.32, 140.28 102.55 C 139.48 102.78, 138.95 102.99, 138.04 103.19 C 137.12 103.39, 136.61 103.47, 135.69 103.53 C 134.77 103.60, 134.29 103.62, 133.44 103.51 C 132.59 103.41, 132.14 103.32, 131.43 103.01 C 130.72 102.70, 130.38 102.50, 129.88 101.96 C 129.38 101.43, 129.16 101.10, 128.92 100.32 C 128.69 99.54, 128.62 99.06, 128.69 98.07 C 128.76 97.08, 128.88 96.51, 129.25 95.37 C 129.63 94.22, 129.92 93.57, 130.57 92.37 C 131.22 91.18, 131.67 90.52, 132.50 89.40 C 133.34 88.28, 133.85 87.70, 134.75 86.76 C 135.64 85.82, 136.16 85.36, 137.00 84.70 C 137.83 84.03, 138.24 83.79, 138.93 83.43 C 139.62 83.07, 139.93 83.01, 140.44 82.91 C 140.94 82.81, 141.17 82.82, 141.46 82.94 C 141.76 83.06, 141.85 83.15, 141.91 83.50 C 141.97 83.85, 141.97 84.10, 141.77 84.68 C 141.58 85.26, 141.43 85.61, 140.94 86.41 C 140.46 87.21, 140.11 87.70, 139.35 88.66 C 138.58 89.63, 138.10 90.19, 137.13 91.24 C 136.15 92.28, 135.58 92.85, 134.46 93.86 C 133.34 94.88, 132.69 95.40, 131.52 96.30 C 130.35 97.20, 129.72 97.63, 128.60 98.36 C 127.47 99.08, 126.89 99.42, 125.88 99.93 C 124.87 100.44, 124.37 100.63, 123.54 100.91 C 122.72 101.19, 122.31 101.26, 121.73 101.33 C 121.16 101.41, 120.95 101.40, 120.66 101.28 C 120.36 101.17, 120.27 101.05, 120.26 100.76 C 120.25 100.46, 120.33 100.25, 120.60 99.81 C 120.88 99.37, 121.15 99.05, 121.62 98.54 C 122.09 98.04, 122.43 97.72, 122.94 97.26 C 123.46 96.81, 123.78 96.59, 124.19 96.27 C 124.61 95.96, 124.84 95.81, 125.01 95.70 C 125.19 95.60, 125.19 95.60, 125.07 95.73 C 124.95 95.87, 124.79 96.05, 124.41 96.39 C 124.03 96.73, 123.77 96.98, 123.17 97.44 C 122.57 97.89, 122.17 98.19, 121.41 98.67 C 120.65 99.15, 120.19 99.42, 119.38 99.85 C 118.57 100.28, 118.12 100.50, 117.36 100.81 C 116.61 101.11, 116.20 101.23, 115.59 101.38 C 114.99 101.53, 114.72 101.57, 114.35 101.56 C 113.97 101.55, 113.84 101.52, 113.70 101.33 C 113.55 101.14, 113.56 100.98, 113.63 100.62 C 113.69 100.25, 113.84 100.00, 114.03 99.51 C 114.22 99.03, 114.40 98.69, 114.57 98.19 C 114.74 97.70, 114.86 97.36, 114.89 97.04 C 114.91 96.72, 114.89 96.60, 114.71 96.60 C 114.53 96.59, 114.38 96.70, 113.99 97.01 C 113.61 97.31, 113.34 97.61, 112.79 98.10 C 112.24 98.59, 111.87 98.96, 111.24 99.46 C 110.62 99.96, 110.27 100.23, 109.67 100.62 C 109.07 101.00, 108.74 101.15, 108.25 101.40 C 107.77 101.64, 107.56 101.73, 107.25 101.83 C 106.94 101.93, 106.82 101.96, 106.71 101.91 C 106.59 101.85, 106.57 101.79, 106.67 101.56 C 106.77 101.33, 106.88 101.16, 107.20 100.76 C 107.53 100.36, 107.76 100.06, 108.29 99.55 C 108.82 99.04, 109.19 98.71, 109.84 98.18 C 110.49 97.66, 110.89 97.36, 111.55 96.93 C 112.21 96.50, 112.59 96.34, 113.14 96.02 C 113.69 95.69, 113.98 95.55, 114.29 95.33 C 114.61 95.10, 114.69 95.00, 114.72 94.91 C 114.74 94.81, 114.66 94.79, 114.42 94.85 C 114.17 94.91, 113.98 94.95, 113.49 95.18 C 113.01 95.41, 112.68 95.61, 112.00 96.00 C 111.31 96.38, 110.87 96.64, 110.06 97.12 C 109.26 97.59, 108.81 97.88, 107.98 98.38 C 107.14 98.88, 106.70 99.17, 105.89 99.61 C 105.08 100.05, 104.64 100.26, 103.92 100.58 C 103.20 100.91, 102.85 101.05, 102.28 101.23 C 101.72 101.41, 101.46 101.47, 101.09 101.49 C 100.72 101.50, 100.60 101.46, 100.43 101.31 C 100.27 101.16, 100.25 101.04, 100.27 100.73 C 100.29 100.42, 100.39 100.20, 100.52 99.78 C 100.65 99.36, 100.80 99.09, 100.94 98.63 C 101.08 98.17, 101.19 97.88, 101.23 97.47 C 101.27 97.05, 101.29 96.82, 101.13 96.57 C 100.97 96.31, 100.83 96.21, 100.43 96.19 C 100.04 96.17, 99.77 96.23, 99.16 96.45 C 98.55 96.67, 98.16 96.89, 97.40 97.28 C 96.64 97.66, 96.17 97.94, 95.37 98.37 C 94.57 98.81, 94.11 99.08, 93.39 99.45 C 92.66 99.83, 92.29 100.03, 91.75 100.22 C 91.20 100.42, 90.98 100.49, 90.67 100.42 C 90.35 100.35, 90.24 100.27, 90.17 99.87 C 90.09 99.47, 90.13 99.18, 90.30 98.44 C 90.47 97.70, 90.63 97.20, 91.03 96.17 C 91.44 95.14, 91.70 94.51, 92.31 93.28 C 92.92 92.05, 93.31 91.33, 94.09 90.03 C 94.86 88.72, 95.33 87.99, 96.20 86.77 C 97.06 85.55, 97.56 84.91, 98.42 83.91 C 99.29 82.92, 99.76 82.47, 100.51 81.80 C 101.27 81.13, 101.63 80.91, 102.20 80.57 C 102.77 80.23, 103.02 80.15, 103.37 80.11 C 103.73 80.06, 103.85 80.11, 103.98 80.37 C 104.10 80.62, 104.13 80.82, 104.00 81.38 C 103.88 81.94, 103.76 82.31, 103.36 83.16 C 102.96 84.02, 102.68 84.57, 101.98 85.63 C 101.28 86.69, 100.84 87.29, 99.88 88.48 C 98.92 89.66, 98.33 90.34, 97.18 91.57 C 96.03 92.79, 95.37 93.45, 94.13 94.60 C 92.90 95.75, 92.23 96.31, 91.00 97.32 C 89.76 98.33, 89.13 98.83, 87.97 99.65 C 86.81 100.46, 86.22 100.84, 85.21 101.41 C 84.19 101.99, 83.68 102.20, 82.88 102.51 C 82.08 102.82, 81.72 102.89, 81.19 102.96 C 80.66 103.03, 80.49 102.99, 80.25 102.85 C 80.01 102.72, 79.97 102.61, 79.99 102.28 C 80.02 101.95, 80.10 101.71, 80.37 101.21 C 80.64 100.71, 80.87 100.38, 81.32 99.79 C 81.78 99.20, 82.09 98.84, 82.66 98.25 C 83.22 97.66, 83.58 97.32, 84.15 96.83 C 84.72 96.33, 85.05 96.13, 85.50 95.78 C 85.96 95.42, 86.18 95.29, 86.43 95.04 C 86.68 94.79, 86.74 94.69, 86.77 94.52 C 86.80 94.35, 86.72 94.27, 86.58 94.18 C 86.44 94.10, 86.34 94.09, 86.08 94.10 C 85.82 94.12, 85.67 94.14, 85.28 94.26 C 84.89 94.37, 84.67 94.44, 84.13 94.68 C 83.60 94.91, 83.28 95.07, 82.61 95.42 C 81.93 95.78, 81.54 96.00, 80.76 96.45 C 79.97 96.90, 79.52 97.17, 78.70 97.68 C 77.88 98.20, 77.43 98.53, 76.64 99.03 C 75.85 99.53, 75.44 99.81, 74.75 100.21 C 74.06 100.60, 73.71 100.77, 73.19 101.02 C 72.66 101.26, 72.44 101.36, 72.11 101.43 C 71.79 101.49, 71.67 101.50, 71.56 101.34 C 71.45 101.18, 71.48 101.01, 71.57 100.61 C 71.66 100.21, 71.76 99.93, 72.01 99.34 C 72.26 98.75, 72.47 98.35, 72.82 97.67 C 73.16 96.99, 73.43 96.59, 73.74 95.94 C 74.04 95.29, 74.23 94.90, 74.33 94.43 C 74.44 93.97, 74.45 93.75, 74.26 93.61 C 74.06 93.47, 73.85 93.49, 73.34 93.73 C 72.82 93.98, 72.44 94.26, 71.69 94.83 C 70.93 95.40, 70.45 95.86, 69.55 96.60 C 68.65 97.33, 68.11 97.78, 67.18 98.51 C 66.26 99.24, 65.77 99.66, 64.94 100.27 C 64.10 100.88, 63.69 101.17, 63.00 101.57 C 62.31 101.96, 61.97 102.11, 61.48 102.25 C 60.99 102.39, 60.82 102.41, 60.55 102.27 C 60.29 102.13, 60.20 102.01, 60.15 101.53 C 60.10 101.06, 60.11 100.73, 60.31 99.91 C 60.51 99.10, 60.67 98.59, 61.13 97.48 C 61.60 96.37, 61.92 95.71, 62.63 94.37 C 63.34 93.02, 63.79 92.24, 64.68 90.77 C 65.58 89.30, 66.11 88.48, 67.12 87.01 C 68.12 85.55, 68.75 84.74, 69.71 83.43 C 70.67 82.12, 71.20 81.46, 71.91 80.48 C 72.62 79.49, 72.94 79.09, 73.28 78.48 C 73.62 77.88, 73.70 77.65, 73.63 77.44 C 73.55 77.23, 73.34 77.27, 72.91 77.44 C 72.48 77.61, 72.14 77.88, 71.48 78.28 C 70.81 78.68, 70.40 78.96, 69.60 79.43 C 68.81 79.90, 68.36 80.20, 67.51 80.63 C 66.67 81.05, 66.23 81.27, 65.38 81.57 C 64.54 81.86, 64.10 81.95, 63.30 82.09 C 62.50 82.22, 62.11 82.25, 61.40 82.23 C 60.68 82.21, 60.37 82.13, 59.73 81.98 C 59.09 81.83, 58.78 81.70, 58.20 81.48 C 57.62 81.26, 57.38 81.10, 56.82 80.90 C 56.27 80.69, 55.99 80.54, 55.43 80.45 C 54.86 80.36, 54.55 80.31, 54.00 80.43 C 53.46 80.55, 53.15 80.73, 52.72 81.05 C 52.28 81.37, 52.07 81.64, 51.84 82.02 C 51.61 82.41, 51.56 82.77, 51.56 82.99 C 51.56 83.21, 51.67 83.25, 51.84 83.13" style="stroke: black; fill: black;"/><path d="M 165.89,84.29 C 165.79 84.34, 165.77 84.38, 165.61 84.65 C 165.46 84.91, 165.38 85.08, 165.13 85.62 C 164.89 86.15, 164.76 86.49, 164.38 87.32 C 163.99 88.14, 163.76 88.66, 163.19 89.73 C 162.63 90.81, 162.25 91.45, 161.56 92.68 C 160.87 93.92, 160.48 94.63, 159.74 95.92 C 159.00 97.21, 158.56 97.91, 157.86 99.13 C 157.15 100.35, 156.77 100.99, 156.20 102.03 C 155.63 103.07, 155.36 103.56, 155.02 104.32 C 154.68 105.08, 154.57 105.39, 154.52 105.82 C 154.46 106.26, 154.52 106.40, 154.76 106.49 C 155.00 106.59, 155.22 106.56, 155.73 106.30 C 156.24 106.03, 156.59 105.79, 157.32 105.17 C 158.05 104.55, 158.47 104.10, 159.38 103.20 C 160.29 102.30, 160.82 101.74, 161.88 100.68 C 162.93 99.63, 163.54 99.04, 164.65 97.92 C 165.76 96.80, 166.34 96.20, 167.42 95.11 C 168.49 94.01, 169.04 93.48, 170.01 92.46 C 170.98 91.43, 171.43 90.90, 172.27 89.97 C 173.11 89.04, 173.50 88.61, 174.20 87.82 C 174.91 87.03, 175.23 86.65, 175.79 86.02 C 176.34 85.39, 176.60 85.13, 176.98 84.67 C 177.35 84.21, 177.53 83.98, 177.66 83.72 C 177.80 83.47, 177.78 83.38, 177.65 83.40 C 177.52 83.41, 177.39 83.48, 177.01 83.80 C 176.63 84.12, 176.38 84.37, 175.75 85.01 C 175.11 85.66, 174.74 86.10, 173.84 87.03 C 172.94 87.95, 172.37 88.52, 171.25 89.62 C 170.13 90.72, 169.44 91.34, 168.24 92.52 C 167.04 93.70, 166.37 94.36, 165.23 95.52 C 164.10 96.67, 163.50 97.27, 162.57 98.30 C 161.64 99.32, 161.22 99.82, 160.59 100.65 C 159.95 101.48, 159.68 101.83, 159.39 102.44 C 159.10 103.05, 159.05 103.30, 159.13 103.70 C 159.21 104.11, 159.37 104.27, 159.80 104.46 C 160.24 104.65, 160.56 104.68, 161.30 104.66 C 162.04 104.65, 162.53 104.57, 163.51 104.38 C 164.49 104.19, 165.07 104.03, 166.20 103.70 C 167.32 103.38, 167.95 103.17, 169.15 102.76 C 170.35 102.35, 171.00 102.13, 172.21 101.64 C 173.42 101.15, 174.04 100.88, 175.20 100.31 C 176.35 99.73, 176.92 99.42, 177.98 98.74 C 179.04 98.07, 179.55 97.71, 180.50 96.92 C 181.45 96.14, 181.91 95.68, 182.72 94.81 C 183.53 93.93, 183.91 93.45, 184.54 92.55 C 185.18 91.64, 185.45 91.17, 185.90 90.30 C 186.36 89.43, 186.55 88.96, 186.80 88.19 C 187.05 87.41, 187.09 87.06, 187.16 86.43 C 187.23 85.79, 187.23 85.51, 187.14 85.00 C 187.06 84.50, 186.97 84.26, 186.73 83.91 C 186.49 83.55, 186.32 83.38, 185.93 83.23 C 185.53 83.07, 185.28 83.01, 184.76 83.12 C 184.23 83.23, 183.95 83.35, 183.31 83.76 C 182.68 84.17, 182.33 84.45, 181.60 85.17 C 180.87 85.88, 180.44 86.34, 179.67 87.32 C 178.89 88.30, 178.47 88.89, 177.73 90.08 C 176.99 91.26, 176.60 91.94, 175.96 93.23 C 175.31 94.53, 175.00 95.26, 174.50 96.55 C 174.01 97.85, 173.79 98.53, 173.50 99.71 C 173.21 100.90, 173.11 101.48, 173.04 102.47 C 172.98 103.45, 172.98 103.90, 173.18 104.65 C 173.38 105.39, 173.57 105.72, 174.04 106.20 C 174.51 106.68, 174.82 106.86, 175.53 107.04 C 176.23 107.21, 176.67 107.19, 177.58 107.07 C 178.48 106.94, 179.04 106.77, 180.05 106.40 C 181.07 106.03, 181.63 105.75, 182.66 105.20 C 183.69 104.64, 184.25 104.27, 185.20 103.63 C 186.15 102.98, 186.65 102.61, 187.43 101.97 C 188.20 101.33, 188.56 100.99, 189.06 100.43 C 189.56 99.86, 189.75 99.59, 189.94 99.13 C 190.13 98.67, 190.13 98.45, 190.02 98.14 C 189.91 97.83, 189.75 97.69, 189.39 97.59 C 189.04 97.49, 188.76 97.50, 188.25 97.64 C 187.73 97.79, 187.40 97.95, 186.82 98.33 C 186.24 98.72, 185.90 99.01, 185.35 99.57 C 184.79 100.12, 184.47 100.47, 184.03 101.11 C 183.60 101.75, 183.39 102.12, 183.16 102.76 C 182.93 103.41, 182.86 103.76, 182.90 104.32 C 182.93 104.88, 183.02 105.17, 183.33 105.59 C 183.65 106.01, 183.93 106.20, 184.48 106.42 C 185.03 106.63, 185.36 106.68, 186.09 106.66 C 186.83 106.65, 187.28 106.57, 188.15 106.33 C 189.02 106.08, 189.53 105.86, 190.44 105.43 C 191.36 105.01, 191.85 104.72, 192.75 104.21 C 193.64 103.70, 194.17 103.37, 194.91 102.88 C 195.65 102.39, 196.01 102.09, 196.43 101.76 C 196.84 101.44, 196.94 101.30, 196.99 101.26 C 197.04 101.22, 196.90 101.31, 196.68 101.57 C 196.47 101.83, 196.19 102.08, 195.91 102.54 C 195.64 103.00, 195.45 103.36, 195.32 103.87 C 195.19 104.39, 195.17 104.72, 195.27 105.13 C 195.36 105.54, 195.46 105.73, 195.79 105.93 C 196.12 106.14, 196.37 106.19, 196.92 106.15 C 197.48 106.11, 197.85 106.01, 198.55 105.74 C 199.26 105.47, 199.66 105.23, 200.45 104.81 C 201.24 104.38, 201.68 104.07, 202.49 103.60 C 203.31 103.12, 203.76 102.85, 204.52 102.43 C 205.27 102.00, 205.66 101.78, 206.28 101.48 C 206.90 101.18, 207.18 101.06, 207.61 100.93 C 208.04 100.79, 208.19 100.79, 208.42 100.83 C 208.65 100.86, 208.68 100.92, 208.74 101.11 C 208.80 101.30, 208.75 101.46, 208.71 101.77 C 208.68 102.09, 208.62 102.30, 208.57 102.68 C 208.51 103.05, 208.46 103.27, 208.44 103.64 C 208.41 104.02, 208.35 104.24, 208.43 104.55 C 208.52 104.87, 208.59 105.06, 208.85 105.23 C 209.12 105.39, 209.29 105.43, 209.74 105.40 C 210.19 105.36, 210.48 105.27, 211.11 105.07 C 211.74 104.87, 212.14 104.69, 212.89 104.39 C 213.64 104.09, 214.11 103.85, 214.84 103.57 C 215.57 103.29, 215.97 103.14, 216.53 102.99 C 217.08 102.83, 217.31 102.78, 217.61 102.79 C 217.92 102.81, 217.97 102.86, 218.06 103.08 C 218.15 103.29, 218.08 103.50, 218.06 103.88 C 218.05 104.25, 217.99 104.50, 218.01 104.94 C 218.03 105.37, 218.02 105.65, 218.16 106.06 C 218.31 106.48, 218.41 106.70, 218.72 107.02 C 219.03 107.34, 219.22 107.48, 219.73 107.67 C 220.24 107.85, 220.56 107.92, 221.27 107.93 C 221.97 107.93, 222.49 107.84, 223.25 107.67 C 224.01 107.51, 224.44 107.35, 225.06 107.11 C 225.68 106.87, 226.11 106.65, 226.35 106.47 C 226.59 106.29, 226.56 106.21, 226.26 106.21 C 225.97 106.21, 225.51 106.34, 224.88 106.48 C 224.24 106.61, 223.82 106.73, 223.09 106.87 C 222.36 107.00, 221.88 107.11, 221.25 107.15 C 220.61 107.19, 220.34 107.17, 219.92 107.06 C 219.49 106.95, 219.36 106.85, 219.14 106.62 C 218.91 106.38, 218.87 106.22, 218.80 105.88 C 218.72 105.54, 218.78 105.32, 218.76 104.90 C 218.75 104.49, 218.79 104.24, 218.73 103.83 C 218.66 103.42, 218.65 103.15, 218.44 102.86 C 218.23 102.56, 218.09 102.45, 217.68 102.35 C 217.28 102.25, 217.01 102.26, 216.39 102.36 C 215.77 102.45, 215.34 102.58, 214.58 102.82 C 213.82 103.07, 213.32 103.30, 212.58 103.60 C 211.83 103.89, 211.42 104.07, 210.84 104.30 C 210.25 104.54, 209.98 104.66, 209.63 104.77 C 209.28 104.88, 209.19 104.92, 209.06 104.86 C 208.94 104.80, 208.97 104.71, 208.99 104.49 C 209.01 104.26, 209.10 104.08, 209.17 103.74 C 209.24 103.40, 209.30 103.17, 209.34 102.78 C 209.39 102.38, 209.43 102.14, 209.39 101.77 C 209.35 101.39, 209.32 101.18, 209.14 100.91 C 208.97 100.64, 208.85 100.52, 208.52 100.42 C 208.19 100.32, 207.98 100.30, 207.48 100.40 C 206.98 100.49, 206.68 100.62, 206.02 100.90 C 205.36 101.18, 204.96 101.39, 204.18 101.80 C 203.40 102.21, 202.94 102.48, 202.12 102.94 C 201.30 103.40, 200.85 103.69, 200.07 104.11 C 199.30 104.52, 198.90 104.73, 198.25 105.01 C 197.61 105.29, 197.28 105.40, 196.83 105.50 C 196.38 105.61, 196.21 105.63, 196.00 105.55 C 195.80 105.46, 195.78 105.35, 195.80 105.07 C 195.82 104.79, 195.94 104.56, 196.11 104.13 C 196.29 103.71, 196.49 103.41, 196.69 102.94 C 196.90 102.47, 197.07 102.14, 197.13 101.77 C 197.20 101.41, 197.22 101.20, 197.02 101.11 C 196.82 101.01, 196.65 101.07, 196.15 101.30 C 195.65 101.53, 195.28 101.82, 194.52 102.27 C 193.77 102.72, 193.25 103.06, 192.37 103.55 C 191.50 104.05, 191.01 104.34, 190.13 104.75 C 189.24 105.16, 188.76 105.36, 187.94 105.60 C 187.13 105.85, 186.71 105.92, 186.06 105.97 C 185.41 106.02, 185.14 105.99, 184.68 105.84 C 184.22 105.70, 184.00 105.57, 183.76 105.26 C 183.51 104.95, 183.45 104.75, 183.46 104.30 C 183.46 103.85, 183.53 103.55, 183.77 103.00 C 184.00 102.45, 184.20 102.11, 184.63 101.53 C 185.05 100.96, 185.37 100.64, 185.90 100.13 C 186.42 99.62, 186.75 99.36, 187.27 99.00 C 187.79 98.64, 188.08 98.50, 188.49 98.31 C 188.90 98.12, 189.09 98.06, 189.33 98.05 C 189.57 98.04, 189.66 98.06, 189.70 98.24 C 189.73 98.41, 189.73 98.56, 189.51 98.92 C 189.30 99.27, 189.12 99.51, 188.62 100.02 C 188.12 100.52, 187.77 100.84, 187.00 101.44 C 186.24 102.04, 185.74 102.41, 184.80 103.03 C 183.86 103.65, 183.31 104.01, 182.31 104.54 C 181.31 105.07, 180.76 105.33, 179.79 105.69 C 178.82 106.06, 178.29 106.21, 177.46 106.37 C 176.63 106.52, 176.26 106.58, 175.65 106.47 C 175.03 106.36, 174.79 106.23, 174.40 105.84 C 174.01 105.45, 173.85 105.18, 173.70 104.52 C 173.55 103.85, 173.56 103.44, 173.64 102.52 C 173.73 101.59, 173.84 101.02, 174.14 99.88 C 174.44 98.74, 174.66 98.07, 175.15 96.80 C 175.65 95.54, 175.96 94.82, 176.60 93.56 C 177.24 92.29, 177.63 91.63, 178.36 90.48 C 179.09 89.32, 179.52 88.75, 180.27 87.80 C 181.03 86.85, 181.46 86.41, 182.15 85.72 C 182.84 85.03, 183.17 84.75, 183.72 84.35 C 184.27 83.95, 184.50 83.84, 184.91 83.71 C 185.31 83.58, 185.47 83.62, 185.74 83.71 C 186.02 83.81, 186.12 83.92, 186.29 84.19 C 186.47 84.47, 186.54 84.65, 186.60 85.09 C 186.66 85.52, 186.67 85.78, 186.59 86.36 C 186.52 86.94, 186.47 87.27, 186.21 87.99 C 185.96 88.72, 185.77 89.16, 185.33 90.00 C 184.89 90.83, 184.63 91.29, 184.00 92.16 C 183.38 93.03, 183.01 93.50, 182.23 94.35 C 181.44 95.20, 181.00 95.65, 180.08 96.41 C 179.16 97.18, 178.66 97.53, 177.62 98.18 C 176.59 98.84, 176.03 99.14, 174.89 99.70 C 173.76 100.26, 173.15 100.51, 171.95 100.99 C 170.75 101.46, 170.11 101.67, 168.92 102.07 C 167.72 102.46, 167.10 102.66, 165.99 102.96 C 164.87 103.27, 164.30 103.39, 163.35 103.59 C 162.41 103.78, 161.93 103.86, 161.25 103.94 C 160.57 104.03, 160.30 104.08, 159.94 104.02 C 159.58 103.97, 159.48 103.92, 159.46 103.65 C 159.44 103.38, 159.51 103.20, 159.83 102.67 C 160.15 102.15, 160.41 101.81, 161.06 101.02 C 161.70 100.24, 162.12 99.75, 163.05 98.75 C 163.99 97.75, 164.59 97.16, 165.74 96.02 C 166.88 94.88, 167.55 94.23, 168.77 93.06 C 169.98 91.90, 170.67 91.28, 171.80 90.18 C 172.93 89.09, 173.52 88.52, 174.43 87.60 C 175.34 86.68, 175.74 86.26, 176.35 85.58 C 176.96 84.90, 177.20 84.64, 177.48 84.22 C 177.76 83.80, 177.79 83.63, 177.77 83.48 C 177.75 83.33, 177.63 83.31, 177.39 83.47 C 177.14 83.63, 176.95 83.85, 176.54 84.28 C 176.13 84.71, 175.90 84.99, 175.34 85.62 C 174.78 86.24, 174.44 86.62, 173.74 87.40 C 173.03 88.19, 172.64 88.62, 171.80 89.54 C 170.96 90.46, 170.50 90.98, 169.53 92.00 C 168.55 93.02, 168.00 93.54, 166.92 94.62 C 165.84 95.70, 165.25 96.30, 164.13 97.40 C 163.01 98.50, 162.40 99.09, 161.33 100.13 C 160.27 101.18, 159.72 101.73, 158.81 102.61 C 157.90 103.50, 157.46 103.92, 156.78 104.55 C 156.10 105.19, 155.79 105.45, 155.40 105.80 C 155.00 106.15, 154.90 106.27, 154.80 106.30 C 154.70 106.32, 154.74 106.26, 154.89 105.92 C 155.04 105.57, 155.17 105.29, 155.55 104.58 C 155.93 103.86, 156.20 103.37, 156.78 102.35 C 157.36 101.34, 157.75 100.70, 158.47 99.49 C 159.18 98.27, 159.62 97.58, 160.38 96.29 C 161.13 95.01, 161.53 94.30, 162.23 93.06 C 162.94 91.82, 163.32 91.19, 163.90 90.11 C 164.47 89.02, 164.72 88.50, 165.11 87.66 C 165.50 86.82, 165.64 86.47, 165.84 85.90 C 166.04 85.34, 166.06 85.13, 166.12 84.82 C 166.17 84.51, 166.15 84.46, 166.10 84.35 C 166.06 84.24, 165.99 84.23, 165.89 84.29" style="stroke: black; fill: black;"/></svg>