<svg xmlns="http://www.w3.org/2000/svg" id="canvas" viewBox="40.306 72.654 181.829 35.602"><path d="M 50.49,84.67 C 50.33 84.94, 50.26 85.33, 49.98 86.10 C 49.70 86.88, 49.50 87.41, 49.09 88.56 C 48.68 89.70, 48.41 90.47, 47.91 91.83 C 47.41 93.19, 47.11 93.97, 46.59 95.36 C 46.07 96.75, 45.77 97.50, 45.31 98.78 C 44.84 100.05, 44.61 100.72, 44.27 101.72 C 43.92 102.72, 43.76 103.16, 43.58 103.78 C 43.40 104.39, 43.34 104.63, 43.37 104.80 C 43.39 104.96, 43.51 104.94, 43.71 104.60 C 43.90 104.27, 44.05 103.91, 44.35 103.12 C 44.65 102.33, 44.82 101.79, 45.20 100.66 C 45.58 99.52, 45.77 98.83, 46.26 97.47 C 46.75 96.11, 47.04 95.31, 47.66 93.84 C 48.28 92.38, 48.65 91.59, 49.38 90.15 C 50.10 88.70, 50.51 87.96, 51.28 86.62 C 52.05 85.27, 52.48 84.58, 53.25 83.42 C 54.01 82.27, 54.42 81.71, 55.09 80.83 C 55.76 79.96, 56.11 79.58, 56.62 79.04 C 57.12 78.49, 57.35 78.26, 57.61 78.09 C 57.87 77.93, 57.93 77.94, 57.93 78.22 C 57.93 78.50, 57.85 78.78, 57.62 79.51 C 57.38 80.24, 57.18 80.79, 56.76 81.87 C 56.33 82.95, 56.02 83.67, 55.49 84.93 C 54.96 86.18, 54.62 86.92, 54.10 88.15 C 53.57 89.38, 53.26 90.06, 52.87 91.08 C 52.49 92.11, 52.31 92.61, 52.19 93.28 C 52.07 93.95, 52.09 94.21, 52.29 94.43 C 52.49 94.64, 52.71 94.63, 53.19 94.36 C 53.67 94.10, 53.99 93.80, 54.69 93.12 C 55.39 92.44, 55.80 91.93, 56.69 90.97 C 57.58 90.01, 58.11 89.38, 59.13 88.31 C 60.14 87.24, 60.74 86.64, 61.77 85.62 C 62.80 84.60, 63.35 84.06, 64.28 83.20 C 65.21 82.34, 65.72 81.90, 66.42 81.32 C 67.12 80.75, 67.42 80.53, 67.79 80.34 C 68.15 80.15, 68.21 80.16, 68.23 80.38 C 68.25 80.61, 68.16 80.83, 67.88 81.47 C 67.60 82.10, 67.35 82.55, 66.84 83.56 C 66.33 84.56, 65.98 85.22, 65.31 86.51 C 64.64 87.80, 64.24 88.57, 63.48 90.00 C 62.72 91.44, 62.26 92.25, 61.54 93.68 C 60.81 95.11, 60.41 95.87, 59.85 97.14 C 59.29 98.40, 59.02 99.03, 58.74 100.01 C 58.45 100.98, 58.37 101.40, 58.42 102.01 C 58.46 102.61, 58.60 102.82, 58.96 103.03 C 59.32 103.25, 59.62 103.25, 60.22 103.07 C 60.81 102.90, 61.17 102.66, 61.93 102.14 C 62.69 101.62, 63.14 101.23, 64.02 100.47 C 64.89 99.71, 65.41 99.20, 66.30 98.36 C 67.20 97.51, 67.71 96.96, 68.47 96.23 C 69.24 95.50, 69.65 95.13, 70.12 94.70 C 70.59 94.27, 70.72 94.12, 70.81 94.10 C 70.90 94.08, 70.78 94.22, 70.57 94.61 C 70.37 95.00, 70.11 95.38, 69.79 96.05 C 69.46 96.73, 69.25 97.22, 68.95 97.98 C 68.64 98.75, 68.46 99.20, 68.26 99.86 C 68.05 100.52, 67.99 100.81, 67.94 101.28 C 67.88 101.74, 67.92 101.92, 67.98 102.19 C 68.04 102.45, 68.12 102.49, 68.22 102.58 C 68.33 102.68, 68.42 102.66, 68.49 102.65 C 68.55 102.63, 68.55 102.55, 68.54 102.51 C 68.53 102.47, 68.45 102.50, 68.42 102.43 C 68.39 102.35, 68.38 102.36, 68.39 102.15 C 68.40 101.94, 68.38 101.79, 68.49 101.38 C 68.59 100.97, 68.67 100.71, 68.92 100.10 C 69.17 99.49, 69.42 99.07, 69.75 98.33 C 70.08 97.58, 70.31 97.10, 70.57 96.38 C 70.83 95.67, 71.00 95.24, 71.05 94.75 C 71.11 94.26, 71.10 94.03, 70.85 93.94 C 70.60 93.84, 70.37 93.91, 69.80 94.27 C 69.22 94.62, 68.78 94.99, 67.97 95.69 C 67.17 96.39, 66.66 96.94, 65.76 97.78 C 64.86 98.61, 64.34 99.11, 63.48 99.85 C 62.62 100.60, 62.17 100.97, 61.47 101.51 C 60.78 102.05, 60.48 102.30, 60.01 102.55 C 59.53 102.80, 59.34 102.87, 59.11 102.76 C 58.88 102.65, 58.81 102.52, 58.85 102.00 C 58.89 101.49, 58.98 101.11, 59.30 100.19 C 59.63 99.27, 59.90 98.65, 60.47 97.42 C 61.05 96.18, 61.45 95.42, 62.19 94.01 C 62.92 92.60, 63.39 91.79, 64.16 90.37 C 64.93 88.94, 65.34 88.17, 66.03 86.88 C 66.71 85.59, 67.09 84.96, 67.58 83.92 C 68.07 82.88, 68.30 82.40, 68.49 81.68 C 68.67 80.95, 68.66 80.63, 68.50 80.30 C 68.33 79.96, 68.15 79.88, 67.66 79.99 C 67.17 80.09, 66.82 80.29, 66.05 80.83 C 65.28 81.38, 64.78 81.84, 63.82 82.70 C 62.86 83.55, 62.31 84.09, 61.26 85.10 C 60.21 86.11, 59.60 86.71, 58.56 87.76 C 57.52 88.82, 56.96 89.43, 56.07 90.39 C 55.18 91.35, 54.75 91.85, 54.12 92.57 C 53.48 93.29, 53.24 93.63, 52.90 93.98 C 52.57 94.33, 52.48 94.43, 52.44 94.31 C 52.40 94.20, 52.47 94.01, 52.68 93.41 C 52.90 92.81, 53.09 92.33, 53.51 91.34 C 53.93 90.34, 54.24 89.67, 54.79 88.45 C 55.34 87.24, 55.69 86.51, 56.24 85.25 C 56.80 84.00, 57.15 83.29, 57.57 82.17 C 57.98 81.06, 58.17 80.49, 58.30 79.68 C 58.44 78.87, 58.42 78.52, 58.26 78.14 C 58.09 77.76, 57.90 77.68, 57.49 77.78 C 57.08 77.88, 56.80 78.11, 56.22 78.64 C 55.64 79.17, 55.30 79.56, 54.59 80.45 C 53.89 81.33, 53.47 81.89, 52.69 83.06 C 51.91 84.22, 51.48 84.92, 50.69 86.27 C 49.90 87.63, 49.49 88.37, 48.74 89.83 C 48.00 91.28, 47.62 92.08, 46.98 93.55 C 46.33 95.02, 46.04 95.83, 45.53 97.20 C 45.01 98.56, 44.78 99.25, 44.40 100.38 C 44.01 101.52, 43.81 102.06, 43.59 102.88 C 43.38 103.70, 43.33 104.09, 43.31 104.49 C 43.29 104.88, 43.35 104.97, 43.50 104.86 C 43.66 104.76, 43.80 104.55, 44.07 103.96 C 44.35 103.38, 44.49 102.93, 44.87 101.94 C 45.25 100.95, 45.48 100.28, 45.96 99.02 C 46.44 97.76, 46.74 97.01, 47.29 95.63 C 47.83 94.25, 48.16 93.48, 48.67 92.11 C 49.18 90.75, 49.46 89.98, 49.84 88.81 C 50.22 87.65, 50.38 87.09, 50.56 86.27 C 50.75 85.46, 50.77 85.05, 50.75 84.73 C 50.74 84.41, 50.64 84.39, 50.49 84.67" style="stroke: black; fill: black;"/><path d="M 76.04,86.21 C 76.14 86.15, 76.20 86.04, 76.18 85.95 C 76.16 85.87, 76.06 85.79, 75.95 85.78 C 75.85 85.76, 75.73 85.81, 75.65 85.87 C 75.57 85.93, 75.53 85.99, 75.53 86.06 C 75.54 86.13, 75.60 86.20, 75.70 86.23 C 75.80 86.26, 75.94 86.26, 76.04 86.21" style="stroke: black; fill: black;"/><path d="M 83.24,93.44 C 83.18 93.32, 83.08 93.17, 82.80 93.04 C 82.52 92.92, 82.33 92.80, 81.84 92.83 C 81.35 92.85, 81.03 92.86, 80.36 93.16 C 79.69 93.45, 79.27 93.71, 78.48 94.28 C 77.68 94.86, 77.20 95.25, 76.40 96.02 C 75.59 96.80, 75.14 97.28, 74.45 98.16 C 73.76 99.03, 73.38 99.55, 72.95 100.40 C 72.51 101.25, 72.34 101.72, 72.28 102.41 C 72.21 103.10, 72.29 103.43, 72.61 103.87 C 72.94 104.30, 73.20 104.49, 73.89 104.57 C 74.57 104.65, 75.04 104.59, 76.04 104.27 C 77.03 103.96, 77.63 103.68, 78.86 102.99 C 80.09 102.30, 80.78 101.85, 82.20 100.83 C 83.61 99.81, 84.41 99.17, 85.93 97.89 C 87.45 96.62, 88.29 95.88, 89.81 94.45 C 91.33 93.02, 92.15 92.21, 93.53 90.73 C 94.92 89.26, 95.61 88.46, 96.74 87.08 C 97.86 85.69, 98.37 85.00, 99.16 83.83 C 99.95 82.66, 100.27 82.11, 100.68 81.23 C 101.09 80.34, 101.19 79.96, 101.20 79.41 C 101.22 78.86, 101.10 78.64, 100.75 78.47 C 100.40 78.31, 100.10 78.30, 99.46 78.58 C 98.82 78.85, 98.40 79.12, 97.55 79.86 C 96.71 80.59, 96.22 81.13, 95.25 82.25 C 94.29 83.37, 93.74 84.09, 92.72 85.46 C 91.71 86.83, 91.15 87.65, 90.18 89.09 C 89.22 90.54, 88.71 91.33, 87.89 92.67 C 87.08 94.02, 86.68 94.72, 86.10 95.83 C 85.52 96.95, 85.27 97.47, 85.00 98.25 C 84.74 99.04, 84.69 99.36, 84.78 99.77 C 84.86 100.18, 85.02 100.27, 85.42 100.29 C 85.82 100.31, 86.13 100.19, 86.77 99.89 C 87.41 99.59, 87.88 99.27, 88.62 98.80 C 89.35 98.32, 89.78 97.94, 90.45 97.51 C 91.11 97.08, 91.47 96.86, 91.93 96.65 C 92.40 96.43, 92.58 96.39, 92.79 96.43 C 93.00 96.47, 92.98 96.57, 92.98 96.84 C 92.98 97.12, 92.85 97.36, 92.79 97.80 C 92.72 98.25, 92.62 98.57, 92.66 99.07 C 92.70 99.56, 92.74 99.86, 92.98 100.27 C 93.21 100.68, 93.37 100.89, 93.83 101.11 C 94.29 101.33, 94.59 101.41, 95.28 101.38 C 95.96 101.35, 96.41 101.24, 97.26 100.96 C 98.11 100.68, 98.60 100.45, 99.54 99.98 C 100.48 99.51, 100.99 99.19, 101.95 98.61 C 102.91 98.03, 103.44 97.68, 104.33 97.08 C 105.22 96.49, 105.69 96.15, 106.41 95.63 C 107.13 95.10, 107.48 94.85, 107.94 94.46 C 108.40 94.07, 108.55 93.91, 108.70 93.68 C 108.86 93.44, 108.83 93.35, 108.72 93.27 C 108.60 93.19, 108.45 93.17, 108.12 93.28 C 107.78 93.40, 107.52 93.51, 107.03 93.84 C 106.54 94.17, 106.23 94.42, 105.67 94.92 C 105.10 95.43, 104.77 95.77, 104.20 96.36 C 103.63 96.95, 103.30 97.29, 102.82 97.88 C 102.34 98.47, 102.09 98.80, 101.80 99.30 C 101.51 99.81, 101.42 100.07, 101.38 100.43 C 101.34 100.78, 101.41 100.92, 101.60 101.07 C 101.79 101.22, 101.95 101.25, 102.33 101.18 C 102.71 101.10, 102.99 101.02, 103.50 100.70 C 104.02 100.38, 104.32 100.09, 104.90 99.57 C 105.48 99.05, 105.79 98.73, 106.40 98.12 C 107.00 97.51, 107.37 97.14, 107.93 96.52 C 108.48 95.91, 108.81 95.54, 109.18 95.05 C 109.54 94.56, 109.67 94.32, 109.74 94.10 C 109.82 93.87, 109.75 93.82, 109.57 93.91 C 109.38 94.00, 109.14 94.17, 108.83 94.56 C 108.51 94.95, 108.27 95.31, 108.01 95.87 C 107.75 96.42, 107.61 96.79, 107.50 97.34 C 107.40 97.88, 107.37 98.17, 107.49 98.60 C 107.62 99.03, 107.76 99.22, 108.12 99.47 C 108.48 99.72, 108.72 99.80, 109.28 99.84 C 109.84 99.89, 110.20 99.86, 110.93 99.69 C 111.66 99.52, 112.12 99.34, 112.94 98.98 C 113.77 98.61, 114.24 98.35, 115.07 97.85 C 115.90 97.35, 116.36 97.03, 117.11 96.48 C 117.85 95.92, 118.25 95.59, 118.78 95.07 C 119.31 94.54, 119.54 94.25, 119.75 93.85 C 119.96 93.44, 119.99 93.23, 119.83 93.04 C 119.68 92.85, 119.46 92.80, 118.98 92.90 C 118.51 92.99, 118.10 93.13, 117.47 93.53 C 116.84 93.93, 116.44 94.30, 115.84 94.91 C 115.23 95.52, 114.88 95.91, 114.43 96.59 C 113.97 97.27, 113.72 97.65, 113.55 98.30 C 113.37 98.94, 113.36 99.29, 113.54 99.80 C 113.72 100.31, 113.89 100.57, 114.44 100.85 C 114.99 101.14, 115.40 101.24, 116.29 101.23 C 117.18 101.23, 117.72 101.16, 118.88 100.84 C 120.04 100.53, 120.73 100.26, 122.07 99.65 C 123.42 99.04, 124.18 98.66, 125.62 97.79 C 127.06 96.93, 127.86 96.40, 129.29 95.33 C 130.73 94.27, 131.47 93.64, 132.79 92.47 C 134.11 91.30, 134.77 90.66, 135.89 89.48 C 137.01 88.30, 137.57 87.67, 138.39 86.59 C 139.20 85.50, 139.51 84.94, 139.97 84.05 C 140.44 83.16, 140.61 82.79, 140.74 82.15 C 140.86 81.51, 140.83 81.22, 140.62 80.84 C 140.40 80.46, 140.18 80.30, 139.66 80.24 C 139.13 80.18, 138.75 80.23, 137.99 80.55 C 137.22 80.88, 136.75 81.16, 135.83 81.86 C 134.91 82.57, 134.37 83.07, 133.38 84.09 C 132.40 85.11, 131.84 85.74, 130.91 86.97 C 129.97 88.19, 129.47 88.91, 128.71 90.20 C 127.96 91.48, 127.60 92.18, 127.13 93.39 C 126.66 94.60, 126.48 95.22, 126.37 96.25 C 126.27 97.28, 126.32 97.77, 126.60 98.54 C 126.89 99.30, 127.15 99.62, 127.79 100.07 C 128.43 100.53, 128.87 100.68, 129.80 100.83 C 130.74 100.97, 131.35 100.94, 132.48 100.80 C 133.62 100.66, 134.34 100.43, 135.49 100.12 C 136.64 99.81, 137.32 99.59, 138.23 99.25 C 139.14 98.91, 139.71 98.64, 140.06 98.43 C 140.41 98.21, 140.38 98.14, 139.97 98.19 C 139.57 98.23, 138.98 98.42, 138.04 98.66 C 137.11 98.89, 136.43 99.08, 135.30 99.36 C 134.16 99.64, 133.46 99.88, 132.38 100.04 C 131.30 100.21, 130.74 100.26, 129.89 100.18 C 129.03 100.10, 128.65 100.00, 128.10 99.63 C 127.54 99.27, 127.31 99.03, 127.09 98.36 C 126.86 97.70, 126.82 97.27, 126.96 96.32 C 127.09 95.37, 127.27 94.78, 127.74 93.63 C 128.21 92.48, 128.57 91.80, 129.32 90.56 C 130.08 89.32, 130.58 88.61, 131.50 87.43 C 132.43 86.24, 132.98 85.62, 133.95 84.64 C 134.91 83.65, 135.45 83.18, 136.32 82.49 C 137.19 81.80, 137.63 81.55, 138.29 81.19 C 138.96 80.84, 139.24 80.76, 139.65 80.72 C 140.05 80.69, 140.18 80.74, 140.30 81.01 C 140.43 81.27, 140.44 81.48, 140.27 82.04 C 140.10 82.59, 139.95 82.94, 139.47 83.77 C 138.99 84.60, 138.69 85.15, 137.88 86.20 C 137.06 87.25, 136.51 87.86, 135.40 89.01 C 134.29 90.16, 133.63 90.80, 132.32 91.95 C 131.01 93.10, 130.28 93.71, 128.86 94.75 C 127.45 95.79, 126.66 96.31, 125.24 97.15 C 123.82 97.99, 123.07 98.37, 121.76 98.96 C 120.45 99.55, 119.77 99.79, 118.67 100.10 C 117.58 100.42, 117.07 100.49, 116.27 100.54 C 115.47 100.59, 115.12 100.54, 114.67 100.36 C 114.21 100.19, 114.11 100.03, 114.00 99.66 C 113.89 99.28, 113.92 99.01, 114.12 98.48 C 114.33 97.96, 114.56 97.62, 115.02 97.02 C 115.49 96.43, 115.84 96.07, 116.43 95.51 C 117.02 94.96, 117.41 94.65, 117.96 94.23 C 118.51 93.81, 118.84 93.64, 119.19 93.43 C 119.53 93.22, 119.66 93.14, 119.69 93.17 C 119.73 93.19, 119.64 93.29, 119.36 93.57 C 119.09 93.85, 118.86 94.11, 118.32 94.57 C 117.78 95.04, 117.40 95.36, 116.67 95.89 C 115.95 96.41, 115.49 96.73, 114.68 97.20 C 113.87 97.68, 113.42 97.91, 112.63 98.26 C 111.84 98.61, 111.41 98.76, 110.74 98.95 C 110.07 99.14, 109.76 99.18, 109.29 99.20 C 108.82 99.22, 108.65 99.19, 108.39 99.05 C 108.13 98.91, 108.04 98.79, 108.00 98.49 C 107.96 98.19, 108.02 97.97, 108.20 97.54 C 108.38 97.10, 108.62 96.81, 108.89 96.30 C 109.15 95.79, 109.34 95.42, 109.52 94.97 C 109.70 94.52, 109.80 94.26, 109.80 94.05 C 109.80 93.83, 109.75 93.78, 109.52 93.89 C 109.29 94.00, 109.09 94.17, 108.66 94.60 C 108.23 95.02, 107.93 95.41, 107.37 96.01 C 106.80 96.60, 106.45 96.98, 105.85 97.56 C 105.24 98.15, 104.91 98.46, 104.35 98.95 C 103.79 99.45, 103.49 99.70, 103.04 100.04 C 102.60 100.38, 102.40 100.48, 102.14 100.65 C 101.87 100.81, 101.81 100.87, 101.74 100.85 C 101.67 100.83, 101.68 100.78, 101.80 100.54 C 101.92 100.30, 102.02 100.09, 102.34 99.65 C 102.65 99.21, 102.89 98.90, 103.37 98.35 C 103.86 97.81, 104.19 97.47, 104.76 96.91 C 105.33 96.35, 105.67 96.03, 106.22 95.55 C 106.77 95.07, 107.09 94.88, 107.53 94.53 C 107.97 94.18, 108.19 94.02, 108.42 93.79 C 108.66 93.56, 108.71 93.45, 108.71 93.37 C 108.72 93.30, 108.68 93.30, 108.46 93.42 C 108.24 93.55, 108.08 93.67, 107.59 94.00 C 107.10 94.33, 106.75 94.58, 106.02 95.08 C 105.29 95.57, 104.83 95.90, 103.94 96.48 C 103.04 97.06, 102.52 97.41, 101.57 97.97 C 100.62 98.53, 100.11 98.84, 99.20 99.29 C 98.28 99.74, 97.81 99.95, 97.01 100.23 C 96.22 100.51, 95.81 100.62, 95.22 100.69 C 94.63 100.77, 94.40 100.74, 94.06 100.60 C 93.72 100.47, 93.63 100.32, 93.51 100.01 C 93.38 99.69, 93.43 99.47, 93.43 99.04 C 93.44 98.61, 93.54 98.31, 93.54 97.85 C 93.54 97.40, 93.56 97.10, 93.44 96.75 C 93.31 96.39, 93.23 96.22, 92.90 96.09 C 92.56 95.96, 92.31 95.94, 91.74 96.09 C 91.17 96.24, 90.77 96.43, 90.04 96.82 C 89.32 97.21, 88.84 97.55, 88.12 98.04 C 87.39 98.52, 86.95 98.87, 86.40 99.25 C 85.86 99.63, 85.64 99.85, 85.38 99.95 C 85.12 100.05, 85.06 100.04, 85.08 99.74 C 85.11 99.44, 85.19 99.17, 85.51 98.45 C 85.82 97.73, 86.07 97.22, 86.67 96.13 C 87.26 95.05, 87.66 94.36, 88.48 93.04 C 89.31 91.71, 89.82 90.93, 90.79 89.51 C 91.77 88.09, 92.33 87.28, 93.35 85.93 C 94.36 84.58, 94.92 83.88, 95.87 82.78 C 96.82 81.68, 97.32 81.18, 98.09 80.44 C 98.86 79.71, 99.23 79.44, 99.74 79.10 C 100.25 78.75, 100.43 78.68, 100.64 78.74 C 100.86 78.79, 100.91 78.92, 100.82 79.37 C 100.72 79.82, 100.62 80.16, 100.18 80.98 C 99.75 81.81, 99.44 82.34, 98.65 83.48 C 97.85 84.61, 97.35 85.30, 96.22 86.65 C 95.09 88.01, 94.40 88.80, 93.02 90.25 C 91.64 91.70, 90.83 92.50, 89.31 93.92 C 87.80 95.33, 86.96 96.06, 85.45 97.32 C 83.94 98.58, 83.14 99.21, 81.75 100.21 C 80.36 101.21, 79.67 101.64, 78.48 102.32 C 77.29 102.99, 76.71 103.24, 75.80 103.59 C 74.89 103.93, 74.49 104.02, 73.92 104.03 C 73.35 104.03, 73.17 103.93, 72.95 103.62 C 72.73 103.31, 72.69 103.07, 72.81 102.49 C 72.92 101.91, 73.10 101.49, 73.54 100.72 C 73.98 99.95, 74.35 99.45, 75.03 98.63 C 75.71 97.80, 76.16 97.33, 76.94 96.60 C 77.73 95.86, 78.20 95.48, 78.95 94.94 C 79.70 94.39, 80.09 94.14, 80.68 93.86 C 81.27 93.57, 81.51 93.56, 81.90 93.51 C 82.29 93.45, 82.40 93.54, 82.64 93.57 C 82.88 93.61, 82.99 93.71, 83.11 93.68 C 83.23 93.66, 83.30 93.57, 83.24 93.44" style="stroke: black; fill: black;"/><path d="M 164.80,82.17 C 164.70 82.28, 164.68 82.35, 164.50 82.76 C 164.32 83.17, 164.24 83.46, 163.90 84.22 C 163.56 84.97, 163.37 85.47, 162.80 86.55 C 162.24 87.63, 161.84 88.32, 161.07 89.62 C 160.29 90.93, 159.80 91.68, 158.92 93.07 C 158.03 94.45, 157.50 95.20, 156.62 96.53 C 155.74 97.87, 155.28 98.58, 154.51 99.75 C 153.75 100.93, 153.37 101.50, 152.81 102.40 C 152.24 103.31, 151.95 103.72, 151.68 104.27 C 151.40 104.83, 151.35 105.03, 151.43 105.17 C 151.51 105.32, 151.65 105.28, 152.07 105.00 C 152.50 104.72, 152.80 104.44, 153.55 103.79 C 154.30 103.13, 154.77 102.67, 155.82 101.73 C 156.87 100.79, 157.50 100.21, 158.80 99.07 C 160.11 97.94, 160.86 97.30, 162.35 96.06 C 163.84 94.82, 164.68 94.16, 166.26 92.87 C 167.85 91.58, 168.70 90.90, 170.28 89.62 C 171.86 88.33, 172.67 87.67, 174.17 86.47 C 175.67 85.26, 176.44 84.68, 177.79 83.60 C 179.13 82.51, 179.77 81.96, 180.88 81.02 C 181.99 80.09, 182.49 79.65, 183.34 78.91 C 184.20 78.17, 184.57 77.86, 185.14 77.32 C 185.70 76.79, 185.93 76.56, 186.17 76.24 C 186.41 75.92, 186.45 75.81, 186.36 75.72 C 186.26 75.63, 186.13 75.61, 185.69 75.80 C 185.26 75.98, 184.96 76.14, 184.16 76.67 C 183.36 77.19, 182.86 77.57, 181.69 78.42 C 180.53 79.26, 179.80 79.79, 178.35 80.88 C 176.90 81.98, 176.04 82.62, 174.42 83.88 C 172.81 85.15, 171.89 85.86, 170.26 87.20 C 168.63 88.55, 167.79 89.29, 166.26 90.60 C 164.73 91.91, 163.95 92.56, 162.61 93.73 C 161.27 94.90, 160.63 95.48, 159.56 96.45 C 158.48 97.43, 158.00 97.87, 157.24 98.60 C 156.48 99.33, 156.17 99.61, 155.76 100.10 C 155.35 100.59, 155.25 100.74, 155.19 101.04 C 155.14 101.35, 155.22 101.45, 155.48 101.63 C 155.74 101.80, 155.98 101.86, 156.50 101.93 C 157.03 101.99, 157.37 101.98, 158.11 101.96 C 158.85 101.93, 159.31 101.89, 160.23 101.80 C 161.14 101.71, 161.66 101.65, 162.70 101.49 C 163.73 101.33, 164.29 101.23, 165.40 101.00 C 166.50 100.77, 167.11 100.66, 168.24 100.34 C 169.36 100.01, 169.92 99.82, 171.04 99.36 C 172.16 98.90, 172.73 98.64, 173.82 98.04 C 174.91 97.44, 175.47 97.12, 176.49 96.38 C 177.50 95.64, 177.98 95.23, 178.90 94.34 C 179.82 93.46, 180.26 92.95, 181.08 91.96 C 181.90 90.96, 182.29 90.40, 182.99 89.37 C 183.69 88.34, 184.01 87.81, 184.58 86.81 C 185.15 85.81, 185.42 85.29, 185.84 84.38 C 186.27 83.47, 186.45 83.04, 186.73 82.27 C 187.00 81.49, 187.10 81.14, 187.22 80.49 C 187.34 79.84, 187.39 79.52, 187.33 79.02 C 187.27 78.52, 187.19 78.29, 186.92 77.99 C 186.65 77.70, 186.44 77.57, 185.99 77.54 C 185.54 77.50, 185.26 77.54, 184.65 77.81 C 184.04 78.08, 183.67 78.28, 182.92 78.88 C 182.18 79.47, 181.78 79.87, 180.91 80.78 C 180.04 81.69, 179.54 82.24, 178.58 83.43 C 177.62 84.61, 177.06 85.31, 176.12 86.70 C 175.18 88.08, 174.70 88.88, 173.87 90.35 C 173.04 91.82, 172.61 92.62, 171.96 94.04 C 171.32 95.46, 171.01 96.19, 170.64 97.44 C 170.27 98.69, 170.16 99.30, 170.10 100.30 C 170.03 101.31, 170.08 101.76, 170.32 102.45 C 170.56 103.14, 170.77 103.40, 171.31 103.76 C 171.85 104.11, 172.23 104.21, 173.01 104.22 C 173.79 104.23, 174.29 104.13, 175.22 103.82 C 176.15 103.51, 176.68 103.24, 177.68 102.68 C 178.67 102.12, 179.23 101.75, 180.18 101.03 C 181.14 100.32, 181.65 99.88, 182.44 99.12 C 183.24 98.37, 183.62 97.93, 184.16 97.25 C 184.69 96.57, 184.91 96.22, 185.11 95.72 C 185.32 95.21, 185.34 94.99, 185.20 94.71 C 185.07 94.43, 184.86 94.33, 184.43 94.32 C 184.00 94.32, 183.63 94.39, 183.03 94.68 C 182.43 94.97, 182.04 95.27, 181.42 95.78 C 180.81 96.29, 180.47 96.63, 179.97 97.24 C 179.46 97.84, 179.20 98.19, 178.92 98.81 C 178.64 99.42, 178.54 99.78, 178.56 100.33 C 178.59 100.87, 178.71 101.15, 179.05 101.52 C 179.39 101.89, 179.65 102.03, 180.26 102.18 C 180.86 102.34, 181.27 102.38, 182.09 102.29 C 182.91 102.20, 183.41 102.06, 184.35 101.75 C 185.30 101.43, 185.84 101.17, 186.81 100.71 C 187.78 100.25, 188.32 99.96, 189.21 99.43 C 190.11 98.91, 190.58 98.58, 191.28 98.09 C 191.98 97.61, 192.34 97.32, 192.73 97.00 C 193.12 96.68, 193.19 96.53, 193.22 96.49 C 193.25 96.46, 193.09 96.54, 192.87 96.81 C 192.65 97.07, 192.41 97.35, 192.10 97.83 C 191.79 98.31, 191.56 98.68, 191.33 99.23 C 191.10 99.78, 190.99 100.12, 190.95 100.60 C 190.92 101.08, 190.96 101.31, 191.16 101.63 C 191.37 101.94, 191.57 102.06, 191.99 102.16 C 192.42 102.27, 192.71 102.25, 193.31 102.16 C 193.90 102.07, 194.25 101.96, 194.96 101.73 C 195.67 101.49, 196.09 101.32, 196.86 100.98 C 197.63 100.64, 198.04 100.41, 198.80 100.03 C 199.57 99.65, 199.98 99.45, 200.69 99.09 C 201.40 98.74, 201.78 98.55, 202.37 98.26 C 202.95 97.97, 203.20 97.83, 203.62 97.67 C 204.03 97.51, 204.20 97.47, 204.44 97.46 C 204.68 97.44, 204.73 97.47, 204.82 97.58 C 204.90 97.69, 204.88 97.77, 204.87 97.99 C 204.86 98.21, 204.80 98.38, 204.76 98.69 C 204.72 99.00, 204.67 99.20, 204.68 99.54 C 204.69 99.87, 204.69 100.05, 204.82 100.34 C 204.94 100.63, 205.02 100.79, 205.30 100.97 C 205.58 101.15, 205.76 101.21, 206.21 101.24 C 206.66 101.27, 206.92 101.21, 207.55 101.11 C 208.18 101.01, 208.57 100.93, 209.36 100.74 C 210.14 100.56, 210.63 100.42, 211.48 100.20 C 212.32 99.99, 212.78 99.84, 213.59 99.68 C 214.41 99.51, 214.84 99.44, 215.54 99.37 C 216.24 99.30, 216.59 99.29, 217.10 99.33 C 217.62 99.37, 217.84 99.42, 218.12 99.58 C 218.41 99.73, 218.46 99.85, 218.53 100.12 C 218.60 100.39, 218.53 100.56, 218.46 100.93 C 218.40 101.31, 218.30 101.58, 218.21 102.00 C 218.11 102.42, 218.04 102.66, 217.98 103.01 C 217.92 103.36, 217.92 103.51, 217.91 103.75 C 217.91 103.98, 217.92 104.10, 217.97 104.19 C 218.01 104.29, 218.08 104.30, 218.15 104.23 C 218.23 104.16, 218.26 104.06, 218.36 103.85 C 218.46 103.64, 218.53 103.53, 218.65 103.19 C 218.78 102.85, 218.88 102.61, 218.97 102.17 C 219.07 101.73, 219.13 101.43, 219.13 100.99 C 219.14 100.55, 219.15 100.33, 219.00 99.96 C 218.85 99.60, 218.75 99.40, 218.38 99.16 C 218.02 98.92, 217.75 98.83, 217.17 98.74 C 216.60 98.65, 216.23 98.66, 215.49 98.71 C 214.75 98.75, 214.30 98.83, 213.46 98.97 C 212.62 99.12, 212.15 99.26, 211.30 99.45 C 210.44 99.65, 209.95 99.78, 209.18 99.96 C 208.40 100.13, 208.01 100.22, 207.41 100.35 C 206.82 100.47, 206.57 100.54, 206.20 100.58 C 205.83 100.61, 205.73 100.61, 205.56 100.53 C 205.39 100.44, 205.39 100.36, 205.36 100.17 C 205.33 99.98, 205.39 99.85, 205.42 99.57 C 205.46 99.28, 205.54 99.08, 205.54 98.74 C 205.55 98.41, 205.55 98.19, 205.46 97.90 C 205.37 97.61, 205.30 97.47, 205.10 97.30 C 204.90 97.12, 204.79 97.04, 204.45 97.01 C 204.12 96.97, 203.91 97.00, 203.44 97.13 C 202.97 97.26, 202.71 97.40, 202.09 97.67 C 201.48 97.94, 201.10 98.12, 200.38 98.47 C 199.66 98.81, 199.25 99.01, 198.49 99.38 C 197.72 99.74, 197.31 99.96, 196.55 100.28 C 195.80 100.60, 195.39 100.75, 194.71 100.98 C 194.03 101.21, 193.69 101.31, 193.17 101.44 C 192.64 101.57, 192.40 101.63, 192.08 101.62 C 191.75 101.61, 191.63 101.58, 191.53 101.40 C 191.42 101.22, 191.44 101.07, 191.55 100.71 C 191.67 100.35, 191.86 100.09, 192.12 99.60 C 192.39 99.11, 192.63 98.77, 192.87 98.25 C 193.12 97.74, 193.25 97.40, 193.33 97.02 C 193.40 96.64, 193.43 96.46, 193.25 96.37 C 193.07 96.28, 192.92 96.33, 192.45 96.56 C 191.98 96.79, 191.62 97.07, 190.90 97.52 C 190.18 97.96, 189.73 98.30, 188.85 98.80 C 187.97 99.31, 187.44 99.58, 186.49 100.02 C 185.54 100.47, 185.00 100.70, 184.10 101.01 C 183.20 101.32, 182.74 101.45, 182.00 101.56 C 181.25 101.67, 180.90 101.65, 180.38 101.57 C 179.86 101.49, 179.66 101.42, 179.41 101.17 C 179.15 100.93, 179.08 100.74, 179.10 100.32 C 179.12 99.91, 179.22 99.61, 179.50 99.10 C 179.79 98.58, 180.04 98.27, 180.53 97.73 C 181.02 97.20, 181.39 96.90, 181.96 96.43 C 182.54 95.96, 182.91 95.70, 183.42 95.38 C 183.92 95.05, 184.19 94.92, 184.50 94.81 C 184.81 94.69, 184.92 94.68, 184.96 94.81 C 184.99 94.95, 184.93 95.08, 184.67 95.49 C 184.41 95.90, 184.20 96.22, 183.66 96.84 C 183.12 97.46, 182.74 97.88, 181.96 98.60 C 181.18 99.32, 180.67 99.75, 179.74 100.43 C 178.81 101.12, 178.25 101.48, 177.30 102.01 C 176.35 102.55, 175.84 102.81, 174.98 103.13 C 174.12 103.44, 173.68 103.56, 173.00 103.60 C 172.32 103.64, 172.01 103.61, 171.56 103.35 C 171.12 103.09, 170.97 102.90, 170.79 102.30 C 170.61 101.70, 170.58 101.29, 170.67 100.35 C 170.77 99.42, 170.87 98.83, 171.25 97.63 C 171.63 96.42, 171.94 95.71, 172.58 94.33 C 173.23 92.94, 173.66 92.15, 174.49 90.71 C 175.32 89.26, 175.80 88.48, 176.73 87.12 C 177.67 85.76, 178.23 85.07, 179.17 83.91 C 180.12 82.75, 180.62 82.20, 181.47 81.31 C 182.31 80.42, 182.71 80.04, 183.40 79.47 C 184.10 78.89, 184.43 78.71, 184.95 78.43 C 185.47 78.14, 185.66 78.08, 185.99 78.05 C 186.31 78.02, 186.42 78.08, 186.58 78.28 C 186.74 78.49, 186.79 78.65, 186.80 79.06 C 186.81 79.48, 186.78 79.78, 186.65 80.38 C 186.52 80.98, 186.43 81.31, 186.16 82.06 C 185.88 82.81, 185.70 83.22, 185.27 84.10 C 184.84 84.99, 184.57 85.50, 184.01 86.47 C 183.44 87.45, 183.12 87.98, 182.43 88.99 C 181.73 90.00, 181.35 90.55, 180.55 91.52 C 179.75 92.50, 179.33 93.00, 178.43 93.86 C 177.54 94.72, 177.08 95.11, 176.09 95.83 C 175.10 96.55, 174.55 96.86, 173.49 97.44 C 172.43 98.02, 171.87 98.29, 170.78 98.73 C 169.69 99.18, 169.15 99.36, 168.05 99.67 C 166.94 99.98, 166.34 100.08, 165.25 100.30 C 164.16 100.51, 163.61 100.61, 162.59 100.75 C 161.57 100.90, 161.06 100.95, 160.15 101.03 C 159.25 101.10, 158.80 101.10, 158.07 101.14 C 157.35 101.18, 157.02 101.20, 156.52 101.23 C 156.03 101.26, 155.83 101.32, 155.62 101.30 C 155.40 101.28, 155.35 101.30, 155.45 101.13 C 155.55 100.95, 155.67 100.85, 156.11 100.43 C 156.55 100.01, 156.86 99.73, 157.63 99.03 C 158.41 98.32, 158.89 97.88, 159.98 96.92 C 161.06 95.96, 161.69 95.39, 163.04 94.23 C 164.39 93.07, 165.17 92.42, 166.71 91.13 C 168.24 89.83, 169.08 89.09, 170.72 87.76 C 172.35 86.43, 173.27 85.73, 174.89 84.48 C 176.51 83.23, 177.36 82.60, 178.82 81.52 C 180.28 80.44, 181.02 79.93, 182.18 79.09 C 183.34 78.25, 183.86 77.89, 184.62 77.32 C 185.38 76.75, 185.64 76.55, 185.98 76.24 C 186.32 75.93, 186.36 75.83, 186.34 75.77 C 186.32 75.71, 186.20 75.72, 185.89 75.95 C 185.57 76.18, 185.35 76.41, 184.77 76.91 C 184.18 77.41, 183.81 77.73, 182.96 78.46 C 182.10 79.18, 181.59 79.61, 180.47 80.54 C 179.36 81.47, 178.72 82.01, 177.37 83.09 C 176.03 84.17, 175.26 84.74, 173.75 85.94 C 172.25 87.14, 171.43 87.80, 169.84 89.07 C 168.26 90.35, 167.41 91.03, 165.81 92.31 C 164.22 93.60, 163.38 94.26, 161.88 95.49 C 160.37 96.73, 159.62 97.36, 158.30 98.49 C 156.98 99.61, 156.32 100.17, 155.26 101.11 C 154.20 102.05, 153.71 102.50, 153.00 103.20 C 152.30 103.91, 152.04 104.25, 151.74 104.65 C 151.45 105.04, 151.44 105.19, 151.51 105.17 C 151.58 105.14, 151.72 105.01, 152.09 104.53 C 152.45 104.04, 152.73 103.63, 153.33 102.75 C 153.93 101.87, 154.30 101.29, 155.08 100.12 C 155.85 98.96, 156.32 98.26, 157.21 96.93 C 158.10 95.60, 158.64 94.86, 159.55 93.48 C 160.46 92.10, 160.95 91.34, 161.75 90.04 C 162.55 88.73, 162.96 88.04, 163.54 86.93 C 164.11 85.83, 164.32 85.31, 164.62 84.51 C 164.92 83.71, 164.94 83.38, 165.03 82.92 C 165.11 82.46, 165.07 82.37, 165.02 82.22 C 164.98 82.07, 164.91 82.06, 164.80 82.17" style="stroke: black; fill: black;"/></svg>