<svg xmlns="http://www.w3.org/2000/svg" id="canvas" viewBox="42.725 77.554 185.790 26.941"><path d="M 45.95,95.78 C 46.14 95.68, 46.31 95.51, 46.67 95.13 C 47.04 94.75, 47.25 94.50, 47.78 93.88 C 48.32 93.26, 48.65 92.85, 49.33 92.04 C 50.02 91.24, 50.43 90.77, 51.22 89.86 C 52.01 88.96, 52.44 88.48, 53.29 87.52 C 54.14 86.57, 54.63 86.03, 55.46 85.09 C 56.30 84.15, 56.82 83.61, 57.48 82.83 C 58.14 82.05, 58.44 81.63, 58.76 81.20 C 59.09 80.77, 59.18 80.61, 59.12 80.68 C 59.06 80.74, 58.89 80.90, 58.46 81.53 C 58.03 82.16, 57.66 82.71, 56.97 83.84 C 56.28 84.97, 55.82 85.78, 55.01 87.20 C 54.19 88.62, 53.69 89.48, 52.89 90.95 C 52.09 92.41, 51.66 93.23, 51.00 94.54 C 50.34 95.85, 50.00 96.52, 49.58 97.51 C 49.17 98.50, 49.01 98.94, 48.91 99.48 C 48.81 100.02, 48.87 100.17, 49.07 100.22 C 49.27 100.27, 49.46 100.16, 49.90 99.72 C 50.34 99.29, 50.64 98.91, 51.27 98.07 C 51.91 97.23, 52.29 96.62, 53.08 95.53 C 53.88 94.43, 54.33 93.78, 55.24 92.59 C 56.16 91.40, 56.67 90.73, 57.65 89.58 C 58.62 88.42, 59.17 87.83, 60.12 86.81 C 61.07 85.79, 61.58 85.28, 62.40 84.49 C 63.23 83.69, 63.62 83.35, 64.25 82.84 C 64.88 82.33, 65.16 82.16, 65.54 81.96 C 65.93 81.75, 66.05 81.71, 66.16 81.83 C 66.27 81.95, 66.21 82.10, 66.09 82.58 C 65.97 83.05, 65.83 83.43, 65.56 84.22 C 65.29 85.00, 65.11 85.51, 64.75 86.50 C 64.38 87.48, 64.14 88.09, 63.73 89.14 C 63.31 90.19, 63.06 90.77, 62.67 91.75 C 62.28 92.74, 62.05 93.25, 61.76 94.07 C 61.47 94.89, 61.35 95.26, 61.21 95.85 C 61.08 96.44, 61.04 96.68, 61.08 97.01 C 61.12 97.35, 61.20 97.48, 61.40 97.53 C 61.61 97.59, 61.75 97.54, 62.10 97.28 C 62.45 97.03, 62.68 96.81, 63.16 96.27 C 63.65 95.74, 63.91 95.34, 64.53 94.60 C 65.15 93.85, 65.52 93.37, 66.24 92.55 C 66.97 91.72, 67.39 91.28, 68.16 90.48 C 68.93 89.68, 69.34 89.28, 70.10 88.56 C 70.86 87.84, 71.25 87.48, 71.96 86.90 C 72.68 86.31, 73.03 86.04, 73.66 85.61 C 74.28 85.19, 74.59 85.01, 75.09 84.76 C 75.59 84.51, 75.82 84.42, 76.17 84.36 C 76.51 84.30, 76.62 84.33, 76.82 84.47 C 77.01 84.60, 77.07 84.73, 77.15 85.05 C 77.24 85.38, 77.30 85.58, 77.25 86.10 C 77.21 86.63, 77.14 86.96, 76.93 87.69 C 76.72 88.42, 76.55 88.89, 76.23 89.76 C 75.90 90.64, 75.69 91.15, 75.29 92.07 C 74.89 92.99, 74.62 93.49, 74.22 94.38 C 73.81 95.27, 73.57 95.73, 73.26 96.52 C 72.95 97.30, 72.82 97.66, 72.65 98.29 C 72.49 98.91, 72.42 99.19, 72.43 99.64 C 72.44 100.09, 72.50 100.27, 72.70 100.53 C 72.91 100.80, 73.08 100.91, 73.45 100.97 C 73.83 101.03, 74.09 101.00, 74.58 100.82 C 75.08 100.65, 75.35 100.47, 75.94 100.09 C 76.53 99.71, 76.88 99.44, 77.53 98.91 C 78.18 98.38, 78.52 98.05, 79.19 97.45 C 79.85 96.84, 80.20 96.47, 80.85 95.89 C 81.50 95.30, 81.87 95.00, 82.44 94.51 C 83.02 94.02, 83.32 93.78, 83.72 93.44 C 84.12 93.10, 84.29 92.93, 84.45 92.81 C 84.62 92.69, 84.60 92.70, 84.54 92.83 C 84.48 92.97, 84.36 93.12, 84.17 93.48 C 83.98 93.84, 83.82 94.12, 83.59 94.64 C 83.36 95.17, 83.23 95.54, 83.03 96.11 C 82.83 96.69, 82.73 96.99, 82.61 97.50 C 82.48 98.01, 82.42 98.24, 82.41 98.65 C 82.40 99.06, 82.44 99.26, 82.55 99.54 C 82.67 99.82, 82.81 99.92, 82.98 100.04 C 83.14 100.17, 83.28 100.17, 83.38 100.16 C 83.48 100.14, 83.51 100.06, 83.49 99.97 C 83.46 99.89, 83.36 99.86, 83.27 99.74 C 83.18 99.62, 83.09 99.58, 83.04 99.37 C 82.98 99.16, 82.94 99.03, 82.98 98.69 C 83.03 98.36, 83.10 98.15, 83.26 97.69 C 83.42 97.23, 83.55 96.94, 83.78 96.40 C 84.01 95.86, 84.20 95.52, 84.41 94.98 C 84.62 94.44, 84.74 94.15, 84.83 93.71 C 84.92 93.28, 84.95 93.05, 84.85 92.80 C 84.75 92.55, 84.65 92.45, 84.35 92.48 C 84.05 92.51, 83.83 92.65, 83.36 92.95 C 82.89 93.25, 82.60 93.50, 82.01 93.98 C 81.41 94.46, 81.03 94.77, 80.37 95.35 C 79.71 95.93, 79.35 96.30, 78.69 96.89 C 78.02 97.48, 77.67 97.80, 77.04 98.31 C 76.40 98.82, 76.05 99.06, 75.50 99.44 C 74.96 99.81, 74.72 99.98, 74.31 100.18 C 73.91 100.39, 73.74 100.44, 73.48 100.46 C 73.23 100.48, 73.13 100.46, 73.02 100.29 C 72.91 100.13, 72.88 100.03, 72.92 99.66 C 72.96 99.29, 73.03 99.04, 73.22 98.46 C 73.41 97.88, 73.54 97.52, 73.87 96.77 C 74.20 96.01, 74.44 95.56, 74.86 94.68 C 75.28 93.80, 75.56 93.30, 75.98 92.37 C 76.40 91.44, 76.62 90.94, 76.96 90.04 C 77.30 89.14, 77.48 88.67, 77.68 87.89 C 77.88 87.11, 77.96 86.74, 77.96 86.13 C 77.96 85.53, 77.87 85.27, 77.69 84.86 C 77.51 84.45, 77.38 84.29, 77.06 84.09 C 76.75 83.90, 76.56 83.85, 76.11 83.87 C 75.67 83.90, 75.40 83.99, 74.84 84.23 C 74.28 84.48, 73.97 84.66, 73.31 85.10 C 72.65 85.53, 72.29 85.80, 71.55 86.39 C 70.82 86.98, 70.42 87.34, 69.64 88.06 C 68.86 88.78, 68.44 89.18, 67.64 89.97 C 66.85 90.77, 66.41 91.21, 65.66 92.03 C 64.91 92.84, 64.52 93.32, 63.89 94.06 C 63.26 94.81, 62.98 95.18, 62.53 95.74 C 62.09 96.30, 61.91 96.54, 61.68 96.86 C 61.46 97.18, 61.46 97.31, 61.42 97.34 C 61.38 97.38, 61.41 97.30, 61.47 97.03 C 61.54 96.76, 61.58 96.55, 61.76 96.00 C 61.94 95.46, 62.06 95.10, 62.37 94.30 C 62.69 93.51, 62.92 93.00, 63.33 92.02 C 63.74 91.05, 64.00 90.48, 64.44 89.43 C 64.87 88.38, 65.13 87.78, 65.51 86.79 C 65.89 85.79, 66.10 85.28, 66.33 84.46 C 66.57 83.63, 66.67 83.21, 66.67 82.64 C 66.68 82.08, 66.61 81.84, 66.35 81.63 C 66.09 81.41, 65.87 81.40, 65.38 81.55 C 64.89 81.70, 64.58 81.89, 63.90 82.38 C 63.21 82.87, 62.82 83.23, 61.96 84.02 C 61.11 84.81, 60.59 85.32, 59.62 86.34 C 58.65 87.36, 58.10 87.96, 57.10 89.11 C 56.11 90.27, 55.58 90.93, 54.64 92.12 C 53.70 93.30, 53.22 93.94, 52.41 95.03 C 51.60 96.12, 51.18 96.70, 50.59 97.57 C 49.99 98.44, 49.75 98.86, 49.45 99.37 C 49.15 99.88, 49.10 100.07, 49.07 100.11 C 49.04 100.16, 49.08 100.07, 49.30 99.60 C 49.51 99.13, 49.69 98.72, 50.15 97.77 C 50.62 96.82, 50.94 96.15, 51.62 94.86 C 52.30 93.57, 52.73 92.76, 53.55 91.32 C 54.38 89.87, 54.91 89.03, 55.74 87.63 C 56.58 86.22, 57.07 85.44, 57.73 84.28 C 58.38 83.12, 58.70 82.55, 59.00 81.82 C 59.30 81.10, 59.34 80.84, 59.23 80.65 C 59.12 80.47, 58.90 80.54, 58.45 80.88 C 57.99 81.22, 57.66 81.61, 56.96 82.36 C 56.25 83.10, 55.76 83.67, 54.92 84.60 C 54.08 85.54, 53.60 86.09, 52.75 87.04 C 51.90 87.99, 51.46 88.47, 50.66 89.36 C 49.85 90.26, 49.42 90.71, 48.72 91.52 C 48.03 92.33, 47.69 92.74, 47.19 93.39 C 46.68 94.04, 46.50 94.32, 46.21 94.76 C 45.92 95.21, 45.80 95.41, 45.74 95.61 C 45.69 95.81, 45.77 95.87, 45.95 95.78" style="stroke: black; fill: black;"/><path d="M 90.76,85.07 C 90.81 85.02, 90.78 84.96, 90.71 84.97 C 90.64 84.98, 90.46 85.07, 90.41 85.13 C 90.37 85.18, 90.40 85.24, 90.47 85.23 C 90.54 85.22, 90.72 85.12, 90.76 85.07" style="stroke: black; fill: black;"/><path d="M 95.74,92.63 C 95.66 92.55, 95.56 92.51, 95.34 92.48 C 95.12 92.46, 95.00 92.45, 94.65 92.52 C 94.30 92.58, 94.06 92.61, 93.58 92.81 C 93.10 93.02, 92.79 93.16, 92.23 93.54 C 91.67 93.93, 91.34 94.20, 90.77 94.72 C 90.20 95.25, 89.87 95.56, 89.39 96.16 C 88.92 96.75, 88.67 97.10, 88.39 97.71 C 88.10 98.31, 87.99 98.65, 87.96 99.19 C 87.94 99.73, 88.00 100.01, 88.26 100.41 C 88.53 100.80, 88.75 100.99, 89.30 101.16 C 89.84 101.33, 90.20 101.38, 90.98 101.25 C 91.76 101.12, 92.22 100.96, 93.19 100.52 C 94.16 100.07, 94.71 99.76, 95.84 99.02 C 96.98 98.28, 97.63 97.82, 98.88 96.82 C 100.13 95.82, 100.84 95.19, 102.09 94.02 C 103.35 92.84, 104.02 92.17, 105.14 90.95 C 106.27 89.74, 106.82 89.07, 107.73 87.94 C 108.64 86.80, 109.07 86.21, 109.69 85.26 C 110.31 84.32, 110.56 83.90, 110.85 83.22 C 111.14 82.55, 111.18 82.26, 111.13 81.88 C 111.08 81.50, 110.95 81.37, 110.61 81.33 C 110.26 81.30, 109.98 81.36, 109.43 81.71 C 108.88 82.05, 108.52 82.35, 107.85 83.05 C 107.18 83.76, 106.82 84.24, 106.08 85.22 C 105.35 86.21, 104.94 86.82, 104.18 87.98 C 103.42 89.13, 102.99 89.83, 102.29 91.00 C 101.58 92.17, 101.20 92.79, 100.64 93.83 C 100.07 94.86, 99.79 95.38, 99.47 96.18 C 99.14 96.98, 99.03 97.36, 99.03 97.84 C 99.03 98.33, 99.14 98.49, 99.47 98.61 C 99.80 98.74, 100.08 98.69, 100.67 98.49 C 101.27 98.29, 101.67 98.06, 102.44 97.64 C 103.21 97.21, 103.70 96.86, 104.52 96.36 C 105.34 95.86, 105.82 95.52, 106.53 95.12 C 107.24 94.73, 107.58 94.55, 108.07 94.38 C 108.56 94.20, 108.73 94.19, 108.97 94.24 C 109.21 94.30, 109.25 94.41, 109.27 94.67 C 109.29 94.92, 109.19 95.11, 109.09 95.51 C 108.98 95.90, 108.85 96.15, 108.73 96.63 C 108.62 97.10, 108.52 97.42, 108.50 97.89 C 108.48 98.36, 108.47 98.63, 108.63 98.98 C 108.78 99.34, 108.89 99.50, 109.28 99.64 C 109.66 99.79, 109.92 99.81, 110.55 99.71 C 111.17 99.62, 111.57 99.47, 112.39 99.15 C 113.21 98.82, 113.69 98.56, 114.64 98.08 C 115.58 97.61, 116.13 97.31, 117.11 96.79 C 118.09 96.27, 118.63 95.97, 119.53 95.47 C 120.43 94.97, 120.87 94.70, 121.61 94.28 C 122.34 93.87, 122.70 93.69, 123.21 93.38 C 123.71 93.07, 123.92 92.96, 124.14 92.73 C 124.37 92.50, 124.39 92.39, 124.34 92.22 C 124.28 92.06, 124.19 91.95, 123.86 91.88 C 123.53 91.82, 123.25 91.80, 122.69 91.88 C 122.12 91.97, 121.77 92.04, 121.04 92.31 C 120.32 92.58, 119.89 92.79, 119.08 93.24 C 118.27 93.68, 117.77 93.97, 116.98 94.52 C 116.19 95.07, 115.78 95.42, 115.14 96.00 C 114.50 96.59, 114.18 96.92, 113.78 97.45 C 113.38 97.99, 113.23 98.26, 113.13 98.68 C 113.03 99.11, 113.06 99.33, 113.27 99.58 C 113.48 99.83, 113.73 99.92, 114.20 99.93 C 114.67 99.94, 114.99 99.85, 115.64 99.62 C 116.28 99.39, 116.67 99.19, 117.43 98.80 C 118.18 98.41, 118.63 98.15, 119.42 97.66 C 120.21 97.17, 120.65 96.86, 121.37 96.36 C 122.09 95.86, 122.51 95.57, 123.01 95.17 C 123.51 94.76, 123.71 94.54, 123.88 94.34 C 124.05 94.14, 123.99 94.07, 123.84 94.15 C 123.69 94.23, 123.43 94.38, 123.11 94.74 C 122.80 95.10, 122.53 95.43, 122.25 95.96 C 121.96 96.48, 121.82 96.85, 121.71 97.37 C 121.60 97.89, 121.56 98.18, 121.69 98.57 C 121.83 98.96, 121.98 99.15, 122.38 99.31 C 122.79 99.48, 123.08 99.50, 123.71 99.41 C 124.34 99.33, 124.73 99.20, 125.56 98.90 C 126.38 98.59, 126.89 98.37, 127.82 97.89 C 128.76 97.40, 129.31 97.07, 130.24 96.49 C 131.18 95.92, 131.68 95.58, 132.50 95.01 C 133.32 94.45, 133.74 94.15, 134.34 93.66 C 134.93 93.18, 135.17 92.95, 135.46 92.59 C 135.75 92.22, 135.82 92.05, 135.78 91.83 C 135.74 91.61, 135.60 91.50, 135.27 91.47 C 134.94 91.45, 134.64 91.49, 134.11 91.73 C 133.58 91.97, 133.23 92.20, 132.62 92.67 C 132.01 93.14, 131.61 93.48, 131.06 94.08 C 130.51 94.68, 130.23 95.06, 129.87 95.68 C 129.52 96.30, 129.36 96.62, 129.30 97.17 C 129.23 97.73, 129.28 98.04, 129.55 98.46 C 129.81 98.88, 130.04 99.09, 130.62 99.29 C 131.20 99.48, 131.61 99.53, 132.45 99.43 C 133.29 99.33, 133.78 99.18, 134.82 98.78 C 135.85 98.38, 136.44 98.10, 137.63 97.43 C 138.81 96.76, 139.48 96.34, 140.73 95.44 C 141.97 94.55, 142.63 93.99, 143.84 92.96 C 145.06 91.92, 145.72 91.34, 146.82 90.27 C 147.91 89.19, 148.45 88.60, 149.32 87.60 C 150.18 86.59, 150.57 86.08, 151.14 85.22 C 151.72 84.36, 151.94 83.95, 152.20 83.29 C 152.46 82.62, 152.51 82.34, 152.44 81.90 C 152.37 81.46, 152.23 81.26, 151.86 81.11 C 151.50 80.95, 151.22 80.93, 150.62 81.11 C 150.02 81.30, 149.64 81.50, 148.86 82.03 C 148.09 82.57, 147.62 82.94, 146.74 83.78 C 145.86 84.63, 145.34 85.18, 144.47 86.25 C 143.59 87.32, 143.10 87.97, 142.37 89.14 C 141.63 90.31, 141.27 90.95, 140.80 92.10 C 140.32 93.25, 140.12 93.86, 139.99 94.89 C 139.86 95.91, 139.89 96.41, 140.15 97.22 C 140.40 98.04, 140.63 98.43, 141.26 98.96 C 141.89 99.50, 142.33 99.67, 143.30 99.89 C 144.28 100.12, 144.92 100.14, 146.13 100.08 C 147.33 100.03, 148.15 99.86, 149.35 99.62 C 150.54 99.38, 151.20 99.17, 152.12 98.88 C 153.04 98.59, 153.59 98.35, 153.94 98.16 C 154.28 97.97, 154.26 97.90, 153.87 97.93 C 153.47 97.96, 152.91 98.12, 151.97 98.30 C 151.04 98.49, 150.38 98.64, 149.20 98.84 C 148.02 99.04, 147.23 99.23, 146.08 99.31 C 144.93 99.39, 144.33 99.40, 143.43 99.25 C 142.54 99.10, 142.16 98.98, 141.60 98.54 C 141.05 98.11, 140.87 97.78, 140.66 97.07 C 140.46 96.36, 140.44 95.91, 140.59 94.97 C 140.74 94.03, 140.94 93.45, 141.41 92.36 C 141.89 91.27, 142.25 90.65, 142.98 89.53 C 143.71 88.40, 144.20 87.78, 145.07 86.74 C 145.93 85.71, 146.44 85.18, 147.29 84.36 C 148.14 83.55, 148.61 83.20, 149.32 82.67 C 150.03 82.14, 150.36 81.94, 150.85 81.70 C 151.33 81.46, 151.50 81.41, 151.75 81.46 C 151.99 81.51, 152.06 81.61, 152.05 81.93 C 152.05 82.25, 152.00 82.49, 151.72 83.08 C 151.44 83.67, 151.22 84.06, 150.64 84.88 C 150.06 85.69, 149.68 86.18, 148.82 87.16 C 147.96 88.14, 147.42 88.71, 146.33 89.76 C 145.24 90.81, 144.58 91.39, 143.37 92.40 C 142.17 93.42, 141.52 93.96, 140.29 94.83 C 139.07 95.71, 138.40 96.12, 137.25 96.77 C 136.10 97.42, 135.52 97.69, 134.54 98.08 C 133.56 98.47, 133.10 98.60, 132.34 98.72 C 131.59 98.85, 131.26 98.83, 130.78 98.72 C 130.30 98.62, 130.14 98.50, 129.95 98.20 C 129.76 97.91, 129.73 97.69, 129.83 97.26 C 129.93 96.83, 130.09 96.57, 130.45 96.04 C 130.81 95.52, 131.10 95.17, 131.64 94.64 C 132.18 94.10, 132.59 93.81, 133.16 93.37 C 133.73 92.92, 134.05 92.71, 134.49 92.41 C 134.93 92.12, 135.13 92.02, 135.35 91.90 C 135.56 91.78, 135.62 91.76, 135.57 91.83 C 135.53 91.90, 135.43 91.98, 135.11 92.24 C 134.78 92.51, 134.55 92.73, 133.95 93.16 C 133.35 93.60, 132.92 93.89, 132.10 94.42 C 131.28 94.96, 130.78 95.29, 129.85 95.84 C 128.92 96.39, 128.38 96.71, 127.46 97.17 C 126.55 97.64, 126.04 97.84, 125.27 98.16 C 124.49 98.47, 124.13 98.60, 123.58 98.74 C 123.03 98.88, 122.82 98.91, 122.53 98.86 C 122.25 98.80, 122.17 98.71, 122.15 98.46 C 122.12 98.21, 122.21 98.00, 122.40 97.59 C 122.59 97.19, 122.82 96.91, 123.09 96.42 C 123.37 95.93, 123.57 95.59, 123.76 95.16 C 123.95 94.73, 124.07 94.48, 124.06 94.25 C 124.05 94.03, 123.99 93.98, 123.71 94.05 C 123.42 94.12, 123.17 94.27, 122.62 94.61 C 122.07 94.95, 121.67 95.27, 120.95 95.74 C 120.23 96.22, 119.79 96.53, 119.01 97.00 C 118.24 97.47, 117.79 97.71, 117.06 98.09 C 116.33 98.46, 115.94 98.64, 115.36 98.89 C 114.77 99.15, 114.51 99.26, 114.14 99.35 C 113.77 99.44, 113.63 99.46, 113.51 99.35 C 113.40 99.25, 113.41 99.13, 113.56 98.83 C 113.71 98.53, 113.85 98.31, 114.26 97.85 C 114.67 97.39, 114.98 97.07, 115.61 96.53 C 116.24 95.99, 116.64 95.66, 117.41 95.15 C 118.18 94.63, 118.67 94.35, 119.45 93.93 C 120.24 93.52, 120.65 93.33, 121.33 93.08 C 122.01 92.82, 122.34 92.81, 122.85 92.68 C 123.36 92.55, 123.61 92.50, 123.87 92.42 C 124.14 92.34, 124.19 92.28, 124.19 92.28 C 124.20 92.27, 124.16 92.29, 123.90 92.41 C 123.65 92.52, 123.45 92.61, 122.92 92.88 C 122.40 93.14, 122.04 93.32, 121.30 93.71 C 120.55 94.11, 120.10 94.37, 119.19 94.85 C 118.28 95.33, 117.74 95.62, 116.76 96.12 C 115.78 96.63, 115.22 96.91, 114.28 97.37 C 113.35 97.82, 112.86 98.06, 112.08 98.40 C 111.30 98.73, 110.93 98.88, 110.40 99.03 C 109.86 99.19, 109.67 99.23, 109.41 99.19 C 109.15 99.15, 109.14 99.07, 109.10 98.83 C 109.06 98.59, 109.14 98.38, 109.23 97.97 C 109.31 97.57, 109.40 97.28, 109.51 96.82 C 109.62 96.35, 109.73 96.08, 109.77 95.63 C 109.81 95.17, 109.85 94.90, 109.71 94.55 C 109.58 94.20, 109.45 94.02, 109.10 93.88 C 108.74 93.74, 108.51 93.72, 107.93 93.84 C 107.35 93.96, 106.96 94.11, 106.19 94.47 C 105.43 94.83, 104.93 95.16, 104.09 95.64 C 103.25 96.12, 102.75 96.44, 102.01 96.89 C 101.28 97.35, 100.90 97.61, 100.41 97.90 C 99.92 98.19, 99.73 98.34, 99.54 98.34 C 99.34 98.33, 99.32 98.27, 99.42 97.89 C 99.52 97.51, 99.66 97.17, 100.02 96.42 C 100.38 95.68, 100.65 95.17, 101.23 94.16 C 101.81 93.15, 102.19 92.54, 102.91 91.38 C 103.63 90.23, 104.06 89.54, 104.82 88.41 C 105.59 87.27, 106.00 86.66, 106.72 85.70 C 107.45 84.74, 107.83 84.30, 108.45 83.61 C 109.07 82.92, 109.39 82.64, 109.83 82.24 C 110.27 81.85, 110.43 81.72, 110.63 81.64 C 110.82 81.57, 110.86 81.61, 110.81 81.88 C 110.76 82.15, 110.70 82.39, 110.38 83.00 C 110.05 83.60, 109.81 84.01, 109.18 84.92 C 108.54 85.82, 108.12 86.40, 107.21 87.51 C 106.30 88.62, 105.75 89.28, 104.63 90.47 C 103.50 91.66, 102.83 92.32, 101.59 93.47 C 100.34 94.62, 99.63 95.25, 98.40 96.23 C 97.17 97.21, 96.53 97.66, 95.43 98.38 C 94.32 99.10, 93.79 99.40, 92.87 99.83 C 91.95 100.27, 91.53 100.41, 90.85 100.57 C 90.16 100.72, 89.88 100.70, 89.44 100.61 C 89.01 100.52, 88.85 100.41, 88.67 100.13 C 88.48 99.86, 88.45 99.67, 88.51 99.24 C 88.58 98.82, 88.69 98.53, 88.97 98.01 C 89.26 97.48, 89.50 97.16, 89.96 96.62 C 90.42 96.08, 90.75 95.79, 91.29 95.30 C 91.84 94.82, 92.16 94.56, 92.68 94.20 C 93.20 93.85, 93.46 93.73, 93.89 93.53 C 94.33 93.33, 94.53 93.32, 94.83 93.22 C 95.13 93.12, 95.21 93.10, 95.39 93.03 C 95.57 92.97, 95.66 92.98, 95.73 92.90 C 95.80 92.82, 95.82 92.71, 95.74 92.63" style="stroke: black; fill: black;"/><path d="M 176.79,83.28 C 176.71 83.36, 176.74 83.43, 176.59 83.74 C 176.43 84.06, 176.34 84.25, 176.01 84.85 C 175.68 85.44, 175.48 85.84, 174.95 86.72 C 174.42 87.59, 174.07 88.14, 173.36 89.20 C 172.64 90.27, 172.18 90.92, 171.37 92.05 C 170.56 93.19, 170.10 93.79, 169.29 94.90 C 168.48 96.00, 168.00 96.59, 167.31 97.58 C 166.61 98.57, 166.26 99.12, 165.80 99.85 C 165.35 100.58, 165.16 100.94, 165.04 101.24 C 164.92 101.54, 164.97 101.57, 165.21 101.35 C 165.45 101.14, 165.70 100.82, 166.23 100.14 C 166.76 99.47, 167.14 98.95, 167.86 97.99 C 168.59 97.02, 169.04 96.42, 169.87 95.33 C 170.69 94.23, 171.15 93.63, 171.98 92.50 C 172.82 91.36, 173.29 90.73, 174.02 89.65 C 174.76 88.58, 175.12 88.03, 175.65 87.14 C 176.19 86.25, 176.41 85.84, 176.70 85.19 C 176.99 84.54, 177.03 84.28, 177.10 83.90 C 177.16 83.53, 177.08 83.43, 177.02 83.30 C 176.96 83.18, 176.88 83.19, 176.79 83.28" style="stroke: black; fill: black;"/><path d="M 181.16,84.75 C 181.03 84.80, 181.03 84.86, 180.63 85.12 C 180.24 85.38, 179.97 85.51, 179.18 86.05 C 178.40 86.60, 177.89 87.01, 176.71 87.83 C 175.53 88.65, 174.74 89.20, 173.29 90.15 C 171.84 91.09, 170.93 91.60, 169.46 92.54 C 167.98 93.48, 167.16 94.02, 165.93 94.85 C 164.69 95.68, 164.10 96.06, 163.27 96.69 C 162.44 97.32, 162.10 97.57, 161.77 98.01 C 161.44 98.44, 161.43 98.62, 161.62 98.88 C 161.81 99.13, 162.08 99.20, 162.72 99.27 C 163.37 99.34, 163.81 99.33, 164.84 99.22 C 165.86 99.11, 166.54 98.97, 167.84 98.72 C 169.14 98.46, 169.91 98.26, 171.34 97.93 C 172.77 97.60, 173.54 97.42, 174.98 97.06 C 176.42 96.70, 177.18 96.53, 178.54 96.12 C 179.89 95.72, 180.57 95.51, 181.75 95.03 C 182.94 94.56, 183.50 94.29, 184.47 93.74 C 185.44 93.19, 185.86 92.89, 186.59 92.27 C 187.31 91.65, 187.60 91.31, 188.09 90.64 C 188.59 89.98, 188.76 89.60, 189.05 88.94 C 189.34 88.28, 189.41 87.95, 189.54 87.34 C 189.68 86.74, 189.70 86.45, 189.71 85.92 C 189.71 85.39, 189.69 85.13, 189.58 84.71 C 189.47 84.29, 189.38 84.11, 189.16 83.82 C 188.93 83.54, 188.77 83.37, 188.47 83.29 C 188.17 83.21, 187.80 83.33, 187.64 83.43 C 187.48 83.52, 187.52 83.68, 187.66 83.75 C 187.80 83.82, 188.10 83.71, 188.32 83.79 C 188.53 83.87, 188.59 83.92, 188.73 84.13 C 188.86 84.34, 188.93 84.49, 189.01 84.85 C 189.08 85.20, 189.11 85.44, 189.10 85.91 C 189.09 86.38, 189.07 86.66, 188.95 87.21 C 188.83 87.77, 188.76 88.08, 188.49 88.69 C 188.22 89.31, 188.07 89.66, 187.61 90.28 C 187.15 90.91, 186.89 91.22, 186.20 91.81 C 185.51 92.39, 185.10 92.67, 184.16 93.20 C 183.22 93.72, 182.68 93.97, 181.51 94.43 C 180.35 94.88, 179.69 95.08, 178.35 95.47 C 177.00 95.86, 176.24 96.02, 174.81 96.37 C 173.37 96.71, 172.60 96.88, 171.17 97.18 C 169.75 97.49, 168.97 97.67, 167.68 97.91 C 166.39 98.16, 165.72 98.25, 164.73 98.41 C 163.74 98.56, 163.32 98.62, 162.73 98.68 C 162.13 98.75, 161.91 98.81, 161.77 98.72 C 161.64 98.64, 161.68 98.58, 162.05 98.27 C 162.42 97.96, 162.76 97.74, 163.61 97.17 C 164.46 96.61, 165.05 96.23, 166.30 95.43 C 167.55 94.63, 168.38 94.11, 169.86 93.19 C 171.35 92.27, 172.27 91.77, 173.73 90.84 C 175.20 89.90, 176.01 89.36, 177.20 88.53 C 178.38 87.70, 178.89 87.28, 179.65 86.68 C 180.40 86.08, 180.64 85.88, 180.97 85.52 C 181.31 85.16, 181.29 85.05, 181.33 84.90 C 181.36 84.74, 181.30 84.71, 181.16 84.75" style="stroke: black; fill: black;"/><path d="M 181.99,86.20 C 181.67 86.36, 181.27 86.64, 180.59 87.21 C 179.91 87.78, 179.40 88.19, 178.59 89.05 C 177.79 89.91, 177.27 90.52, 176.57 91.51 C 175.88 92.50, 175.59 93.02, 175.12 94.00 C 174.64 94.97, 174.43 95.53, 174.19 96.40 C 173.95 97.27, 173.87 97.67, 173.91 98.35 C 173.96 99.03, 174.06 99.34, 174.42 99.78 C 174.78 100.22, 175.07 100.38, 175.72 100.56 C 176.36 100.73, 176.76 100.72, 177.65 100.64 C 178.54 100.55, 179.09 100.44, 180.17 100.11 C 181.25 99.79, 181.88 99.53, 183.04 98.99 C 184.19 98.45, 184.84 98.07, 185.94 97.43 C 187.05 96.78, 187.64 96.41, 188.56 95.78 C 189.49 95.14, 189.94 94.81, 190.57 94.25 C 191.20 93.68, 191.45 93.40, 191.69 92.96 C 191.94 92.51, 191.93 92.30, 191.78 92.02 C 191.63 91.74, 191.44 91.61, 190.96 91.56 C 190.49 91.51, 190.11 91.54, 189.40 91.79 C 188.69 92.03, 188.20 92.29, 187.42 92.80 C 186.64 93.32, 186.18 93.69, 185.49 94.36 C 184.80 95.03, 184.43 95.43, 183.96 96.14 C 183.48 96.84, 183.26 97.25, 183.11 97.88 C 182.95 98.52, 182.97 98.84, 183.18 99.30 C 183.39 99.77, 183.63 99.98, 184.18 100.22 C 184.73 100.47, 185.12 100.55, 185.95 100.54 C 186.78 100.53, 187.32 100.42, 188.33 100.16 C 189.35 99.90, 189.94 99.67, 191.04 99.25 C 192.14 98.82, 192.75 98.54, 193.82 98.04 C 194.89 97.53, 195.47 97.21, 196.38 96.74 C 197.28 96.26, 197.76 95.99, 198.36 95.66 C 198.95 95.33, 199.18 95.17, 199.37 95.08 C 199.55 94.99, 199.45 95.02, 199.26 95.22 C 199.07 95.41, 198.80 95.61, 198.41 96.04 C 198.02 96.47, 197.67 96.82, 197.31 97.36 C 196.94 97.91, 196.73 98.30, 196.58 98.78 C 196.43 99.26, 196.41 99.48, 196.56 99.75 C 196.70 100.03, 196.87 100.11, 197.31 100.14 C 197.75 100.17, 198.07 100.09, 198.74 99.88 C 199.40 99.67, 199.81 99.48, 200.64 99.08 C 201.48 98.68, 201.98 98.39, 202.90 97.89 C 203.82 97.39, 204.34 97.06, 205.23 96.60 C 206.12 96.13, 206.60 95.89, 207.35 95.55 C 208.10 95.22, 208.51 95.08, 209.00 94.92 C 209.50 94.77, 209.66 94.72, 209.83 94.78 C 210.00 94.84, 209.94 94.94, 209.84 95.20 C 209.73 95.46, 209.56 95.69, 209.31 96.09 C 209.06 96.49, 208.83 96.76, 208.59 97.21 C 208.36 97.66, 208.20 97.96, 208.15 98.34 C 208.10 98.71, 208.11 98.94, 208.34 99.11 C 208.57 99.27, 208.78 99.27, 209.30 99.15 C 209.83 99.03, 210.19 98.85, 210.95 98.51 C 211.72 98.18, 212.22 97.90, 213.14 97.47 C 214.06 97.04, 214.63 96.73, 215.55 96.36 C 216.48 95.99, 216.97 95.80, 217.76 95.61 C 218.56 95.41, 218.94 95.38, 219.51 95.39 C 220.09 95.39, 220.32 95.46, 220.64 95.64 C 220.95 95.82, 221.00 95.95, 221.09 96.28 C 221.17 96.62, 221.10 96.85, 221.05 97.31 C 221.00 97.76, 220.91 98.06, 220.82 98.55 C 220.74 99.04, 220.65 99.31, 220.63 99.76 C 220.61 100.22, 220.59 100.50, 220.73 100.82 C 220.86 101.14, 221.03 101.24, 221.29 101.37 C 221.56 101.50, 221.79 101.52, 222.05 101.47 C 222.32 101.42, 222.54 101.26, 222.63 101.13 C 222.72 101.00, 222.64 100.86, 222.51 100.82 C 222.38 100.77, 222.18 100.87, 221.97 100.89 C 221.76 100.91, 221.63 100.97, 221.48 100.92 C 221.33 100.88, 221.24 100.89, 221.21 100.67 C 221.18 100.45, 221.24 100.23, 221.32 99.84 C 221.39 99.44, 221.49 99.18, 221.57 98.68 C 221.66 98.18, 221.74 97.86, 221.74 97.35 C 221.74 96.83, 221.74 96.54, 221.57 96.12 C 221.40 95.70, 221.29 95.50, 220.88 95.24 C 220.47 94.98, 220.19 94.88, 219.54 94.83 C 218.89 94.77, 218.47 94.79, 217.62 94.96 C 216.77 95.12, 216.25 95.30, 215.28 95.65 C 214.31 95.99, 213.72 96.27, 212.78 96.69 C 211.85 97.11, 211.33 97.37, 210.59 97.74 C 209.85 98.11, 209.51 98.33, 209.09 98.55 C 208.66 98.78, 208.55 98.87, 208.47 98.87 C 208.38 98.87, 208.49 98.77, 208.67 98.53 C 208.85 98.29, 209.08 98.07, 209.35 97.65 C 209.62 97.24, 209.83 96.92, 210.02 96.44 C 210.21 95.96, 210.31 95.66, 210.30 95.27 C 210.29 94.88, 210.25 94.68, 209.97 94.51 C 209.69 94.33, 209.46 94.31, 208.88 94.39 C 208.31 94.47, 207.89 94.62, 207.09 94.93 C 206.29 95.24, 205.81 95.49, 204.90 95.94 C 203.98 96.39, 203.45 96.71, 202.53 97.19 C 201.61 97.67, 201.10 97.94, 200.29 98.33 C 199.47 98.73, 199.07 98.90, 198.47 99.16 C 197.86 99.42, 197.59 99.54, 197.26 99.64 C 196.93 99.73, 196.84 99.75, 196.82 99.64 C 196.80 99.52, 196.91 99.41, 197.16 99.07 C 197.42 98.73, 197.72 98.43, 198.10 97.92 C 198.48 97.41, 198.77 97.03, 199.07 96.52 C 199.37 96.01, 199.54 95.71, 199.59 95.37 C 199.65 95.03, 199.64 94.88, 199.35 94.82 C 199.05 94.77, 198.76 94.86, 198.10 95.11 C 197.44 95.37, 196.98 95.66, 196.06 96.11 C 195.14 96.56, 194.57 96.88, 193.51 97.36 C 192.45 97.85, 191.84 98.12, 190.76 98.53 C 189.69 98.94, 189.11 99.14, 188.14 99.40 C 187.17 99.66, 186.67 99.76, 185.91 99.82 C 185.16 99.88, 184.84 99.85, 184.38 99.71 C 183.91 99.57, 183.73 99.45, 183.59 99.12 C 183.44 98.79, 183.46 98.56, 183.65 98.04 C 183.83 97.53, 184.04 97.16, 184.52 96.54 C 184.99 95.91, 185.34 95.53, 186.02 94.93 C 186.69 94.32, 187.14 93.99, 187.88 93.51 C 188.62 93.03, 189.08 92.81, 189.70 92.53 C 190.32 92.24, 190.61 92.16, 190.98 92.08 C 191.35 92.01, 191.47 92.02, 191.54 92.15 C 191.61 92.27, 191.60 92.38, 191.32 92.71 C 191.05 93.03, 190.80 93.28, 190.17 93.78 C 189.54 94.28, 189.10 94.60, 188.18 95.21 C 187.26 95.81, 186.67 96.17, 185.58 96.79 C 184.48 97.40, 183.84 97.78, 182.72 98.29 C 181.59 98.81, 180.97 99.05, 179.94 99.38 C 178.91 99.70, 178.38 99.80, 177.56 99.92 C 176.74 100.05, 176.39 100.08, 175.84 99.99 C 175.28 99.90, 175.06 99.81, 174.79 99.48 C 174.51 99.15, 174.44 98.91, 174.44 98.33 C 174.45 97.75, 174.54 97.38, 174.79 96.57 C 175.05 95.77, 175.25 95.23, 175.73 94.30 C 176.21 93.38, 176.51 92.91, 177.20 91.97 C 177.89 91.02, 178.43 90.45, 179.19 89.59 C 179.96 88.73, 180.43 88.31, 181.03 87.67 C 181.63 87.03, 181.98 86.71, 182.18 86.41 C 182.37 86.12, 182.31 86.04, 181.99 86.20" style="stroke: black; fill: black;"/><path d="M 224.55,100.17 C 224.74 100.19, 225.26 100.05, 225.42 99.94 C 225.58 99.83, 225.53 99.64, 225.34 99.62 C 225.15 99.60, 224.62 99.73, 224.46 99.85 C 224.31 99.96, 224.36 100.15, 224.55 100.17" style="stroke: black; fill: black;"/></svg>