<svg xmlns="http://www.w3.org/2000/svg" id="canvas" viewBox="38.927 75.935 187.919 35.292"><path d="M 51.38,81.68 C 51.24 81.86, 51.16 82.08, 50.95 82.65 C 50.73 83.22, 50.64 83.59, 50.30 84.53 C 49.95 85.48, 49.73 86.08, 49.23 87.36 C 48.74 88.65, 48.44 89.43, 47.81 90.96 C 47.18 92.49, 46.78 93.36, 46.10 95.01 C 45.42 96.66, 45.02 97.61, 44.41 99.22 C 43.80 100.84, 43.49 101.73, 43.05 103.10 C 42.60 104.48, 42.39 105.14, 42.17 106.09 C 41.95 107.04, 41.90 107.44, 41.94 107.85 C 41.97 108.26, 42.09 108.30, 42.36 108.14 C 42.62 107.97, 42.84 107.72, 43.25 107.01 C 43.67 106.31, 43.90 105.75, 44.44 104.61 C 44.98 103.47, 45.26 102.73, 45.95 101.32 C 46.63 99.91, 47.05 99.09, 47.87 97.56 C 48.69 96.02, 49.14 95.16, 50.05 93.64 C 50.95 92.12, 51.45 91.35, 52.40 89.94 C 53.34 88.54, 53.86 87.85, 54.78 86.63 C 55.70 85.40, 56.16 84.81, 57.01 83.80 C 57.85 82.80, 58.28 82.35, 59.02 81.61 C 59.76 80.88, 60.13 80.57, 60.71 80.12 C 61.29 79.66, 61.58 79.48, 61.92 79.35 C 62.26 79.21, 62.36 79.20, 62.42 79.44 C 62.48 79.68, 62.40 79.90, 62.22 80.56 C 62.04 81.21, 61.87 81.68, 61.51 82.70 C 61.15 83.72, 60.92 84.40, 60.43 85.66 C 59.95 86.92, 59.65 87.68, 59.09 89.01 C 58.52 90.35, 58.17 91.09, 57.61 92.35 C 57.05 93.61, 56.73 94.26, 56.30 95.31 C 55.87 96.36, 55.65 96.87, 55.46 97.60 C 55.27 98.33, 55.22 98.65, 55.33 98.97 C 55.44 99.30, 55.60 99.35, 56.01 99.22 C 56.42 99.09, 56.73 98.87, 57.39 98.31 C 58.05 97.75, 58.43 97.32, 59.32 96.43 C 60.21 95.55, 60.77 94.97, 61.83 93.88 C 62.89 92.80, 63.53 92.14, 64.63 91.02 C 65.74 89.90, 66.36 89.28, 67.38 88.28 C 68.39 87.29, 68.91 86.79, 69.71 86.03 C 70.51 85.26, 70.85 84.92, 71.37 84.48 C 71.90 84.03, 72.08 83.89, 72.33 83.78 C 72.57 83.67, 72.60 83.70, 72.60 83.94 C 72.59 84.17, 72.49 84.37, 72.30 84.94 C 72.10 85.51, 71.96 85.92, 71.61 86.80 C 71.26 87.68, 71.05 88.24, 70.57 89.35 C 70.08 90.45, 69.75 91.10, 69.19 92.31 C 68.63 93.52, 68.28 94.21, 67.75 95.39 C 67.22 96.57, 66.94 97.17, 66.54 98.22 C 66.15 99.26, 65.97 99.78, 65.78 100.63 C 65.58 101.48, 65.54 101.86, 65.57 102.45 C 65.60 103.05, 65.66 103.27, 65.92 103.59 C 66.19 103.91, 66.41 104.03, 66.88 104.06 C 67.35 104.08, 67.65 103.99, 68.26 103.70 C 68.88 103.41, 69.21 103.14, 69.94 102.59 C 70.67 102.05, 71.11 101.66, 71.91 100.97 C 72.71 100.28, 73.18 99.83, 73.93 99.13 C 74.69 98.44, 75.12 98.02, 75.69 97.47 C 76.27 96.93, 76.54 96.66, 76.82 96.40 C 77.11 96.14, 77.14 96.10, 77.12 96.17 C 77.09 96.25, 76.93 96.41, 76.70 96.80 C 76.47 97.19, 76.24 97.53, 75.98 98.14 C 75.71 98.75, 75.55 99.18, 75.36 99.83 C 75.16 100.48, 75.06 100.84, 75.01 101.40 C 74.96 101.96, 74.96 102.22, 75.09 102.63 C 75.22 103.05, 75.35 103.24, 75.68 103.46 C 76.01 103.67, 76.25 103.72, 76.75 103.72 C 77.26 103.72, 77.57 103.66, 78.23 103.45 C 78.88 103.24, 79.27 103.07, 80.04 102.66 C 80.82 102.25, 81.24 101.96, 82.09 101.40 C 82.93 100.85, 83.37 100.51, 84.25 99.90 C 85.14 99.28, 85.64 98.93, 86.51 98.34 C 87.38 97.75, 87.84 97.43, 88.61 96.95 C 89.38 96.46, 89.76 96.25, 90.36 95.91 C 90.97 95.56, 91.25 95.43, 91.64 95.24 C 92.03 95.05, 92.17 95.05, 92.33 94.98 C 92.50 94.90, 92.51 94.88, 92.48 94.85 C 92.46 94.81, 92.40 94.75, 92.19 94.80 C 91.99 94.86, 91.82 94.93, 91.47 95.11 C 91.12 95.29, 90.91 95.40, 90.43 95.71 C 89.95 96.03, 89.63 96.23, 89.05 96.68 C 88.47 97.14, 88.11 97.43, 87.52 98.00 C 86.93 98.57, 86.62 98.91, 86.09 99.54 C 85.56 100.17, 85.27 100.53, 84.88 101.16 C 84.50 101.79, 84.32 102.12, 84.17 102.69 C 84.01 103.26, 84.00 103.56, 84.11 104.02 C 84.22 104.48, 84.35 104.71, 84.71 104.97 C 85.08 105.24, 85.35 105.34, 85.95 105.34 C 86.55 105.35, 86.91 105.29, 87.70 105.02 C 88.50 104.74, 88.96 104.51, 89.93 103.95 C 90.90 103.39, 91.47 103.02, 92.55 102.23 C 93.63 101.44, 94.23 100.96, 95.35 99.98 C 96.47 99.01, 97.07 98.44, 98.16 97.35 C 99.25 96.26, 99.82 95.65, 100.81 94.52 C 101.80 93.38, 102.27 92.78, 103.10 91.68 C 103.93 90.58, 104.32 89.99, 104.94 89.03 C 105.55 88.06, 105.82 87.60, 106.17 86.86 C 106.51 86.12, 106.62 85.79, 106.67 85.31 C 106.73 84.83, 106.66 84.61, 106.44 84.45 C 106.23 84.30, 106.02 84.30, 105.59 84.55 C 105.16 84.80, 104.87 85.06, 104.30 85.72 C 103.74 86.37, 103.42 86.83, 102.77 87.81 C 102.12 88.78, 101.74 89.41, 101.04 90.58 C 100.34 91.76, 99.92 92.46, 99.26 93.68 C 98.60 94.89, 98.26 95.56, 97.75 96.67 C 97.23 97.78, 96.99 98.32, 96.69 99.22 C 96.39 100.11, 96.28 100.53, 96.23 101.14 C 96.19 101.76, 96.25 102.01, 96.47 102.32 C 96.70 102.62, 96.90 102.68, 97.37 102.67 C 97.83 102.65, 98.13 102.54, 98.78 102.24 C 99.42 101.95, 99.83 101.67, 100.58 101.19 C 101.34 100.70, 101.79 100.35, 102.57 99.81 C 103.35 99.28, 103.78 98.97, 104.46 98.53 C 105.15 98.09, 105.52 97.86, 105.99 97.61 C 106.46 97.36, 106.63 97.28, 106.82 97.27 C 107.00 97.27, 106.97 97.33, 106.91 97.57 C 106.85 97.80, 106.70 98.02, 106.50 98.44 C 106.31 98.86, 106.13 99.16, 105.95 99.68 C 105.77 100.20, 105.65 100.53, 105.61 101.02 C 105.56 101.51, 105.57 101.79, 105.71 102.15 C 105.86 102.51, 105.96 102.68, 106.32 102.84 C 106.68 103.00, 106.95 103.03, 107.53 102.95 C 108.10 102.87, 108.49 102.74, 109.21 102.44 C 109.93 102.15, 110.32 101.92, 111.14 101.49 C 111.97 101.06, 112.45 100.78, 113.33 100.29 C 114.21 99.80, 114.73 99.51, 115.53 99.04 C 116.33 98.57, 116.78 98.30, 117.35 97.94 C 117.93 97.58, 118.16 97.45, 118.41 97.24 C 118.66 97.04, 118.66 96.98, 118.59 96.92 C 118.52 96.87, 118.37 96.85, 118.06 96.98 C 117.75 97.10, 117.48 97.23, 117.06 97.54 C 116.64 97.84, 116.40 98.08, 115.96 98.50 C 115.53 98.92, 115.28 99.18, 114.89 99.63 C 114.50 100.08, 114.29 100.33, 114.02 100.75 C 113.76 101.18, 113.66 101.40, 113.58 101.74 C 113.50 102.09, 113.51 102.26, 113.63 102.48 C 113.76 102.70, 113.90 102.80, 114.21 102.85 C 114.51 102.91, 114.72 102.89, 115.14 102.75 C 115.57 102.61, 115.81 102.48, 116.31 102.17 C 116.81 101.86, 117.09 101.62, 117.63 101.20 C 118.17 100.78, 118.48 100.54, 119.00 100.08 C 119.52 99.61, 119.86 99.31, 120.23 98.89 C 120.61 98.47, 120.75 98.20, 120.86 97.96 C 120.98 97.73, 120.91 97.68, 120.81 97.71 C 120.70 97.75, 120.53 97.87, 120.32 98.15 C 120.12 98.42, 119.92 98.66, 119.77 99.08 C 119.61 99.50, 119.54 99.81, 119.53 100.24 C 119.53 100.67, 119.57 100.92, 119.76 101.24 C 119.95 101.56, 120.09 101.70, 120.48 101.84 C 120.88 101.99, 121.15 102.03, 121.74 101.95 C 122.33 101.87, 122.72 101.75, 123.44 101.46 C 124.17 101.17, 124.58 100.94, 125.36 100.52 C 126.13 100.09, 126.57 99.83, 127.30 99.34 C 128.03 98.86, 128.43 98.57, 128.99 98.10 C 129.54 97.63, 129.81 97.37, 130.07 97.01 C 130.32 96.65, 130.37 96.47, 130.27 96.30 C 130.18 96.13, 129.97 96.07, 129.58 96.18 C 129.19 96.28, 128.86 96.44, 128.33 96.82 C 127.81 97.19, 127.46 97.51, 126.96 98.05 C 126.47 98.59, 126.18 98.93, 125.87 99.51 C 125.55 100.09, 125.44 100.44, 125.39 100.95 C 125.35 101.46, 125.38 101.72, 125.65 102.07 C 125.91 102.41, 126.15 102.56, 126.71 102.68 C 127.27 102.81, 127.63 102.84, 128.46 102.70 C 129.29 102.55, 129.82 102.39, 130.85 101.96 C 131.88 101.53, 132.46 101.23, 133.61 100.54 C 134.76 99.85, 135.40 99.41, 136.59 98.52 C 137.78 97.64, 138.43 97.11, 139.56 96.11 C 140.68 95.11, 141.25 94.55, 142.22 93.52 C 143.19 92.49, 143.67 91.91, 144.43 90.95 C 145.18 89.98, 145.53 89.50, 145.98 88.69 C 146.44 87.89, 146.59 87.50, 146.70 86.91 C 146.81 86.32, 146.75 86.06, 146.51 85.74 C 146.28 85.42, 146.04 85.30, 145.53 85.31 C 145.02 85.32, 144.66 85.41, 143.97 85.79 C 143.28 86.18, 142.86 86.50, 142.08 87.23 C 141.29 87.96, 140.85 88.45, 140.05 89.42 C 139.25 90.40, 138.79 91.00, 138.07 92.12 C 137.34 93.24, 136.96 93.87, 136.42 95.00 C 135.87 96.14, 135.61 96.75, 135.34 97.79 C 135.06 98.83, 134.97 99.36, 135.04 100.22 C 135.10 101.08, 135.22 101.50, 135.65 102.08 C 136.08 102.67, 136.46 102.87, 137.20 103.14 C 137.95 103.41, 138.42 103.44, 139.38 103.41 C 140.34 103.39, 140.92 103.27, 142.00 103.01 C 143.08 102.74, 143.70 102.52, 144.77 102.08 C 145.84 101.64, 146.46 101.29, 147.35 100.81 C 148.24 100.32, 148.64 100.04, 149.22 99.65 C 149.80 99.26, 150.07 99.04, 150.26 98.85 C 150.44 98.65, 150.41 98.60, 150.15 98.67 C 149.89 98.74, 149.59 98.91, 148.97 99.21 C 148.34 99.51, 147.92 99.74, 147.02 100.17 C 146.13 100.61, 145.53 100.95, 144.49 101.38 C 143.45 101.80, 142.84 102.01, 141.82 102.28 C 140.79 102.54, 140.23 102.65, 139.35 102.72 C 138.46 102.78, 138.04 102.77, 137.38 102.58 C 136.73 102.39, 136.42 102.26, 136.06 101.78 C 135.70 101.30, 135.62 100.95, 135.60 100.19 C 135.58 99.42, 135.67 98.94, 135.96 97.96 C 136.25 96.99, 136.50 96.40, 137.04 95.31 C 137.59 94.22, 137.97 93.61, 138.69 92.53 C 139.41 91.45, 139.87 90.87, 140.65 89.92 C 141.44 88.98, 141.88 88.52, 142.62 87.82 C 143.36 87.11, 143.76 86.82, 144.35 86.42 C 144.94 86.02, 145.21 85.90, 145.59 85.81 C 145.97 85.71, 146.11 85.73, 146.24 85.93 C 146.37 86.13, 146.39 86.31, 146.24 86.80 C 146.08 87.29, 145.93 87.64, 145.47 88.39 C 145.00 89.14, 144.66 89.61, 143.91 90.54 C 143.16 91.47, 142.69 92.04, 141.72 93.05 C 140.76 94.05, 140.20 94.59, 139.08 95.57 C 137.97 96.55, 137.32 97.06, 136.15 97.93 C 134.98 98.79, 134.34 99.22, 133.22 99.88 C 132.10 100.54, 131.53 100.82, 130.55 101.24 C 129.57 101.66, 129.06 101.80, 128.31 101.97 C 127.56 102.15, 127.26 102.14, 126.80 102.11 C 126.34 102.07, 126.17 102.01, 125.99 101.80 C 125.82 101.58, 125.84 101.42, 125.93 101.04 C 126.03 100.66, 126.15 100.36, 126.48 99.88 C 126.81 99.40, 127.11 99.13, 127.59 98.65 C 128.07 98.17, 128.43 97.90, 128.88 97.50 C 129.32 97.10, 129.57 96.88, 129.82 96.65 C 130.08 96.42, 130.18 96.35, 130.16 96.35 C 130.13 96.35, 130.02 96.42, 129.70 96.66 C 129.38 96.90, 129.12 97.14, 128.55 97.55 C 127.99 97.96, 127.60 98.26, 126.89 98.71 C 126.18 99.17, 125.73 99.43, 124.98 99.83 C 124.23 100.23, 123.82 100.44, 123.14 100.72 C 122.47 101.00, 122.11 101.12, 121.61 101.24 C 121.11 101.37, 120.91 101.37, 120.63 101.33 C 120.35 101.28, 120.28 101.21, 120.21 101.01 C 120.14 100.81, 120.17 100.65, 120.26 100.33 C 120.35 100.01, 120.51 99.79, 120.65 99.40 C 120.79 99.02, 120.89 98.76, 120.95 98.43 C 121.02 98.09, 121.05 97.89, 120.97 97.74 C 120.90 97.59, 120.83 97.55, 120.58 97.68 C 120.33 97.80, 120.13 98.00, 119.71 98.37 C 119.30 98.73, 119.00 99.05, 118.49 99.49 C 117.97 99.93, 117.67 100.18, 117.15 100.58 C 116.63 100.98, 116.33 101.19, 115.88 101.49 C 115.42 101.79, 115.20 101.90, 114.87 102.08 C 114.53 102.25, 114.40 102.30, 114.21 102.35 C 114.02 102.41, 113.96 102.42, 113.93 102.33 C 113.91 102.25, 113.95 102.16, 114.07 101.92 C 114.20 101.68, 114.30 101.49, 114.58 101.13 C 114.85 100.78, 115.06 100.53, 115.45 100.13 C 115.84 99.73, 116.09 99.50, 116.53 99.12 C 116.96 98.73, 117.24 98.56, 117.62 98.22 C 117.99 97.89, 118.20 97.69, 118.40 97.44 C 118.61 97.19, 118.67 97.06, 118.64 96.95 C 118.61 96.84, 118.55 96.80, 118.23 96.89 C 117.91 96.97, 117.65 97.07, 117.04 97.37 C 116.42 97.67, 115.98 97.95, 115.16 98.40 C 114.35 98.85, 113.84 99.14, 112.96 99.62 C 112.08 100.10, 111.59 100.38, 110.78 100.80 C 109.97 101.22, 109.58 101.42, 108.90 101.71 C 108.22 102.01, 107.87 102.14, 107.39 102.28 C 106.90 102.41, 106.72 102.45, 106.48 102.40 C 106.24 102.35, 106.22 102.26, 106.19 102.01 C 106.15 101.76, 106.19 101.55, 106.31 101.14 C 106.42 100.74, 106.57 100.46, 106.75 99.97 C 106.94 99.48, 107.11 99.17, 107.23 98.68 C 107.34 98.20, 107.40 97.91, 107.33 97.56 C 107.26 97.22, 107.19 97.06, 106.87 96.96 C 106.56 96.87, 106.32 96.89, 105.76 97.08 C 105.21 97.27, 104.82 97.50, 104.09 97.91 C 103.36 98.33, 102.92 98.64, 102.13 99.16 C 101.34 99.67, 100.87 100.00, 100.13 100.48 C 99.39 100.97, 98.99 101.24, 98.43 101.58 C 97.86 101.92, 97.63 102.09, 97.29 102.20 C 96.96 102.31, 96.85 102.33, 96.74 102.14 C 96.63 101.94, 96.63 101.75, 96.73 101.21 C 96.84 100.67, 96.95 100.28, 97.27 99.43 C 97.60 98.58, 97.84 98.04, 98.36 96.97 C 98.89 95.89, 99.24 95.23, 99.92 94.04 C 100.59 92.84, 101.01 92.15, 101.72 90.99 C 102.43 89.84, 102.82 89.22, 103.46 88.27 C 104.10 87.31, 104.43 86.88, 104.92 86.22 C 105.41 85.55, 105.64 85.28, 105.92 84.96 C 106.21 84.64, 106.26 84.57, 106.33 84.62 C 106.39 84.67, 106.38 84.82, 106.25 85.22 C 106.11 85.61, 106.02 85.91, 105.65 86.60 C 105.28 87.29, 105.01 87.74, 104.40 88.68 C 103.78 89.61, 103.38 90.20, 102.56 91.28 C 101.74 92.35, 101.27 92.95, 100.29 94.06 C 99.31 95.18, 98.74 95.77, 97.66 96.84 C 96.57 97.92, 95.98 98.47, 94.87 99.42 C 93.76 100.38, 93.16 100.84, 92.10 101.61 C 91.03 102.38, 90.47 102.74, 89.54 103.28 C 88.61 103.82, 88.17 104.04, 87.45 104.33 C 86.72 104.61, 86.42 104.67, 85.93 104.72 C 85.43 104.77, 85.25 104.73, 84.98 104.57 C 84.72 104.41, 84.65 104.26, 84.60 103.92 C 84.55 103.58, 84.56 103.35, 84.73 102.87 C 84.90 102.39, 85.07 102.09, 85.45 101.52 C 85.84 100.95, 86.12 100.61, 86.64 100.01 C 87.16 99.42, 87.47 99.09, 88.05 98.55 C 88.63 98.01, 88.97 97.74, 89.53 97.31 C 90.10 96.88, 90.40 96.69, 90.87 96.39 C 91.34 96.09, 91.56 96.03, 91.89 95.80 C 92.22 95.57, 92.37 95.44, 92.51 95.24 C 92.65 95.05, 92.63 94.95, 92.59 94.82 C 92.54 94.70, 92.51 94.64, 92.28 94.63 C 92.05 94.61, 91.88 94.60, 91.44 94.75 C 91.00 94.89, 90.71 95.04, 90.07 95.36 C 89.44 95.69, 89.05 95.90, 88.25 96.37 C 87.46 96.85, 86.99 97.16, 86.11 97.74 C 85.23 98.33, 84.72 98.68, 83.83 99.29 C 82.95 99.89, 82.50 100.23, 81.67 100.77 C 80.84 101.31, 80.42 101.58, 79.68 101.98 C 78.94 102.37, 78.57 102.53, 77.98 102.75 C 77.39 102.97, 77.12 103.04, 76.71 103.10 C 76.30 103.16, 76.15 103.17, 75.92 103.06 C 75.69 102.94, 75.63 102.82, 75.58 102.51 C 75.52 102.20, 75.54 101.98, 75.65 101.50 C 75.77 101.02, 75.90 100.70, 76.13 100.09 C 76.36 99.49, 76.58 99.10, 76.81 98.48 C 77.04 97.87, 77.19 97.49, 77.29 97.02 C 77.38 96.54, 77.42 96.30, 77.28 96.11 C 77.15 95.91, 77.01 95.87, 76.60 96.04 C 76.19 96.21, 75.88 96.45, 75.24 96.95 C 74.61 97.46, 74.19 97.88, 73.42 98.56 C 72.65 99.24, 72.18 99.68, 71.39 100.36 C 70.59 101.04, 70.15 101.41, 69.45 101.96 C 68.76 102.50, 68.45 102.76, 67.93 103.09 C 67.41 103.41, 67.20 103.51, 66.86 103.57 C 66.52 103.62, 66.39 103.57, 66.23 103.35 C 66.07 103.13, 66.04 102.97, 66.07 102.45 C 66.10 101.94, 66.14 101.57, 66.36 100.78 C 66.58 99.98, 66.75 99.47, 67.16 98.46 C 67.57 97.44, 67.86 96.85, 68.41 95.69 C 68.95 94.52, 69.31 93.84, 69.89 92.64 C 70.46 91.43, 70.80 90.78, 71.30 89.67 C 71.80 88.56, 72.05 88.01, 72.38 87.09 C 72.71 86.18, 72.85 85.75, 72.96 85.11 C 73.07 84.46, 73.06 84.18, 72.92 83.86 C 72.78 83.53, 72.63 83.44, 72.25 83.48 C 71.88 83.52, 71.65 83.64, 71.05 84.06 C 70.46 84.48, 70.11 84.82, 69.28 85.56 C 68.45 86.31, 67.93 86.80, 66.89 87.78 C 65.85 88.76, 65.23 89.38, 64.10 90.48 C 62.97 91.59, 62.34 92.24, 61.26 93.31 C 60.18 94.38, 59.59 94.94, 58.72 95.83 C 57.84 96.72, 57.46 97.16, 56.88 97.77 C 56.30 98.38, 56.09 98.65, 55.83 98.89 C 55.57 99.12, 55.55 99.16, 55.59 98.94 C 55.62 98.72, 55.73 98.45, 55.99 97.77 C 56.26 97.10, 56.46 96.60, 56.91 95.57 C 57.36 94.55, 57.69 93.90, 58.26 92.65 C 58.84 91.40, 59.20 90.65, 59.79 89.31 C 60.38 87.98, 60.69 87.23, 61.19 85.96 C 61.69 84.69, 61.96 84.01, 62.29 82.96 C 62.63 81.90, 62.78 81.41, 62.86 80.68 C 62.95 79.95, 62.93 79.65, 62.72 79.30 C 62.51 78.96, 62.29 78.89, 61.82 78.96 C 61.35 79.03, 61.02 79.21, 60.37 79.66 C 59.72 80.10, 59.36 80.43, 58.59 81.18 C 57.82 81.93, 57.39 82.38, 56.52 83.39 C 55.66 84.40, 55.20 85.00, 54.26 86.23 C 53.32 87.46, 52.80 88.15, 51.83 89.56 C 50.87 90.97, 50.36 91.75, 49.44 93.27 C 48.51 94.80, 48.05 95.66, 47.21 97.20 C 46.37 98.74, 45.94 99.55, 45.23 100.96 C 44.52 102.37, 44.17 103.10, 43.65 104.25 C 43.13 105.39, 42.92 105.96, 42.62 106.70 C 42.33 107.45, 42.25 107.74, 42.17 107.98 C 42.10 108.21, 42.12 108.22, 42.24 107.88 C 42.35 107.53, 42.45 107.15, 42.74 106.24 C 43.03 105.33, 43.22 104.67, 43.68 103.32 C 44.15 101.97, 44.46 101.09, 45.08 99.48 C 45.70 97.88, 46.10 96.94, 46.79 95.30 C 47.48 93.65, 47.89 92.79, 48.53 91.26 C 49.17 89.73, 49.49 88.95, 49.98 87.65 C 50.48 86.36, 50.72 85.75, 51.02 84.78 C 51.33 83.81, 51.38 83.41, 51.50 82.80 C 51.62 82.20, 51.65 81.97, 51.62 81.75 C 51.60 81.52, 51.51 81.50, 51.38 81.68" style="stroke: black; fill: black;"/><path d="M 169.50,87.33 C 169.42 87.42, 169.44 87.48, 169.31 87.82 C 169.18 88.16, 169.12 88.36, 168.85 89.02 C 168.57 89.67, 168.41 90.13, 167.94 91.09 C 167.46 92.04, 167.15 92.65, 166.49 93.78 C 165.82 94.92, 165.38 95.60, 164.62 96.78 C 163.86 97.96, 163.42 98.59, 162.69 99.67 C 161.96 100.75, 161.53 101.31, 160.95 102.18 C 160.37 103.05, 160.09 103.46, 159.77 104.03 C 159.45 104.61, 159.36 104.84, 159.35 105.06 C 159.35 105.29, 159.44 105.32, 159.74 105.15 C 160.04 104.98, 160.28 104.78, 160.86 104.21 C 161.43 103.64, 161.77 103.21, 162.61 102.30 C 163.44 101.40, 163.93 100.80, 165.02 99.68 C 166.11 98.56, 166.76 97.93, 168.06 96.71 C 169.36 95.49, 170.10 94.82, 171.50 93.58 C 172.90 92.35, 173.67 91.69, 175.07 90.53 C 176.46 89.37, 177.18 88.78, 178.47 87.78 C 179.75 86.77, 180.40 86.29, 181.48 85.50 C 182.57 84.71, 183.10 84.38, 183.89 83.82 C 184.68 83.26, 185.02 83.02, 185.43 82.70 C 185.84 82.38, 185.94 82.28, 185.96 82.22 C 185.98 82.17, 185.86 82.19, 185.51 82.42 C 185.17 82.65, 184.89 82.83, 184.22 83.37 C 183.55 83.91, 183.14 84.28, 182.16 85.11 C 181.17 85.94, 180.56 86.49, 179.28 87.51 C 178.01 88.53, 177.24 89.09, 175.79 90.21 C 174.34 91.32, 173.50 91.95, 172.04 93.09 C 170.58 94.22, 169.79 94.86, 168.48 95.89 C 167.18 96.92, 166.54 97.41, 165.53 98.24 C 164.52 99.07, 164.06 99.43, 163.44 100.03 C 162.82 100.62, 162.61 100.83, 162.42 101.23 C 162.22 101.62, 162.22 101.77, 162.47 101.99 C 162.72 102.22, 162.98 102.29, 163.65 102.34 C 164.31 102.40, 164.80 102.37, 165.80 102.27 C 166.80 102.17, 167.42 102.06, 168.64 101.84 C 169.86 101.62, 170.57 101.48, 171.91 101.18 C 173.25 100.89, 173.98 100.73, 175.33 100.37 C 176.67 100.00, 177.34 99.80, 178.62 99.35 C 179.90 98.91, 180.54 98.68, 181.72 98.12 C 182.91 97.56, 183.50 97.26, 184.54 96.58 C 185.58 95.89, 186.03 95.51, 186.92 94.71 C 187.81 93.90, 188.23 93.45, 189.00 92.55 C 189.77 91.66, 190.14 91.16, 190.77 90.24 C 191.39 89.31, 191.66 88.81, 192.11 87.94 C 192.57 87.06, 192.79 86.61, 193.06 85.87 C 193.32 85.12, 193.41 84.75, 193.44 84.20 C 193.47 83.66, 193.42 83.43, 193.21 83.15 C 192.99 82.87, 192.79 82.78, 192.36 82.81 C 191.94 82.84, 191.65 82.94, 191.08 83.29 C 190.50 83.65, 190.18 83.93, 189.48 84.58 C 188.77 85.24, 188.34 85.68, 187.55 86.58 C 186.77 87.48, 186.33 88.03, 185.55 89.10 C 184.78 90.17, 184.38 90.79, 183.66 91.94 C 182.95 93.09, 182.56 93.71, 181.97 94.86 C 181.39 96.00, 181.12 96.61, 180.74 97.68 C 180.36 98.74, 180.22 99.29, 180.09 100.19 C 179.96 101.09, 179.95 101.50, 180.07 102.18 C 180.20 102.86, 180.33 103.15, 180.72 103.57 C 181.11 103.99, 181.40 104.16, 182.04 104.29 C 182.67 104.43, 183.07 104.40, 183.88 104.24 C 184.68 104.09, 185.16 103.92, 186.07 103.53 C 186.99 103.15, 187.50 102.87, 188.46 102.31 C 189.42 101.75, 189.95 101.40, 190.87 100.74 C 191.78 100.07, 192.28 99.68, 193.05 98.99 C 193.82 98.30, 194.19 97.91, 194.71 97.27 C 195.23 96.64, 195.44 96.33, 195.66 95.83 C 195.87 95.34, 195.90 95.10, 195.78 94.79 C 195.65 94.48, 195.48 94.33, 195.05 94.28 C 194.63 94.24, 194.28 94.29, 193.67 94.56 C 193.06 94.84, 192.66 95.12, 192.01 95.67 C 191.36 96.21, 190.98 96.61, 190.42 97.29 C 189.87 97.98, 189.58 98.39, 189.24 99.10 C 188.90 99.81, 188.78 100.20, 188.72 100.84 C 188.66 101.47, 188.69 101.79, 188.94 102.29 C 189.19 102.79, 189.43 103.04, 189.96 103.33 C 190.50 103.62, 190.87 103.72, 191.63 103.76 C 192.38 103.80, 192.85 103.74, 193.74 103.53 C 194.63 103.32, 195.11 103.12, 196.07 102.70 C 197.03 102.29, 197.58 102.00, 198.53 101.45 C 199.48 100.90, 199.98 100.53, 200.82 99.96 C 201.66 99.38, 202.08 99.05, 202.72 98.57 C 203.37 98.09, 203.69 97.81, 204.03 97.54 C 204.38 97.26, 204.43 97.17, 204.43 97.20 C 204.44 97.23, 204.29 97.34, 204.06 97.67 C 203.83 97.99, 203.58 98.27, 203.27 98.81 C 202.97 99.35, 202.75 99.76, 202.53 100.37 C 202.30 100.98, 202.20 101.35, 202.14 101.87 C 202.08 102.39, 202.07 102.62, 202.24 102.98 C 202.41 103.33, 202.57 103.50, 202.98 103.63 C 203.38 103.75, 203.66 103.73, 204.25 103.61 C 204.84 103.48, 205.18 103.30, 205.90 102.99 C 206.62 102.67, 207.05 102.46, 207.83 102.02 C 208.62 101.59, 209.05 101.29, 209.83 100.80 C 210.60 100.32, 211.07 100.02, 211.70 99.62 C 212.33 99.22, 212.64 98.99, 212.97 98.80 C 213.30 98.61, 213.34 98.57, 213.36 98.66 C 213.37 98.75, 213.25 98.91, 213.04 99.24 C 212.84 99.58, 212.62 99.86, 212.35 100.34 C 212.09 100.83, 211.87 101.18, 211.71 101.67 C 211.56 102.16, 211.51 102.45, 211.57 102.80 C 211.62 103.15, 211.71 103.29, 211.99 103.42 C 212.26 103.56, 212.47 103.56, 212.96 103.47 C 213.46 103.38, 213.78 103.25, 214.46 102.96 C 215.14 102.67, 215.56 102.44, 216.37 102.03 C 217.19 101.63, 217.69 101.33, 218.53 100.95 C 219.37 100.56, 219.84 100.35, 220.56 100.11 C 221.29 99.87, 221.66 99.79, 222.16 99.75 C 222.65 99.70, 222.82 99.72, 223.04 99.88 C 223.26 100.03, 223.25 100.19, 223.25 100.52 C 223.26 100.86, 223.14 101.12, 223.07 101.57 C 223.00 102.02, 222.93 102.32, 222.91 102.77 C 222.90 103.22, 222.93 103.50, 222.99 103.84 C 223.05 104.18, 223.14 104.34, 223.23 104.46 C 223.32 104.58, 223.38 104.56, 223.44 104.43 C 223.51 104.31, 223.50 104.15, 223.54 103.83 C 223.59 103.51, 223.63 103.27, 223.69 102.83 C 223.74 102.39, 223.79 102.12, 223.81 101.64 C 223.83 101.16, 223.89 100.86, 223.79 100.45 C 223.68 100.03, 223.62 99.80, 223.29 99.55 C 222.96 99.30, 222.73 99.22, 222.14 99.20 C 221.56 99.18, 221.15 99.24, 220.37 99.44 C 219.58 99.65, 219.09 99.86, 218.21 100.23 C 217.34 100.60, 216.83 100.89, 216.01 101.29 C 215.19 101.68, 214.77 101.90, 214.12 102.21 C 213.47 102.52, 213.18 102.67, 212.78 102.84 C 212.37 103.02, 212.25 103.09, 212.10 103.09 C 211.95 103.08, 211.96 103.03, 212.03 102.81 C 212.11 102.59, 212.23 102.40, 212.46 101.99 C 212.69 101.57, 212.93 101.26, 213.16 100.75 C 213.40 100.24, 213.54 99.89, 213.62 99.45 C 213.70 99.01, 213.72 98.77, 213.56 98.55 C 213.40 98.33, 213.26 98.27, 212.81 98.36 C 212.37 98.45, 212.01 98.64, 211.34 99.00 C 210.66 99.36, 210.20 99.68, 209.43 100.15 C 208.65 100.62, 208.23 100.91, 207.45 101.34 C 206.68 101.76, 206.25 101.94, 205.57 102.26 C 204.89 102.58, 204.56 102.75, 204.06 102.93 C 203.56 103.11, 203.36 103.18, 203.08 103.15 C 202.80 103.13, 202.71 103.05, 202.64 102.82 C 202.58 102.59, 202.63 102.42, 202.77 102.00 C 202.90 101.57, 203.06 101.25, 203.32 100.70 C 203.58 100.14, 203.81 99.77, 204.06 99.21 C 204.32 98.65, 204.48 98.32, 204.57 97.89 C 204.67 97.47, 204.70 97.25, 204.55 97.10 C 204.39 96.94, 204.24 96.94, 203.79 97.12 C 203.35 97.31, 203.01 97.57, 202.33 98.02 C 201.66 98.47, 201.25 98.81, 200.42 99.37 C 199.58 99.92, 199.09 100.28, 198.16 100.81 C 197.23 101.33, 196.69 101.61, 195.77 102.02 C 194.85 102.42, 194.39 102.60, 193.56 102.81 C 192.74 103.02, 192.31 103.07, 191.65 103.07 C 190.98 103.07, 190.67 103.01, 190.23 102.81 C 189.78 102.61, 189.59 102.44, 189.40 102.06 C 189.22 101.68, 189.20 101.44, 189.29 100.91 C 189.38 100.38, 189.50 100.04, 189.85 99.41 C 190.19 98.79, 190.48 98.41, 191.02 97.79 C 191.56 97.17, 191.96 96.82, 192.56 96.31 C 193.16 95.80, 193.52 95.55, 194.03 95.23 C 194.53 94.92, 194.78 94.82, 195.07 94.75 C 195.36 94.68, 195.45 94.71, 195.48 94.88 C 195.51 95.05, 195.46 95.20, 195.21 95.60 C 194.96 95.99, 194.75 96.28, 194.23 96.86 C 193.70 97.43, 193.35 97.81, 192.59 98.47 C 191.83 99.13, 191.34 99.50, 190.44 100.14 C 189.54 100.78, 189.01 101.12, 188.08 101.66 C 187.15 102.20, 186.65 102.46, 185.78 102.84 C 184.91 103.22, 184.46 103.38, 183.73 103.55 C 183.00 103.73, 182.66 103.79, 182.13 103.73 C 181.60 103.66, 181.38 103.57, 181.07 103.24 C 180.76 102.92, 180.67 102.69, 180.59 102.10 C 180.51 101.51, 180.53 101.13, 180.69 100.29 C 180.84 99.45, 180.98 98.92, 181.36 97.90 C 181.74 96.87, 182.00 96.29, 182.59 95.17 C 183.17 94.06, 183.56 93.45, 184.27 92.32 C 184.99 91.20, 185.39 90.59, 186.16 89.54 C 186.93 88.50, 187.37 87.97, 188.15 87.10 C 188.92 86.22, 189.36 85.81, 190.03 85.17 C 190.70 84.52, 191.00 84.26, 191.48 83.88 C 191.97 83.50, 192.16 83.37, 192.45 83.27 C 192.74 83.16, 192.83 83.17, 192.92 83.34 C 193.02 83.52, 193.01 83.68, 192.92 84.14 C 192.83 84.60, 192.75 84.95, 192.47 85.65 C 192.19 86.34, 191.98 86.78, 191.53 87.63 C 191.08 88.47, 190.82 88.96, 190.21 89.86 C 189.60 90.76, 189.23 91.25, 188.49 92.12 C 187.74 92.99, 187.34 93.44, 186.48 94.23 C 185.62 95.01, 185.19 95.38, 184.18 96.03 C 183.18 96.69, 182.60 96.98, 181.45 97.52 C 180.29 98.06, 179.66 98.29, 178.40 98.72 C 177.14 99.15, 176.47 99.34, 175.14 99.69 C 173.82 100.03, 173.08 100.18, 171.75 100.45 C 170.43 100.72, 169.71 100.85, 168.50 101.05 C 167.29 101.25, 166.68 101.32, 165.70 101.44 C 164.73 101.57, 164.26 101.62, 163.64 101.69 C 163.03 101.75, 162.80 101.82, 162.62 101.77 C 162.43 101.71, 162.46 101.68, 162.70 101.41 C 162.94 101.14, 163.16 100.97, 163.80 100.43 C 164.45 99.90, 164.90 99.53, 165.92 98.73 C 166.94 97.93, 167.60 97.45, 168.91 96.43 C 170.22 95.42, 171.01 94.79, 172.48 93.67 C 173.95 92.54, 174.80 91.92, 176.26 90.81 C 177.72 89.71, 178.49 89.15, 179.78 88.13 C 181.07 87.12, 181.70 86.58, 182.69 85.75 C 183.68 84.91, 184.10 84.55, 184.73 83.96 C 185.36 83.36, 185.60 83.12, 185.85 82.76 C 186.09 82.40, 186.11 82.23, 185.98 82.14 C 185.85 82.06, 185.68 82.08, 185.19 82.32 C 184.71 82.56, 184.37 82.80, 183.56 83.33 C 182.74 83.87, 182.21 84.20, 181.11 84.99 C 180.01 85.77, 179.36 86.25, 178.06 87.25 C 176.76 88.25, 176.03 88.83, 174.62 89.99 C 173.21 91.15, 172.44 91.80, 171.02 93.04 C 169.61 94.27, 168.86 94.94, 167.55 96.16 C 166.23 97.37, 165.57 98.01, 164.45 99.12 C 163.34 100.24, 162.81 100.81, 161.97 101.73 C 161.14 102.64, 160.79 103.07, 160.29 103.70 C 159.79 104.34, 159.63 104.61, 159.48 104.90 C 159.33 105.19, 159.38 105.26, 159.53 105.15 C 159.68 105.03, 159.84 104.85, 160.23 104.33 C 160.62 103.81, 160.88 103.40, 161.49 102.55 C 162.10 101.70, 162.52 101.15, 163.28 100.08 C 164.03 99.00, 164.47 98.37, 165.25 97.19 C 166.03 96.02, 166.50 95.34, 167.18 94.20 C 167.87 93.05, 168.21 92.44, 168.69 91.45 C 169.16 90.47, 169.35 89.99, 169.58 89.29 C 169.81 88.58, 169.80 88.32, 169.83 87.93 C 169.86 87.54, 169.79 87.47, 169.73 87.35 C 169.66 87.22, 169.59 87.23, 169.50 87.33" style="stroke: black; fill: black;"/></svg>