<svg xmlns="http://www.w3.org/2000/svg" id="canvas" viewBox="39.862 76.809 181.375 32.549"><path d="M 50.72,83.72 C 50.61 83.87, 50.59 84.04, 50.42 84.54 C 50.24 85.05, 50.14 85.37, 49.84 86.23 C 49.55 87.08, 49.36 87.67, 48.92 88.84 C 48.48 90.01, 48.18 90.70, 47.63 92.07 C 47.08 93.44, 46.75 94.24, 46.18 95.68 C 45.61 97.13, 45.27 97.96, 44.77 99.31 C 44.26 100.66, 44.01 101.34, 43.66 102.43 C 43.31 103.52, 43.17 104.02, 43.01 104.75 C 42.86 105.48, 42.85 105.78, 42.87 106.10 C 42.90 106.42, 43.07 106.30, 43.13 106.34 C 43.19 106.38, 43.17 106.35, 43.18 106.31 C 43.19 106.26, 43.08 106.41, 43.15 106.13 C 43.23 105.84, 43.33 105.59, 43.55 104.89 C 43.77 104.19, 43.89 103.70, 44.27 102.64 C 44.64 101.57, 44.91 100.90, 45.43 99.56 C 45.95 98.23, 46.29 97.40, 46.88 95.96 C 47.46 94.52, 47.79 93.73, 48.35 92.37 C 48.91 91.00, 49.24 90.31, 49.69 89.13 C 50.13 87.95, 50.33 87.35, 50.59 86.46 C 50.84 85.57, 50.89 85.22, 50.96 84.68 C 51.04 84.14, 51.02 83.95, 50.97 83.76 C 50.92 83.57, 50.83 83.56, 50.72 83.72" style="stroke: black; fill: black;"/><path d="M 51.13,83.73 C 51.30 83.59, 51.48 83.26, 51.69 82.91 C 51.89 82.57, 52.01 82.26, 52.15 82.00 C 52.28 81.75, 52.30 81.58, 52.37 81.62 C 52.43 81.67, 52.42 81.82, 52.47 82.22 C 52.51 82.63, 52.49 83.00, 52.58 83.66 C 52.67 84.32, 52.72 84.78, 52.92 85.54 C 53.12 86.29, 53.22 86.75, 53.58 87.44 C 53.93 88.14, 54.13 88.51, 54.68 89.01 C 55.23 89.52, 55.56 89.76, 56.34 89.97 C 57.12 90.19, 57.59 90.22, 58.58 90.11 C 59.58 89.99, 60.14 89.83, 61.30 89.42 C 62.47 89.01, 63.13 88.72, 64.40 88.07 C 65.67 87.42, 66.40 86.98, 67.65 86.18 C 68.90 85.37, 69.57 84.86, 70.67 84.05 C 71.77 83.24, 72.32 82.78, 73.14 82.12 C 73.97 81.47, 74.33 81.13, 74.79 80.75 C 75.24 80.38, 75.36 80.23, 75.42 80.25 C 75.47 80.26, 75.36 80.37, 75.05 80.84 C 74.74 81.30, 74.46 81.66, 73.87 82.56 C 73.28 83.47, 72.89 84.09, 72.10 85.35 C 71.30 86.61, 70.81 87.40, 69.88 88.88 C 68.95 90.36, 68.39 91.21, 67.45 92.75 C 66.52 94.29, 66.01 95.14, 65.21 96.59 C 64.41 98.03, 64.02 98.77, 63.43 99.99 C 62.85 101.20, 62.57 101.78, 62.28 102.67 C 61.99 103.55, 61.92 103.91, 61.97 104.41 C 62.02 104.90, 62.18 105.07, 62.55 105.14 C 62.92 105.21, 63.20 105.11, 63.81 104.76 C 64.42 104.41, 64.81 104.09, 65.59 103.40 C 66.36 102.71, 66.81 102.21, 67.70 101.32 C 68.58 100.42, 69.07 99.87, 70.01 98.93 C 70.95 97.99, 71.50 97.49, 72.39 96.63 C 73.29 95.78, 73.79 95.31, 74.48 94.65 C 75.17 94.00, 75.48 93.69, 75.85 93.35 C 76.21 93.02, 76.29 92.96, 76.33 92.99 C 76.36 93.03, 76.24 93.14, 76.00 93.52 C 75.76 93.90, 75.49 94.25, 75.14 94.91 C 74.78 95.57, 74.57 96.04, 74.22 96.81 C 73.87 97.57, 73.67 98.01, 73.40 98.74 C 73.12 99.47, 72.98 99.84, 72.85 100.46 C 72.72 101.08, 72.68 101.39, 72.77 101.84 C 72.86 102.28, 72.97 102.48, 73.30 102.69 C 73.63 102.90, 73.87 102.95, 74.42 102.89 C 74.96 102.82, 75.30 102.69, 76.01 102.37 C 76.72 102.04, 77.13 101.77, 77.96 101.25 C 78.79 100.72, 79.26 100.38, 80.17 99.75 C 81.09 99.11, 81.60 98.72, 82.52 98.08 C 83.44 97.44, 83.93 97.09, 84.78 96.54 C 85.62 95.98, 86.05 95.70, 86.75 95.28 C 87.45 94.87, 87.79 94.69, 88.28 94.44 C 88.78 94.19, 88.97 94.12, 89.21 94.02 C 89.45 93.92, 89.50 93.91, 89.47 93.93 C 89.44 93.94, 89.32 93.94, 89.08 94.10 C 88.84 94.26, 88.63 94.39, 88.25 94.72 C 87.88 95.05, 87.66 95.30, 87.20 95.75 C 86.74 96.21, 86.44 96.48, 85.96 97.01 C 85.48 97.53, 85.22 97.84, 84.78 98.39 C 84.35 98.94, 84.12 99.22, 83.80 99.75 C 83.48 100.28, 83.33 100.54, 83.18 101.03 C 83.02 101.51, 82.98 101.76, 83.04 102.17 C 83.10 102.57, 83.20 102.78, 83.49 103.04 C 83.77 103.31, 83.98 103.43, 84.48 103.50 C 84.98 103.57, 85.30 103.56, 85.98 103.39 C 86.66 103.22, 87.07 103.07, 87.90 102.65 C 88.74 102.23, 89.19 101.93, 90.16 101.28 C 91.13 100.64, 91.69 100.25, 92.75 99.41 C 93.80 98.56, 94.38 98.08, 95.45 97.06 C 96.51 96.05, 97.06 95.45, 98.08 94.34 C 99.09 93.24, 99.62 92.64, 100.54 91.54 C 101.46 90.45, 101.91 89.87, 102.69 88.87 C 103.47 87.86, 103.83 87.38, 104.42 86.52 C 105.00 85.66, 105.27 85.24, 105.63 84.58 C 105.98 83.92, 106.10 83.64, 106.19 83.22 C 106.28 82.79, 106.24 82.62, 106.08 82.45 C 105.92 82.28, 105.76 82.21, 105.39 82.36 C 105.02 82.52, 104.75 82.70, 104.22 83.24 C 103.69 83.77, 103.37 84.18, 102.73 85.04 C 102.08 85.91, 101.70 86.47, 101.00 87.58 C 100.29 88.68, 99.89 89.36, 99.21 90.57 C 98.53 91.78, 98.17 92.46, 97.59 93.62 C 97.00 94.78, 96.70 95.38, 96.28 96.37 C 95.85 97.36, 95.67 97.82, 95.46 98.58 C 95.26 99.34, 95.20 99.68, 95.26 100.17 C 95.32 100.66, 95.42 100.85, 95.76 101.04 C 96.10 101.22, 96.38 101.23, 96.96 101.11 C 97.53 100.98, 97.90 100.79, 98.64 100.40 C 99.38 100.01, 99.83 99.68, 100.66 99.15 C 101.48 98.63, 101.94 98.29, 102.76 97.77 C 103.58 97.25, 104.05 96.96, 104.77 96.54 C 105.50 96.12, 105.88 95.93, 106.40 95.69 C 106.91 95.46, 107.10 95.39, 107.36 95.37 C 107.62 95.35, 107.68 95.39, 107.70 95.58 C 107.72 95.77, 107.59 95.94, 107.44 96.32 C 107.28 96.71, 107.09 97.00, 106.92 97.50 C 106.75 97.99, 106.64 98.31, 106.57 98.80 C 106.49 99.28, 106.45 99.53, 106.53 99.91 C 106.61 100.29, 106.69 100.46, 106.97 100.68 C 107.25 100.89, 107.45 100.96, 107.93 100.97 C 108.42 100.97, 108.73 100.90, 109.39 100.71 C 110.06 100.51, 110.44 100.36, 111.25 100.01 C 112.05 99.65, 112.52 99.41, 113.40 98.93 C 114.28 98.46, 114.78 98.15, 115.65 97.63 C 116.52 97.11, 116.99 96.82, 117.76 96.33 C 118.53 95.83, 118.99 95.57, 119.50 95.16 C 120.01 94.76, 120.18 94.56, 120.31 94.30 C 120.44 94.05, 120.36 93.94, 120.16 93.88 C 119.96 93.81, 119.77 93.79, 119.30 93.97 C 118.84 94.15, 118.46 94.33, 117.82 94.76 C 117.18 95.20, 116.78 95.54, 116.12 96.13 C 115.46 96.73, 115.09 97.10, 114.51 97.73 C 113.92 98.37, 113.59 98.72, 113.20 99.31 C 112.81 99.89, 112.64 100.19, 112.55 100.64 C 112.46 101.10, 112.53 101.32, 112.75 101.57 C 112.97 101.83, 113.18 101.91, 113.65 101.91 C 114.11 101.91, 114.43 101.83, 115.06 101.57 C 115.69 101.32, 116.07 101.10, 116.79 100.64 C 117.51 100.17, 117.94 99.83, 118.67 99.25 C 119.40 98.66, 119.83 98.27, 120.44 97.73 C 121.04 97.18, 121.35 96.88, 121.69 96.53 C 122.03 96.19, 122.11 96.06, 122.14 96.00 C 122.17 95.94, 122.05 96.01, 121.85 96.25 C 121.65 96.50, 121.40 96.76, 121.14 97.23 C 120.88 97.70, 120.70 98.06, 120.55 98.59 C 120.41 99.12, 120.35 99.42, 120.40 99.88 C 120.45 100.34, 120.52 100.58, 120.81 100.90 C 121.09 101.22, 121.31 101.37, 121.83 101.48 C 122.35 101.59, 122.70 101.58, 123.41 101.45 C 124.11 101.32, 124.54 101.17, 125.36 100.83 C 126.17 100.48, 126.64 100.24, 127.47 99.74 C 128.31 99.24, 128.76 98.91, 129.53 98.34 C 130.31 97.76, 130.73 97.42, 131.33 96.85 C 131.92 96.28, 132.19 95.99, 132.51 95.50 C 132.82 95.01, 132.90 94.75, 132.89 94.39 C 132.87 94.03, 132.76 93.85, 132.45 93.69 C 132.13 93.54, 131.84 93.51, 131.32 93.62 C 130.80 93.72, 130.44 93.86, 129.86 94.23 C 129.28 94.59, 128.94 94.91, 128.43 95.44 C 127.91 95.98, 127.63 96.32, 127.28 96.90 C 126.92 97.49, 126.75 97.81, 126.64 98.38 C 126.52 98.96, 126.52 99.30, 126.71 99.77 C 126.90 100.25, 127.11 100.48, 127.59 100.76 C 128.08 101.04, 128.40 101.13, 129.13 101.16 C 129.86 101.20, 130.31 101.16, 131.25 100.94 C 132.20 100.71, 132.76 100.52, 133.86 100.02 C 134.97 99.53, 135.59 99.19, 136.78 98.47 C 137.97 97.74, 138.64 97.30, 139.81 96.42 C 140.98 95.53, 141.60 95.02, 142.64 94.06 C 143.69 93.09, 144.18 92.55, 145.03 91.59 C 145.88 90.63, 146.28 90.13, 146.88 89.27 C 147.48 88.41, 147.73 87.99, 148.04 87.28 C 148.35 86.56, 148.42 86.22, 148.42 85.70 C 148.42 85.17, 148.33 84.94, 148.03 84.65 C 147.74 84.35, 147.48 84.24, 146.94 84.24 C 146.40 84.24, 146.06 84.30, 145.34 84.64 C 144.63 84.98, 144.19 85.24, 143.36 85.92 C 142.52 86.59, 142.06 87.04, 141.17 88.00 C 140.29 88.95, 139.78 89.55, 138.94 90.69 C 138.10 91.82, 137.63 92.49, 136.95 93.67 C 136.27 94.86, 135.94 95.50, 135.55 96.61 C 135.16 97.72, 135.04 98.29, 135.00 99.23 C 134.96 100.18, 135.04 100.62, 135.35 101.34 C 135.66 102.06, 135.92 102.36, 136.53 102.83 C 137.15 103.29, 137.56 103.47, 138.43 103.67 C 139.29 103.87, 139.90 103.85, 140.86 103.82 C 141.81 103.80, 142.41 103.70, 143.22 103.55 C 144.02 103.39, 144.57 103.21, 144.90 103.06 C 145.23 102.91, 145.21 102.83, 144.86 102.80 C 144.50 102.76, 143.94 102.85, 143.13 102.90 C 142.33 102.95, 141.75 103.03, 140.84 103.05 C 139.92 103.07, 139.36 103.14, 138.56 103.00 C 137.77 102.87, 137.40 102.74, 136.86 102.37 C 136.32 102.00, 136.10 101.76, 135.84 101.14 C 135.58 100.52, 135.51 100.13, 135.58 99.27 C 135.64 98.41, 135.77 97.88, 136.16 96.83 C 136.56 95.79, 136.89 95.17, 137.57 94.03 C 138.24 92.90, 138.71 92.25, 139.55 91.14 C 140.38 90.04, 140.88 89.45, 141.74 88.53 C 142.60 87.60, 143.06 87.17, 143.85 86.52 C 144.64 85.87, 145.05 85.63, 145.67 85.29 C 146.30 84.94, 146.56 84.86, 146.98 84.79 C 147.40 84.72, 147.56 84.75, 147.76 84.93 C 147.95 85.11, 148.00 85.25, 147.96 85.68 C 147.91 86.10, 147.84 86.40, 147.53 87.04 C 147.21 87.69, 146.97 88.08, 146.37 88.90 C 145.77 89.72, 145.37 90.21, 144.53 91.14 C 143.69 92.07, 143.20 92.60, 142.17 93.54 C 141.14 94.48, 140.53 94.97, 139.37 95.83 C 138.22 96.69, 137.55 97.12, 136.39 97.82 C 135.22 98.52, 134.61 98.85, 133.55 99.33 C 132.49 99.81, 131.95 99.98, 131.07 100.21 C 130.19 100.45, 129.79 100.48, 129.14 100.49 C 128.50 100.50, 128.25 100.45, 127.86 100.26 C 127.47 100.08, 127.32 99.93, 127.19 99.58 C 127.07 99.24, 127.09 98.98, 127.22 98.52 C 127.35 98.07, 127.51 97.79, 127.86 97.29 C 128.22 96.78, 128.50 96.48, 128.99 96.00 C 129.48 95.53, 129.80 95.26, 130.31 94.91 C 130.82 94.57, 131.11 94.44, 131.52 94.27 C 131.92 94.10, 132.12 94.05, 132.32 94.07 C 132.52 94.08, 132.57 94.15, 132.52 94.37 C 132.46 94.59, 132.38 94.77, 132.05 95.17 C 131.72 95.56, 131.46 95.83, 130.87 96.35 C 130.28 96.86, 129.85 97.20, 129.10 97.74 C 128.34 98.29, 127.89 98.61, 127.08 99.08 C 126.27 99.56, 125.82 99.78, 125.05 100.11 C 124.28 100.44, 123.88 100.57, 123.25 100.72 C 122.63 100.87, 122.33 100.91, 121.92 100.88 C 121.50 100.85, 121.36 100.77, 121.17 100.57 C 120.99 100.37, 120.95 100.21, 120.99 99.87 C 121.03 99.53, 121.16 99.32, 121.35 98.87 C 121.55 98.42, 121.76 98.10, 121.95 97.61 C 122.14 97.12, 122.27 96.79, 122.31 96.44 C 122.35 96.09, 122.34 95.92, 122.15 95.85 C 121.96 95.79, 121.80 95.84, 121.36 96.10 C 120.92 96.36, 120.59 96.65, 119.95 97.15 C 119.31 97.65, 118.89 98.05, 118.17 98.61 C 117.45 99.18, 117.03 99.50, 116.35 99.95 C 115.66 100.41, 115.29 100.59, 114.74 100.88 C 114.19 101.16, 113.93 101.27, 113.58 101.36 C 113.23 101.46, 113.11 101.47, 113.00 101.35 C 112.89 101.24, 112.87 101.11, 113.01 100.78 C 113.16 100.45, 113.33 100.20, 113.73 99.70 C 114.14 99.19, 114.47 98.84, 115.05 98.26 C 115.64 97.67, 116.01 97.31, 116.67 96.76 C 117.33 96.21, 117.75 95.94, 118.34 95.50 C 118.93 95.06, 119.26 94.85, 119.63 94.57 C 120.00 94.28, 120.09 94.18, 120.18 94.08 C 120.27 93.99, 120.28 93.98, 120.07 94.09 C 119.87 94.20, 119.68 94.32, 119.14 94.64 C 118.60 94.97, 118.15 95.25, 117.38 95.72 C 116.60 96.19, 116.14 96.49, 115.27 97.00 C 114.41 97.50, 113.91 97.79, 113.04 98.25 C 112.17 98.71, 111.70 98.94, 110.93 99.28 C 110.15 99.63, 109.77 99.76, 109.16 99.97 C 108.55 100.18, 108.28 100.28, 107.89 100.35 C 107.50 100.41, 107.39 100.42, 107.22 100.32 C 107.05 100.22, 107.04 100.12, 107.06 99.85 C 107.07 99.58, 107.15 99.38, 107.29 98.97 C 107.42 98.55, 107.56 98.27, 107.73 97.78 C 107.89 97.28, 108.05 96.96, 108.11 96.50 C 108.18 96.04, 108.20 95.77, 108.06 95.46 C 107.91 95.16, 107.76 95.04, 107.38 94.98 C 107.01 94.92, 106.78 94.96, 106.19 95.15 C 105.60 95.34, 105.21 95.53, 104.44 95.93 C 103.68 96.33, 103.21 96.62, 102.36 97.13 C 101.52 97.63, 101.04 97.95, 100.22 98.47 C 99.40 98.98, 98.94 99.29, 98.25 99.70 C 97.56 100.11, 97.24 100.31, 96.77 100.52 C 96.30 100.72, 96.13 100.80, 95.91 100.72 C 95.69 100.65, 95.66 100.55, 95.68 100.15 C 95.70 99.76, 95.78 99.45, 96.01 98.75 C 96.25 98.04, 96.43 97.59, 96.87 96.63 C 97.31 95.67, 97.62 95.08, 98.22 93.94 C 98.82 92.80, 99.18 92.13, 99.87 90.95 C 100.56 89.76, 100.96 89.09, 101.67 88.01 C 102.38 86.93, 102.78 86.39, 103.40 85.54 C 104.03 84.69, 104.36 84.31, 104.81 83.76 C 105.26 83.20, 105.43 83.00, 105.65 82.76 C 105.88 82.53, 105.90 82.51, 105.92 82.58 C 105.95 82.64, 105.93 82.74, 105.77 83.08 C 105.61 83.42, 105.50 83.68, 105.12 84.29 C 104.75 84.91, 104.49 85.33, 103.90 86.16 C 103.31 87.00, 102.95 87.48, 102.17 88.46 C 101.39 89.45, 100.94 90.02, 100.01 91.10 C 99.09 92.17, 98.57 92.77, 97.55 93.86 C 96.54 94.95, 96.00 95.54, 94.94 96.53 C 93.89 97.53, 93.32 98.00, 92.28 98.82 C 91.24 99.65, 90.68 100.02, 89.74 100.65 C 88.79 101.28, 88.35 101.56, 87.56 101.97 C 86.77 102.38, 86.39 102.51, 85.79 102.69 C 85.18 102.87, 84.93 102.89, 84.53 102.89 C 84.14 102.88, 84.01 102.83, 83.81 102.67 C 83.61 102.51, 83.56 102.40, 83.54 102.11 C 83.53 101.82, 83.57 101.63, 83.74 101.23 C 83.90 100.83, 84.04 100.58, 84.36 100.11 C 84.68 99.63, 84.91 99.35, 85.34 98.84 C 85.77 98.33, 86.03 98.03, 86.52 97.54 C 87.01 97.04, 87.32 96.79, 87.78 96.35 C 88.24 95.90, 88.48 95.68, 88.83 95.31 C 89.17 94.94, 89.34 94.77, 89.50 94.48 C 89.66 94.20, 89.71 94.06, 89.63 93.89 C 89.56 93.72, 89.45 93.63, 89.14 93.64 C 88.82 93.64, 88.59 93.70, 88.05 93.92 C 87.51 94.14, 87.16 94.32, 86.43 94.73 C 85.70 95.14, 85.27 95.41, 84.41 95.96 C 83.54 96.51, 83.04 96.85, 82.11 97.48 C 81.17 98.11, 80.65 98.49, 79.74 99.11 C 78.83 99.73, 78.35 100.07, 77.54 100.58 C 76.73 101.09, 76.32 101.33, 75.67 101.68 C 75.02 102.02, 74.73 102.16, 74.30 102.29 C 73.86 102.42, 73.71 102.44, 73.50 102.33 C 73.29 102.23, 73.26 102.12, 73.25 101.78 C 73.24 101.43, 73.30 101.17, 73.46 100.61 C 73.63 100.06, 73.76 99.70, 74.07 99.01 C 74.37 98.32, 74.61 97.91, 74.98 97.17 C 75.35 96.43, 75.61 95.98, 75.92 95.29 C 76.23 94.60, 76.41 94.20, 76.52 93.72 C 76.62 93.24, 76.61 93.02, 76.42 92.88 C 76.24 92.73, 76.06 92.73, 75.59 92.98 C 75.11 93.24, 74.78 93.53, 74.04 94.16 C 73.30 94.78, 72.81 95.26, 71.90 96.10 C 70.98 96.95, 70.43 97.46, 69.48 98.39 C 68.53 99.32, 68.01 99.86, 67.12 100.75 C 66.23 101.63, 65.76 102.09, 65.03 102.79 C 64.29 103.49, 63.94 103.82, 63.45 104.23 C 62.95 104.65, 62.79 104.82, 62.56 104.86 C 62.34 104.89, 62.28 104.80, 62.33 104.41 C 62.38 104.01, 62.47 103.69, 62.81 102.86 C 63.15 102.04, 63.41 101.46, 64.01 100.27 C 64.61 99.09, 65.00 98.35, 65.82 96.93 C 66.63 95.50, 67.14 94.66, 68.09 93.14 C 69.03 91.62, 69.60 90.77, 70.54 89.30 C 71.49 87.84, 72.00 87.06, 72.80 85.80 C 73.61 84.53, 74.01 83.93, 74.56 82.99 C 75.10 82.04, 75.33 81.63, 75.51 81.06 C 75.70 80.49, 75.69 80.27, 75.49 80.13 C 75.29 79.99, 75.07 80.06, 74.52 80.36 C 73.97 80.65, 73.60 80.98, 72.75 81.61 C 71.89 82.23, 71.35 82.68, 70.25 83.47 C 69.15 84.26, 68.49 84.76, 67.25 85.55 C 66.01 86.33, 65.30 86.76, 64.06 87.39 C 62.82 88.03, 62.16 88.32, 61.05 88.72 C 59.94 89.13, 59.41 89.29, 58.50 89.43 C 57.59 89.56, 57.17 89.56, 56.49 89.38 C 55.81 89.21, 55.56 89.02, 55.10 88.57 C 54.65 88.12, 54.49 87.79, 54.21 87.15 C 53.93 86.50, 53.87 86.07, 53.71 85.35 C 53.55 84.62, 53.54 84.18, 53.41 83.52 C 53.28 82.86, 53.26 82.50, 53.08 82.06 C 52.89 81.62, 52.76 81.42, 52.48 81.33 C 52.20 81.24, 51.96 81.35, 51.67 81.60 C 51.38 81.85, 51.18 82.17, 51.01 82.57 C 50.84 82.98, 50.80 83.38, 50.82 83.61 C 50.85 83.84, 50.95 83.87, 51.13 83.73" style="stroke: black; fill: black;"/><path d="M 167.78,84.65 C 167.65 84.76, 167.59 84.89, 167.38 85.30 C 167.17 85.71, 167.07 85.99, 166.72 86.70 C 166.38 87.41, 166.15 87.87, 165.65 88.84 C 165.15 89.82, 164.85 90.42, 164.22 91.58 C 163.58 92.73, 163.20 93.40, 162.47 94.62 C 161.75 95.84, 161.33 96.49, 160.60 97.69 C 159.87 98.89, 159.45 99.55, 158.82 100.63 C 158.20 101.72, 157.90 102.27, 157.47 103.12 C 157.05 103.96, 156.86 104.34, 156.71 104.87 C 156.56 105.40, 156.54 105.65, 156.72 105.78 C 156.90 105.91, 157.11 105.85, 157.62 105.50 C 158.13 105.16, 158.48 104.82, 159.28 104.05 C 160.09 103.28, 160.55 102.74, 161.65 101.66 C 162.74 100.58, 163.41 99.90, 164.75 98.66 C 166.09 97.41, 166.87 96.72, 168.35 95.42 C 169.84 94.11, 170.64 93.43, 172.16 92.14 C 173.69 90.85, 174.50 90.19, 175.96 88.97 C 177.42 87.74, 178.15 87.10, 179.44 86.02 C 180.74 84.93, 181.38 84.41, 182.45 83.53 C 183.53 82.65, 184.04 82.24, 184.82 81.60 C 185.60 80.97, 185.96 80.69, 186.34 80.35 C 186.72 80.00, 186.82 79.88, 186.72 79.89 C 186.63 79.89, 186.43 79.96, 185.86 80.37 C 185.29 80.78, 184.86 81.15, 183.89 81.94 C 182.92 82.74, 182.29 83.28, 181.02 84.33 C 179.75 85.39, 179.00 86.03, 177.54 87.21 C 176.09 88.38, 175.28 89.02, 173.76 90.21 C 172.23 91.41, 171.41 92.03, 169.93 93.18 C 168.46 94.32, 167.67 94.91, 166.36 95.95 C 165.05 96.99, 164.38 97.52, 163.37 98.38 C 162.37 99.23, 161.93 99.61, 161.33 100.22 C 160.73 100.83, 160.52 101.06, 160.37 101.43 C 160.23 101.80, 160.28 101.93, 160.59 102.07 C 160.90 102.21, 161.24 102.22, 161.93 102.15 C 162.63 102.07, 163.09 101.96, 164.06 101.70 C 165.03 101.44, 165.62 101.23, 166.79 100.85 C 167.95 100.46, 168.62 100.24, 169.90 99.79 C 171.17 99.34, 171.86 99.10, 173.15 98.61 C 174.43 98.11, 175.09 97.87, 176.32 97.32 C 177.55 96.78, 178.17 96.49, 179.30 95.87 C 180.43 95.25, 180.96 94.92, 181.97 94.21 C 182.99 93.50, 183.47 93.13, 184.37 92.33 C 185.28 91.52, 185.73 91.06, 186.49 90.19 C 187.26 89.32, 187.59 88.84, 188.19 87.97 C 188.79 87.09, 189.09 86.62, 189.49 85.81 C 189.90 85.01, 190.03 84.61, 190.22 83.93 C 190.40 83.25, 190.43 82.95, 190.41 82.43 C 190.40 81.92, 190.36 81.66, 190.13 81.34 C 189.90 81.01, 189.69 80.87, 189.25 80.81 C 188.81 80.75, 188.53 80.77, 187.94 81.04 C 187.34 81.31, 187.03 81.54, 186.29 82.15 C 185.54 82.76, 185.09 83.17, 184.21 84.11 C 183.33 85.06, 182.81 85.67, 181.87 86.87 C 180.94 88.07, 180.42 88.77, 179.53 90.11 C 178.64 91.45, 178.17 92.20, 177.42 93.57 C 176.68 94.94, 176.33 95.67, 175.81 96.96 C 175.30 98.24, 175.09 98.90, 174.85 99.99 C 174.60 101.08, 174.53 101.59, 174.58 102.41 C 174.63 103.24, 174.72 103.60, 175.09 104.12 C 175.45 104.65, 175.76 104.83, 176.41 105.02 C 177.06 105.22, 177.50 105.22, 178.34 105.09 C 179.19 104.97, 179.68 104.80, 180.64 104.40 C 181.59 104.00, 182.14 103.68, 183.12 103.07 C 184.10 102.46, 184.65 102.06, 185.55 101.34 C 186.45 100.63, 186.91 100.21, 187.62 99.50 C 188.34 98.79, 188.67 98.42, 189.13 97.80 C 189.58 97.19, 189.77 96.89, 189.90 96.43 C 190.03 95.96, 189.97 95.73, 189.78 95.47 C 189.59 95.21, 189.36 95.12, 188.93 95.12 C 188.51 95.12, 188.20 95.19, 187.64 95.48 C 187.08 95.77, 186.71 96.01, 186.14 96.55 C 185.56 97.09, 185.24 97.47, 184.76 98.17 C 184.29 98.86, 184.05 99.29, 183.77 100.02 C 183.48 100.75, 183.35 101.17, 183.34 101.82 C 183.32 102.48, 183.40 102.81, 183.69 103.30 C 183.98 103.78, 184.21 104.00, 184.79 104.25 C 185.36 104.50, 185.76 104.56, 186.55 104.55 C 187.34 104.53, 187.81 104.43, 188.72 104.18 C 189.63 103.94, 190.13 103.75, 191.09 103.32 C 192.05 102.90, 192.59 102.60, 193.52 102.07 C 194.45 101.54, 194.95 101.21, 195.74 100.69 C 196.52 100.16, 196.94 99.84, 197.46 99.45 C 197.97 99.05, 198.16 98.86, 198.31 98.72 C 198.47 98.58, 198.38 98.58, 198.23 98.76 C 198.07 98.93, 197.84 99.14, 197.54 99.59 C 197.23 100.04, 196.97 100.42, 196.70 101.01 C 196.43 101.60, 196.27 101.98, 196.18 102.53 C 196.08 103.07, 196.07 103.37, 196.21 103.74 C 196.35 104.11, 196.50 104.24, 196.89 104.37 C 197.27 104.50, 197.54 104.52, 198.13 104.39 C 198.72 104.26, 199.08 104.09, 199.83 103.73 C 200.57 103.36, 201.01 103.08, 201.85 102.58 C 202.70 102.08, 203.19 101.75, 204.06 101.24 C 204.93 100.73, 205.42 100.42, 206.20 100.02 C 206.97 99.63, 207.39 99.45, 207.95 99.27 C 208.51 99.09, 208.73 99.07, 208.98 99.13 C 209.23 99.20, 209.22 99.32, 209.18 99.60 C 209.14 99.87, 208.98 100.09, 208.77 100.50 C 208.55 100.91, 208.33 101.20, 208.10 101.65 C 207.87 102.11, 207.71 102.40, 207.61 102.78 C 207.51 103.17, 207.48 103.36, 207.60 103.57 C 207.72 103.77, 207.83 103.84, 208.21 103.81 C 208.59 103.79, 208.87 103.69, 209.49 103.43 C 210.10 103.17, 210.53 102.90, 211.29 102.51 C 212.05 102.12, 212.52 101.84, 213.30 101.48 C 214.07 101.13, 214.52 100.94, 215.16 100.73 C 215.80 100.52, 216.09 100.46, 216.49 100.45 C 216.89 100.45, 216.99 100.52, 217.18 100.70 C 217.37 100.88, 217.38 101.04, 217.45 101.35 C 217.51 101.66, 217.50 101.87, 217.50 102.24 C 217.50 102.60, 217.45 102.82, 217.45 103.17 C 217.46 103.51, 217.50 103.70, 217.53 103.96 C 217.57 104.23, 217.57 104.32, 217.63 104.49 C 217.70 104.66, 217.76 104.76, 217.85 104.82 C 217.93 104.87, 218.00 104.83, 218.05 104.76 C 218.09 104.68, 218.05 104.59, 218.07 104.43 C 218.08 104.27, 218.12 104.19, 218.14 103.94 C 218.16 103.69, 218.15 103.53, 218.17 103.18 C 218.19 102.83, 218.26 102.60, 218.23 102.20 C 218.19 101.80, 218.15 101.54, 218.00 101.17 C 217.85 100.80, 217.76 100.61, 217.46 100.37 C 217.17 100.13, 217.01 100.01, 216.52 99.95 C 216.02 99.89, 215.69 99.92, 214.99 100.08 C 214.28 100.24, 213.80 100.42, 212.98 100.75 C 212.16 101.07, 211.66 101.33, 210.89 101.71 C 210.11 102.10, 209.68 102.36, 209.12 102.68 C 208.56 103.01, 208.32 103.17, 208.07 103.34 C 207.81 103.50, 207.80 103.54, 207.83 103.49 C 207.85 103.43, 207.99 103.34, 208.20 103.06 C 208.41 102.77, 208.61 102.51, 208.86 102.05 C 209.11 101.60, 209.30 101.27, 209.45 100.78 C 209.60 100.28, 209.69 99.98, 209.62 99.58 C 209.56 99.18, 209.48 98.96, 209.12 98.79 C 208.75 98.61, 208.46 98.58, 207.81 98.70 C 207.17 98.82, 206.72 99.01, 205.89 99.38 C 205.06 99.76, 204.56 100.07, 203.68 100.58 C 202.79 101.08, 202.29 101.40, 201.45 101.89 C 200.61 102.37, 200.17 102.64, 199.47 103.01 C 198.76 103.38, 198.43 103.55, 197.94 103.73 C 197.44 103.92, 197.25 103.96, 196.99 103.94 C 196.73 103.91, 196.66 103.86, 196.64 103.62 C 196.61 103.38, 196.68 103.16, 196.86 102.73 C 197.05 102.29, 197.28 101.98, 197.56 101.43 C 197.84 100.87, 198.05 100.48, 198.25 99.97 C 198.45 99.45, 198.55 99.16, 198.55 98.86 C 198.54 98.56, 198.51 98.45, 198.22 98.46 C 197.94 98.48, 197.69 98.60, 197.12 98.93 C 196.54 99.25, 196.14 99.59, 195.35 100.09 C 194.56 100.59, 194.07 100.92, 193.16 101.43 C 192.25 101.94, 191.72 102.23, 190.79 102.64 C 189.86 103.04, 189.37 103.22, 188.52 103.46 C 187.66 103.70, 187.22 103.79, 186.52 103.84 C 185.82 103.89, 185.47 103.87, 185.00 103.71 C 184.52 103.55, 184.35 103.41, 184.14 103.04 C 183.92 102.67, 183.88 102.41, 183.94 101.86 C 183.99 101.31, 184.12 100.94, 184.41 100.29 C 184.71 99.64, 184.94 99.24, 185.40 98.61 C 185.85 97.98, 186.17 97.64, 186.69 97.14 C 187.22 96.65, 187.56 96.44, 188.02 96.14 C 188.48 95.83, 188.70 95.73, 189.00 95.63 C 189.30 95.54, 189.43 95.53, 189.53 95.66 C 189.62 95.78, 189.64 95.91, 189.46 96.27 C 189.29 96.62, 189.11 96.88, 188.65 97.43 C 188.19 97.98, 187.86 98.34, 187.15 99.01 C 186.44 99.68, 185.99 100.08, 185.10 100.77 C 184.22 101.45, 183.67 101.83, 182.72 102.42 C 181.77 103.01, 181.24 103.31, 180.34 103.71 C 179.44 104.11, 178.98 104.26, 178.22 104.42 C 177.46 104.57, 177.09 104.61, 176.54 104.50 C 175.99 104.39, 175.75 104.28, 175.47 103.86 C 175.18 103.44, 175.12 103.14, 175.12 102.40 C 175.11 101.65, 175.18 101.17, 175.45 100.14 C 175.71 99.10, 175.91 98.45, 176.43 97.21 C 176.95 95.96, 177.29 95.25, 178.04 93.91 C 178.78 92.57, 179.26 91.84, 180.15 90.52 C 181.03 89.21, 181.55 88.52, 182.48 87.34 C 183.41 86.17, 183.93 85.58, 184.79 84.65 C 185.65 83.73, 186.09 83.34, 186.78 82.73 C 187.47 82.13, 187.75 81.92, 188.24 81.63 C 188.72 81.34, 188.91 81.31, 189.22 81.30 C 189.52 81.29, 189.63 81.35, 189.77 81.58 C 189.90 81.81, 189.92 81.99, 189.89 82.43 C 189.87 82.87, 189.85 83.15, 189.65 83.76 C 189.46 84.38, 189.33 84.76, 188.92 85.52 C 188.52 86.29, 188.23 86.74, 187.64 87.59 C 187.06 88.43, 186.73 88.90, 185.99 89.75 C 185.25 90.60, 184.81 91.05, 183.93 91.83 C 183.06 92.62, 182.59 92.99, 181.60 93.68 C 180.61 94.37, 180.09 94.69, 178.98 95.29 C 177.87 95.90, 177.26 96.18, 176.05 96.71 C 174.83 97.24, 174.18 97.47, 172.90 97.95 C 171.62 98.42, 170.92 98.66, 169.65 99.09 C 168.38 99.52, 167.71 99.73, 166.55 100.09 C 165.38 100.45, 164.78 100.62, 163.83 100.89 C 162.89 101.16, 162.44 101.28, 161.80 101.46 C 161.17 101.64, 160.88 101.76, 160.65 101.79 C 160.42 101.81, 160.42 101.82, 160.63 101.58 C 160.85 101.35, 161.07 101.16, 161.70 100.61 C 162.33 100.07, 162.76 99.69, 163.78 98.86 C 164.79 98.04, 165.46 97.51, 166.78 96.48 C 168.09 95.46, 168.88 94.87, 170.36 93.73 C 171.84 92.59, 172.67 91.97, 174.20 90.78 C 175.73 89.60, 176.55 88.97, 178.02 87.80 C 179.49 86.64, 180.27 86.02, 181.55 84.98 C 182.84 83.93, 183.50 83.42, 184.44 82.59 C 185.38 81.76, 185.79 81.35, 186.26 80.81 C 186.73 80.28, 186.83 80.08, 186.80 79.92 C 186.77 79.76, 186.57 79.76, 186.10 80.01 C 185.63 80.25, 185.26 80.53, 184.45 81.13 C 183.64 81.74, 183.14 82.16, 182.05 83.04 C 180.97 83.91, 180.33 84.43, 179.02 85.51 C 177.72 86.59, 176.98 87.22, 175.52 88.44 C 174.06 89.66, 173.24 90.32, 171.71 91.60 C 170.18 92.89, 169.37 93.57, 167.87 94.86 C 166.37 96.16, 165.58 96.84, 164.22 98.08 C 162.86 99.32, 162.17 99.99, 161.06 101.07 C 159.96 102.15, 159.47 102.68, 158.71 103.48 C 157.95 104.29, 157.64 104.65, 157.26 105.09 C 156.87 105.53, 156.81 105.69, 156.79 105.68 C 156.77 105.67, 156.89 105.50, 157.14 105.04 C 157.38 104.59, 157.57 104.22, 158.03 103.41 C 158.48 102.60, 158.78 102.05, 159.42 100.98 C 160.05 99.91, 160.47 99.26, 161.21 98.06 C 161.94 96.87, 162.37 96.22, 163.11 95.00 C 163.85 93.78, 164.25 93.11, 164.90 91.96 C 165.55 90.80, 165.87 90.20, 166.37 89.21 C 166.88 88.23, 167.12 87.76, 167.43 87.02 C 167.74 86.28, 167.79 85.96, 167.91 85.50 C 168.03 85.05, 168.04 84.90, 168.01 84.73 C 167.98 84.56, 167.90 84.53, 167.78 84.65" style="stroke: black; fill: black;"/></svg>